<svg width="18" height="18" viewBox="0 0 18 18" fill="none" xmlns="http://www.w3.org/2000/svg">
<path d="M15.1538 2.23047H2.84615C1.82655 2.23047 1 3.05702 1 4.07662V15.1535C1 16.1732 1.82655 16.9997 2.84615 16.9997H15.1538C16.1734 16.9997 17 16.1732 17 15.1535V4.07662C17 3.05702 16.1734 2.23047 15.1538 2.23047Z" stroke="black" stroke-linejoin="round"/>
<path d="M4.07692 1V2.23077M13.9231 1V2.23077M17 5.30769H1M10.8462 9.15385L12.5162 7.92308H12.6923V14.3846M5.07615 8.49731C5.24269 8.21577 5.70885 7.76923 6.53192 7.76923C7.505 7.76923 8.37385 8.29923 8.37385 9.30385C8.37605 9.49833 8.33931 9.69128 8.26579 9.87135C8.19227 10.0514 8.08346 10.2149 7.94577 10.3523C7.52538 10.7827 6.88385 10.9473 6.53346 10.9473C6.92962 10.9473 7.65615 11.1335 8.13154 11.6196C8.43615 11.93 8.57692 12.3677 8.57692 12.8531C8.57692 13.9254 7.67192 14.5385 6.57231 14.5385C5.64269 14.5385 5.07231 13.8627 4.88462 13.5446" stroke="black" stroke-linecap="round" stroke-linejoin="round"/>
</svg>
