<svg width="18" height="20" viewBox="0 0 18 20" fill="none" xmlns="http://www.w3.org/2000/svg">
<path d="M13.0034 7.75V17.393C13.0021 17.8189 12.826 18.2269 12.5137 18.528C12.2014 18.8292 11.7783 18.9989 11.3366 19.0002H4.00273C3.56107 18.9989 3.13788 18.8292 2.82559 18.528C2.51329 18.2269 2.33726 17.8189 2.33594 17.393V8.7143" stroke="#141414" stroke-linecap="round" stroke-linejoin="round"/>
<path d="M13 8.71484H14.6668C15.2851 8.71654 15.8776 8.95414 16.3149 9.37574C16.7521 9.79733 16.9985 10.3687 17.0003 10.9649V14.1792C16.9985 14.7754 16.7521 15.3468 16.3149 15.7684C15.8776 16.1899 15.2851 16.4275 14.6668 16.4292H13" stroke="#141414" stroke-miterlimit="10" stroke-linecap="round"/>
<path d="M7.66715 10.0006V16.4293M10.334 10.0006V16.4293M5.00029 10.0006V16.4293M11.6674 4.21484C12.1979 4.21484 12.7067 4.41804 13.0818 4.77972C13.4569 5.1414 13.6676 5.63195 13.6676 6.14344C13.6676 6.65494 13.4569 7.14549 13.0818 7.50717C12.7067 7.86885 12.1979 8.07204 11.6674 8.07204C11.1153 8.07204 10.4461 7.77833 10.084 7.42918H5.00029C4.66693 8.31312 3.87521 8.71491 3.00015 8.71491C2.46967 8.71491 1.96093 8.51172 1.58583 8.15004C1.21073 7.78835 1 7.29781 1 6.78631C1 6.27481 1.21073 5.78427 1.58583 5.42258C1.96093 5.0609 2.46967 4.85771 3.00015 4.85771C3.39018 4.87352 3.76686 4.99924 4.08356 5.21932" stroke="#141414" stroke-linecap="round" stroke-linejoin="round"/>
<path d="M2.16164 5.03519C1.9982 4.87906 1.87005 4.69198 1.78527 4.48575C1.70049 4.27953 1.6609 4.0586 1.669 3.8369C1.67711 3.61519 1.73272 3.39751 1.83235 3.19754C1.93198 2.99758 2.07346 2.81967 2.24789 2.67501C2.42232 2.53036 2.62592 2.42209 2.84588 2.35702C3.06583 2.29195 3.29737 2.2715 3.52593 2.29694C3.75448 2.32238 3.9751 2.39317 4.17388 2.50486C4.37267 2.61654 4.54533 2.7667 4.68099 2.94588C4.68099 2.94588 5.00101 3.37057 5.00101 3.57147M4.41055 2.31426C5.13519 1.51791 6.14984 1 7.33451 1C9.51717 1 11.2515 2.72128 11.2515 4.82546C11.2516 5.0653 11.2283 5.30462 11.1819 5.54025" stroke="#141414" stroke-miterlimit="10" stroke-linecap="round"/>
</svg>
