<svg width="18" height="22" viewBox="0 0 18 22" fill="none" xmlns="http://www.w3.org/2000/svg">
<path d="M1 21V1.96827C1.00022 1.90099 1.01713 1.83494 1.04904 1.77673C1.08094 1.71852 1.12673 1.67018 1.18182 1.63654C1.53682 1.41635 2.49636 1 4.63636 1C7.54545 1 11.2273 3.30769 13.3636 3.30769C14.5698 3.30438 15.7632 3.04663 16.8741 2.54952C16.8879 2.54342 16.903 2.54103 16.9179 2.54256C16.9328 2.54409 16.9471 2.5495 16.9596 2.5583C16.972 2.5671 16.9823 2.57903 16.9893 2.59301C16.9964 2.607 17 2.62261 17 2.63846V13.1846C16.9999 13.2218 16.9896 13.2583 16.9703 13.2894C16.951 13.3206 16.9236 13.3451 16.8914 13.3601C16.5168 13.5337 15.1968 14.0769 13.3636 14.0769C11.1818 14.0769 7.54545 12.5385 4.63636 12.5385C1.72727 12.5385 1 13.3077 1 13.3077" stroke="#141414" stroke-miterlimit="10" stroke-linecap="round"/>
</svg>
