<svg width="21" height="21" viewBox="0 0 21 21" fill="none" xmlns="http://www.w3.org/2000/svg">
<path d="M2.08145 1.66797L17.7001 17.2866C17.9965 17.583 18.1629 17.985 18.1629 18.4041C18.1629 18.8232 17.9965 19.2252 17.7001 19.5215C17.4037 19.8178 17.0017 19.9842 16.5826 19.9842C16.1635 19.9842 15.7616 19.8178 15.4652 19.5215L11.6498 15.6405C11.4002 15.387 11.2601 15.0455 11.2598 14.6897V14.4552C11.2599 14.2756 11.2242 14.0977 11.1549 13.9319C11.0857 13.7661 10.9841 13.6157 10.8563 13.4895L10.3637 13.0347C10.1964 12.8804 9.99308 12.7706 9.77233 12.7155C9.55157 12.6604 9.32049 12.6617 9.10036 12.7193C8.75324 12.8099 8.38846 12.8081 8.04223 12.7142C7.69599 12.6203 7.38033 12.4374 7.12657 12.1838L3.50498 8.56183C1.35653 6.41338 0.565916 3.16909 2.08145 1.66797Z" stroke="#141414" stroke-linejoin="round"/>
<path d="M16.6001 1L13.3252 4.27482C13.0732 4.52676 12.8733 4.82588 12.737 5.15509C12.6006 5.4843 12.5304 5.83716 12.5304 6.1935V6.82345C12.5304 6.91258 12.5128 7.00084 12.4787 7.08318C12.4446 7.16552 12.3946 7.24033 12.3316 7.30333L11.8521 7.78279M13.2087 9.13935L13.6881 8.65989C13.7511 8.59685 13.8259 8.54684 13.9083 8.51272C13.9906 8.47861 14.0789 8.46106 14.168 8.46107H14.798C15.1543 8.46107 15.5072 8.39088 15.8364 8.25449C16.1656 8.11811 16.4647 7.91821 16.7166 7.66621L19.9915 4.3914M18.2958 2.6957L14.9044 6.08709M8.12157 15.2439L3.89419 19.495C3.5762 19.8129 3.14497 19.9915 2.69534 19.9915C2.2457 19.9915 1.81447 19.8129 1.49648 19.495C1.17858 19.177 1 18.7458 1 18.2961C1 17.8465 1.17858 17.4153 1.49648 17.0973L5.06931 13.5482" stroke="#141414" stroke-linecap="round" stroke-linejoin="round"/>
</svg>
