<svg width="21" height="25" viewBox="0 0 21 25" fill="none" xmlns="http://www.w3.org/2000/svg">
<path d="M10.5 5C11.6046 5 12.5 4.10457 12.5 3C12.5 1.89543 11.6046 1 10.5 1C9.39543 1 8.5 1.89543 8.5 3C8.5 4.10457 9.39543 5 10.5 5Z" stroke="#141414" stroke-linejoin="round"/>
<path d="M7.93995 12.563C8.08342 11.6307 8.14774 10.7295 7.91522 10.1064C7.71732 9.57058 7.28691 9.27067 6.76744 9.06625L2.1897 7.52075C1.59602 7.31427 1.04143 6.96842 1.00234 6.28497C0.952871 5.40743 1.69497 4.83961 2.43706 5.04609C2.43706 5.04609 6.79069 6.65354 10.5012 6.65354C14.2117 6.65354 18.5158 5.05331 18.5158 5.05331C19.4063 4.79521 20 5.51789 20 6.28135C20 7.01488 19.4558 7.27298 18.8126 7.51714L14.459 9.16433C14.0632 9.31919 13.4201 9.62891 13.1727 10.1028C12.8759 10.6577 12.9254 11.6271 13.0688 12.5594L13.3607 14.0889L15.2115 22.5494C15.35 23.2282 14.8998 23.8626 14.2517 23.9813C13.6036 24.1001 13.0738 23.6386 12.8818 22.982L11.0236 16.9977C10.9342 16.7107 10.8551 16.4204 10.7861 16.1268L10.5012 14.9148L10.239 16.0324C10.1559 16.3886 10.0602 16.7409 9.95202 17.0896L8.12647 22.9768C7.92857 23.6401 7.40911 24.0996 6.76101 23.9813C6.11291 23.8631 5.65281 23.1766 5.79826 22.5494L7.64806 14.0925L7.93995 12.563Z" stroke="#141414" stroke-linejoin="round"/>
</svg>
