<svg width="21" height="19" viewBox="0 0 21 19" fill="none" xmlns="http://www.w3.org/2000/svg">
<path d="M17.8077 5H3.19231C1.98153 5 1 5.97005 1 7.16667V15.8333C1 17.03 1.98153 18 3.19231 18H17.8077C19.0185 18 20 17.03 20 15.8333V7.16667C20 5.97005 19.0185 5 17.8077 5Z" stroke="#141414" stroke-linejoin="round"/>
<path d="M17 4.33304V3.0829C16.9999 2.77628 16.9283 2.47347 16.7903 2.19606C16.6523 1.91865 16.4513 1.67349 16.2016 1.47806C15.952 1.28263 15.6598 1.14176 15.346 1.06549C15.0322 0.98922 14.7044 0.979435 14.3862 1.03683L2.78952 2.90996C2.28592 3.00078 1.8316 3.25507 1.50491 3.62897C1.17822 4.00287 0.999653 4.47294 1 4.95811V7" stroke="#141414" stroke-linejoin="round"/>
<path d="M15.5 13C15.2033 13 14.9133 12.912 14.6666 12.7472C14.42 12.5824 14.2277 12.3481 14.1142 12.074C14.0006 11.7999 13.9709 11.4983 14.0288 11.2074C14.0867 10.9164 14.2296 10.6491 14.4393 10.4393C14.6491 10.2296 14.9164 10.0867 15.2074 10.0288C15.4983 9.97094 15.7999 10.0006 16.074 10.1142C16.3481 10.2277 16.5824 10.42 16.7472 10.6666C16.912 10.9133 17 11.2033 17 11.5C17 11.8978 16.842 12.2794 16.5607 12.5607C16.2794 12.842 15.8978 13 15.5 13Z" fill="#141414"/>
</svg>
