<svg width="18" height="18" viewBox="0 0 18 18" fill="none" xmlns="http://www.w3.org/2000/svg">
<path d="M9 1C4.58192 1 1 4.58192 1 9C1 13.4181 4.58192 17 9 17C13.4181 17 17 13.4181 17 9C17 4.58192 13.4181 1 9 1Z" stroke="#141414" stroke-miterlimit="10"/>
<path d="M9.08239 1C6.83337 1 4.71875 4.58192 4.71875 9C4.71875 13.4181 6.83337 17 9.08239 17C11.3314 17 13.446 13.4181 13.446 9C13.446 4.58192 11.3314 1 9.08239 1Z" stroke="#141414" stroke-miterlimit="10"/>
<path d="M3.75 3.58594C5.22073 4.64596 7.07223 5.27808 9.08333 5.27808C11.0944 5.27808 12.9459 4.64596 14.4167 3.58594M14.4167 14.4142C12.9459 13.3542 11.0944 12.7221 9.08333 12.7221C7.07223 12.7221 5.22073 13.3542 3.75 14.4142" stroke="#141414" stroke-linecap="round" stroke-linejoin="round"/>
<path d="M9 1V17M17 9H1" stroke="#141414" stroke-miterlimit="10"/>
</svg>
