<svg width="18" height="25" viewBox="0 0 18 25" fill="none" xmlns="http://www.w3.org/2000/svg">
<path d="M8.95478 1C4.56308 1 1 4.39128 1 8.56809C1 13.3741 6.30319 20.9903 8.25045 23.6209C8.33128 23.7319 8.43722 23.8223 8.55963 23.8846C8.68203 23.9469 8.81743 23.9793 8.95478 23.9793C9.09213 23.9793 9.22753 23.9469 9.34994 23.8846C9.47234 23.8223 9.57828 23.7319 9.65911 23.6209C11.6064 20.9914 16.9096 13.378 16.9096 8.56809C16.9096 4.39128 13.3465 1 8.95478 1Z" stroke="#141414" stroke-linecap="round" stroke-linejoin="round"/>
<path d="M8.95628 11.604C10.4207 11.604 11.6079 10.4168 11.6079 8.95238C11.6079 7.48794 10.4207 6.30078 8.95628 6.30078C7.49185 6.30078 6.30469 7.48794 6.30469 8.95238C6.30469 10.4168 7.49185 11.604 8.95628 11.604Z" stroke="#141414" stroke-linecap="round" stroke-linejoin="round"/>
</svg>
