<svg width="23" height="17" viewBox="0 0 23 17" fill="none" xmlns="http://www.w3.org/2000/svg">
<path d="M18.3458 4.375C18.2085 6.28141 16.7943 7.75 15.2521 7.75C13.7099 7.75 12.2933 6.28188 12.1583 4.375C12.0177 2.39172 13.3944 1 15.2521 1C17.1097 1 18.4864 2.42781 18.3458 4.375Z" stroke="#141414" stroke-linecap="round" stroke-linejoin="round"/>
<path d="M15.2498 10.75C12.195 10.75 9.25731 12.2673 8.52138 15.2223C8.42388 15.6133 8.66903 16 9.07075 16H21.4293C21.8311 16 22.0748 15.6133 21.9787 15.2223C21.2428 12.22 18.3051 10.75 15.2498 10.75Z" stroke="#141414" stroke-miterlimit="10"/>
<path d="M8.87496 5.21594C8.76527 6.73844 7.62246 7.9375 6.39058 7.9375C5.15871 7.9375 4.01402 6.73891 3.90621 5.21594C3.79418 3.63203 4.90652 2.5 6.39058 2.5C7.87465 2.5 8.98699 3.66109 8.87496 5.21594Z" stroke="#141414" stroke-linecap="round" stroke-linejoin="round"/>
<path d="M9.15671 10.8434C8.31061 10.4557 7.37874 10.3066 6.39108 10.3066C3.95358 10.3066 1.60515 11.5184 1.01686 13.8785C0.939521 14.1907 1.13546 14.4996 1.45608 14.4996H6.71921" stroke="#141414" stroke-miterlimit="10" stroke-linecap="round"/>
</svg>
