<svg width="18" height="18" viewBox="0 0 18 18" fill="none" xmlns="http://www.w3.org/2000/svg">
<path d="M5 5.92308V4.69231C5 3.71305 5.42143 2.77389 6.17157 2.08145C6.92172 1.38901 7.93913 1 9 1C10.0609 1 11.0783 1.38901 11.8284 2.08145C12.5786 2.77389 13 3.71305 13 4.69231V5.92308M1.66667 5.92308C1.48986 5.92308 1.32029 5.98791 1.19526 6.10332C1.07024 6.21873 1 6.37525 1 6.53846V14.8462C1 16.0092 2.07333 17 3.33333 17H14.6667C15.9267 17 17 16.0573 17 14.8942V6.53846C17 6.37525 16.9298 6.21873 16.8047 6.10332C16.6797 5.98791 16.5101 5.92308 16.3333 5.92308H1.66667Z" stroke="#141414" stroke-linecap="round" stroke-linejoin="round"/>
</svg>
