<svg width="23" height="16" viewBox="0 0 23 16" fill="none" xmlns="http://www.w3.org/2000/svg">
<path d="M16.2812 2.19727C16.9188 2.22547 17.837 2.52692 18.1278 3.38957C18.4045 4.21025 19.1995 5.27579 20.0121 5.57536C20.9496 5.92099 21.7322 6.82342 21.671 8.78886" stroke="#141414" stroke-width="0.8"/>
<path d="M14.6367 1C14.504 1.62418 14.5654 2.58866 15.3274 3.08667C16.0524 3.56046 16.8843 4.59744 16.9703 5.45922C17.0696 6.45354 17.7467 7.43754 19.6646 7.87159C20.0345 7.97801 20.4746 8.19083 20.4746 8.79007" stroke="#141414" stroke-width="0.8"/>
<path d="M19 9H1V15H19V9Z" stroke="#141414" stroke-width="0.8"/>
<path d="M20.4766 8.9043L20.4766 15.418" stroke="#141414" stroke-width="0.8"/>
<path d="M21.6758 8.9043L21.6758 15.418" stroke="#141414" stroke-width="0.8"/>
<path d="M4 9L4 15" stroke="#141414" stroke-width="0.8"/>
</svg>
