<svg width="12" height="12" viewBox="0 0 12 12" fill="none" xmlns="http://www.w3.org/2000/svg">
<path fill-rule="evenodd" clip-rule="evenodd" d="M5.78078 5.87178C5.78416 5.81075 5.81383 5.84851 5.83339 5.81884C5.90453 5.70656 5.91094 5.67554 5.98849 5.61113C6.0067 5.59798 5.97703 5.52515 5.98849 5.50728C5.99861 5.49076 6.07785 5.46749 6.09437 5.45434C6.10921 5.44119 6.08257 5.37004 6.09437 5.35049C6.0974 5.34374 6.13888 5.35521 6.14528 5.35049C6.16012 5.33734 6.13719 5.2645 6.14528 5.24663C6.14866 5.23989 6.19148 5.25135 6.19822 5.24663C6.21306 5.23315 6.18676 5.16065 6.19822 5.14244C6.22621 5.09321 6.32366 5.03859 6.35333 4.98565C6.36817 4.96104 6.40627 4.83729 6.40627 4.8292C6.4093 4.7712 6.44403 4.80424 6.45718 4.77794C6.49529 4.70376 6.47708 4.64273 6.51012 4.56855C6.51349 4.5618 6.55632 4.57327 6.56306 4.56855C6.5779 4.55675 6.55295 4.48425 6.56306 4.46436C6.56441 4.45795 6.60926 4.46942 6.61398 4.46436C6.62881 4.45289 6.60588 4.3804 6.61398 4.3605C6.61735 4.3541 6.66017 4.36556 6.66691 4.3605C6.68175 4.34904 6.6568 4.27486 6.66691 4.25665C6.67029 4.24991 6.71311 4.26171 6.71817 4.25665C6.733 4.24519 6.70974 4.171 6.71817 4.1528C6.7792 4.01253 6.86147 3.7883 6.92756 3.73536C6.94071 3.72558 6.9225 3.64971 6.92756 3.6315C6.96229 3.50101 6.99702 3.40862 7.03141 3.267C7.17 2.68771 7.09582 1.97861 6.77077 1.49508C6.73604 1.49508 6.70164 1.49508 6.66691 1.49508C6.33175 1.72605 5.86171 2.07909 5.67693 2.38087C5.59263 2.51777 5.49687 2.63174 5.41595 2.74571C5.40954 2.7538 5.37144 2.73897 5.36335 2.74571C5.34682 2.76055 5.3765 2.83136 5.36335 2.84956C5.33839 2.88564 5.28883 2.90891 5.25915 2.9551C5.17519 3.08357 5.10911 3.24036 5.05145 3.3196C5.02649 3.35265 4.97052 3.38569 4.94726 3.42346C4.91455 3.47471 4.9277 3.51922 4.89465 3.57856C4.87982 3.60824 4.81036 3.65106 4.7908 3.68242C4.75944 3.73536 4.77091 3.77987 4.73955 3.83921C4.72303 3.86888 4.65356 3.91204 4.63569 3.94475C4.60434 3.996 4.61411 4.04051 4.58276 4.09986C4.56623 4.12953 4.49677 4.17269 4.4789 4.20371C4.43102 4.28464 4.41618 4.38714 4.37471 4.46436C4.35819 4.49437 4.28906 4.53719 4.26917 4.56855C4.23781 4.62115 4.24928 4.66734 4.21792 4.725C4.2014 4.75501 4.13227 4.79446 4.11406 4.8292C4.08271 4.88517 4.08776 4.94114 4.06113 4.98565C4.01493 5.06489 3.95087 5.16234 3.90467 5.24663C3.81869 5.4014 3.74451 5.51537 3.69663 5.61113C3.66695 5.66879 3.66864 5.72173 3.64369 5.76793C3.62885 5.79591 3.55804 5.83874 3.53983 5.87178C3.46902 6.00193 3.49027 6.08455 3.43598 6.18334C3.42114 6.21301 3.35 6.25449 3.33179 6.28753C3.29065 6.36644 3.27076 6.46557 3.22793 6.54818C3.21141 6.57954 3.19017 6.54481 3.17533 6.60078C3.13892 6.74442 3.11902 6.71812 3.07114 6.80883C3.02663 6.89279 3.0118 6.98518 2.96729 7.06947C2.95245 7.09746 2.8813 7.14028 2.86343 7.17333C2.83208 7.23099 2.81387 7.31832 2.8105 7.38103C2.80712 7.44038 2.77408 7.40599 2.75924 7.43397C2.72957 7.48657 2.73969 7.53142 2.70664 7.59076C2.69012 7.62044 2.62066 7.65989 2.60245 7.69462C2.53164 7.82646 2.54985 7.90401 2.4986 8.00652C2.4723 8.05912 2.41295 8.07396 2.39474 8.11037C2.33843 8.21928 2.33843 8.32988 2.2892 8.42362C2.26762 8.46509 2.26425 8.49308 2.23795 8.52781C2.213 8.56052 2.15534 8.59356 2.1341 8.63166C2.08756 8.71562 2.0761 8.85252 2.02991 8.94491C2.01507 8.97324 1.94257 9.01606 1.92605 9.0491C1.8549 9.18094 1.8748 9.26187 1.82051 9.36066C1.80568 9.39034 1.73284 9.43013 1.71632 9.46486C1.68193 9.53904 1.68328 9.5967 1.6654 9.67425C1.6536 9.71707 1.61921 9.70898 1.61247 9.7255C1.57302 9.82261 1.55481 9.95142 1.50861 10.0387C1.49209 10.0667 1.42263 10.1082 1.40442 10.1426C1.37171 10.2019 1.38655 10.2515 1.35182 10.2994C1.29888 10.3736 1.21964 10.4464 1.14378 10.5074C1.64888 10.466 2.28583 10.438 2.65539 10.4032C2.91604 10.3786 3.12071 10.3702 3.28087 10.3506C3.49364 10.3257 3.83521 10.3324 3.90467 10.2468C3.91445 10.235 3.992 10.2498 4.00852 10.2468C4.18656 10.2104 4.21488 10.2036 4.37471 10.1939C4.41787 10.1922 4.41787 10.1443 4.42596 10.1426C4.54803 10.118 4.62389 10.1197 4.73955 10.09C5.62399 9.85903 6.47202 9.53904 7.18821 9.20556C7.34331 9.13306 7.59924 9.01606 7.6569 8.94491C7.66836 8.92839 7.7412 8.95334 7.76075 8.94491C7.7675 8.94188 7.75603 8.89872 7.76075 8.89231C7.77424 8.87747 7.84505 8.90209 7.86494 8.89231C7.87135 8.88894 7.85989 8.8478 7.86494 8.83937C7.87809 8.82454 7.95059 8.85117 7.9688 8.83937C7.99847 8.82285 8.03961 8.75541 8.07265 8.73552C8.18325 8.6728 8.32015 8.62829 8.38624 8.58041C8.41928 8.5558 8.45401 8.49949 8.49009 8.47656C8.78715 8.282 9.09096 8.11206 9.27237 7.90233C9.31047 7.85613 9.36476 7.7425 9.42747 7.64168C9.45714 7.59549 9.5084 7.57593 9.53133 7.53783C9.5728 7.47342 9.54953 7.39756 9.58426 7.33012C9.5991 7.30213 9.6716 7.25897 9.68812 7.22593C9.72622 7.15175 9.71307 7.0924 9.74106 7.01822C9.87627 6.65372 9.92752 6.07612 9.6372 5.81884C9.42241 5.63069 8.88966 5.64418 8.64688 5.71499C8.36803 5.7976 8.09086 5.89471 7.91754 5.97563C7.88787 5.98878 7.83696 6.02689 7.81201 6.02689C7.75435 6.02992 7.78908 6.06465 7.76075 6.07949C7.66027 6.13715 7.60261 6.13715 7.50011 6.18334C7.48527 6.19177 7.46538 6.27573 7.44885 6.28753C7.4094 6.31721 7.32848 6.3054 7.2924 6.34013C7.27588 6.35328 7.30049 6.42443 7.2924 6.44399C7.28734 6.4541 7.19832 6.48715 7.18821 6.49693C7.06446 6.59606 6.96229 6.68339 6.87462 6.70463C6.61735 6.76904 6.1436 6.67328 6.09437 6.65203C5.98377 6.60921 5.8698 6.60247 5.78078 6.54818C5.66681 6.4804 5.52992 6.37486 5.52014 6.23628C5.52486 6.0778 5.77573 5.96889 5.78078 5.87178ZM8.33363 4.8818C8.42602 4.98262 8.599 4.93136 8.69814 4.93305C9.15536 4.94114 9.65373 4.99914 10.053 5.14244C10.2492 5.2119 10.4771 5.32891 10.6784 5.45434C10.7081 5.47255 10.67 5.50391 10.731 5.50728C10.8022 5.51031 11.0844 5.8239 11.1471 5.9227C11.1832 5.98069 11.2146 6.02183 11.2527 6.07949C11.284 6.13074 11.2857 6.1621 11.3036 6.23628C11.3184 6.29394 11.3349 6.34013 11.3565 6.49693C11.3697 6.60415 11.4455 6.63383 11.4078 6.80883C11.3977 6.85165 11.3633 6.86143 11.3565 6.91268C11.3336 7.08262 11.3434 7.25425 11.3036 7.43397C11.3022 7.44375 11.2544 7.44206 11.2527 7.48522C11.2459 7.58908 11.2409 7.6319 11.1997 7.69462C11.1404 7.78195 11.076 8.01124 10.992 8.16297C10.9721 8.19602 10.9027 8.23884 10.8861 8.26716C10.8548 8.32819 10.8696 8.3727 10.8352 8.42362C10.8069 8.46341 10.7607 8.47824 10.731 8.52781C10.6666 8.62998 10.5726 8.70922 10.4175 8.83937C10.3416 8.90378 10.2806 8.99616 10.2097 9.0491C10.1899 9.06225 10.119 9.03089 10.1059 9.0491C10.0415 9.12801 10.0101 9.13306 9.89785 9.20556C9.84019 9.24197 9.79872 9.27165 9.74106 9.30975C9.72285 9.32121 9.69318 9.35898 9.68812 9.36066C9.61731 9.3954 9.55122 9.3755 9.48041 9.4136C9.45243 9.42844 9.48682 9.46317 9.42747 9.46486C9.42107 9.4662 9.29563 9.50431 9.27237 9.51746C9.24944 9.53061 9.23764 9.61322 9.21976 9.62131C9.14356 9.65604 9.09096 9.6412 9.01172 9.67425C8.97362 9.68909 8.97699 9.71876 8.95878 9.7255C8.86471 9.76832 8.75748 9.7781 8.64688 9.83104C8.62058 9.84251 8.65194 9.87892 8.59428 9.88196C8.53156 9.88533 8.46379 9.9531 8.38624 9.98615C8.30868 10.0189 8.25743 10.0057 8.17684 10.0387C8.15526 10.0472 8.17988 10.0883 8.12559 10.09C8.11244 10.0917 8.0858 10.0849 8.07265 10.09C8.0332 10.1065 7.87809 10.1493 7.76075 10.1939C7.73951 10.2036 7.76244 10.2434 7.70815 10.2468C7.695 10.2468 7.66836 10.2417 7.6569 10.2468C7.58272 10.2765 7.36658 10.3422 7.18821 10.4032C7.16865 10.4083 7.18652 10.4528 7.13561 10.4545C7.11571 10.4562 6.99028 10.4414 6.97881 10.4545C6.90126 10.5519 6.56778 10.6062 6.35333 10.6639C5.80068 10.8092 5.17857 10.9529 4.52982 11.0287C4.34841 11.0483 4.19162 11.0614 4.00852 11.0796C3.38978 11.1457 2.32191 11.0928 1.6654 11.1326C1.18828 11.1606 0.566172 11.2149 0.310584 10.8207C0.290689 10.5401 0.567858 10.5567 0.779275 10.5074C0.683514 10.3769 0.439389 10.3952 0.414437 10.1939C0.30384 9.8506 0.485584 9.2585 0.622482 8.89231C0.628889 8.8741 0.609332 8.79992 0.622482 8.78846C0.665305 8.75373 0.658562 8.74867 0.675084 8.68427C0.68992 8.62323 0.783996 8.44183 0.831876 8.31977C0.83862 8.30156 0.81704 8.22569 0.831876 8.21591C0.919545 8.14342 1.02509 7.81162 1.09117 7.64168C1.39633 6.86648 1.65529 6.12905 1.9773 5.40309C1.99517 5.36364 2.00192 5.29586 2.02991 5.24663C2.04643 5.21662 2.12229 5.16739 2.1341 5.14244C2.14556 5.11446 2.12567 5.06826 2.1341 5.0369C2.1341 5.04027 2.18029 4.88517 2.1867 4.8818C2.19176 4.87708 2.23458 4.88854 2.23795 4.8818C2.28246 4.78637 2.2973 4.65757 2.3418 4.56855C2.35833 4.53382 2.42947 4.49437 2.44566 4.46436C2.45746 4.44649 2.42947 4.37365 2.44566 4.3605C2.4524 4.35578 2.49522 4.36725 2.4986 4.3605C2.54985 4.26171 2.55457 4.13459 2.60245 4.04894C2.62403 4.01084 2.68169 3.97611 2.70664 3.94475C2.73294 3.90867 2.73631 3.88068 2.75924 3.83921C2.78251 3.79639 2.78082 3.73873 2.8105 3.68242C2.8287 3.64971 2.89783 3.60824 2.91435 3.57856C2.95886 3.49933 2.97707 3.39379 3.01854 3.3196C3.03978 3.28319 3.10419 3.24542 3.12408 3.21575C3.14869 3.17293 3.14397 3.10852 3.17533 3.05896C3.19995 3.02119 3.25592 2.98815 3.28087 2.9551C3.33685 2.87586 3.40293 2.71739 3.48858 2.5906C3.51825 2.54441 3.56613 2.52114 3.59277 2.48506C3.60592 2.46686 3.57456 2.39571 3.59277 2.38087C3.60086 2.37447 3.63897 2.3893 3.64369 2.38087C3.69494 2.30669 3.74619 2.19609 3.80048 2.12023C3.82712 2.08583 3.8814 2.04942 3.90467 2.01637C3.96402 1.93713 4.07124 1.82013 4.16532 1.70447C4.22803 1.62861 4.26748 1.54937 4.32211 1.49508C4.39292 1.42596 4.53656 1.37133 4.63569 1.28737C4.74123 1.19802 4.79215 1.09922 4.89465 1.02673C4.92938 1.00346 4.96074 0.998402 4.99851 0.975473C5.05617 0.939057 5.09764 0.907698 5.1553 0.869933C5.17857 0.856783 5.19644 0.825424 5.20824 0.818681C5.27736 0.780916 5.34345 0.803844 5.41595 0.767428C5.44258 0.752592 5.49856 0.670318 5.52014 0.661888C5.6041 0.632216 5.66681 0.627495 5.72785 0.610973C5.87958 0.569499 5.97231 0.591079 6.19822 0.558034C6.54654 0.506782 7.14033 0.563092 7.55136 0.714827C7.6569 0.752592 7.77896 0.772486 7.86494 0.818681C7.89462 0.835203 7.89124 0.904664 7.91754 0.922535C7.93575 0.936022 8.0069 0.904664 8.02174 0.922535C8.02814 0.930964 8.01331 0.968729 8.02174 0.975473C8.09929 1.02673 8.18156 1.0365 8.22944 1.07933C8.27564 1.11912 8.29385 1.18655 8.33363 1.23612C8.34679 1.25096 8.43075 1.27254 8.43749 1.28737C8.44895 1.31367 8.42097 1.36965 8.43749 1.39123C8.47053 1.43405 8.56629 1.45226 8.59428 1.49508C8.6371 1.55948 8.61249 1.63366 8.64688 1.70447C8.65868 1.72943 8.69476 1.69807 8.69814 1.75573C8.70151 1.8117 8.76591 1.94219 8.80199 2.06931C8.8202 2.12697 8.83335 2.188 8.85493 2.27702C8.87145 2.34783 8.89944 2.37447 8.90618 2.43381C9.01003 3.31151 8.65363 4.14133 8.33363 4.8818Z" fill="#141414"/>
</svg>
