<svg width="8" height="10" viewBox="0 0 8 10" fill="none" xmlns="http://www.w3.org/2000/svg">
<path fill-rule="evenodd" clip-rule="evenodd" d="M3.61735 1.95632C3.58917 1.98691 3.60459 2.03171 3.57978 2.06809C3.56797 2.08471 3.51835 2.08712 3.50534 2.1047C3.48294 2.13409 3.48535 2.18949 3.46777 2.21671C3.46415 2.22249 3.43597 2.21189 3.43115 2.21671C3.41815 2.2261 3.44055 2.27789 3.43115 2.2909C3.41116 2.31932 3.37696 2.32992 3.35576 2.36509C3.33456 2.40291 3.34155 2.4347 3.31914 2.4771C3.30734 2.4983 3.25676 2.52792 3.24495 2.55129C3.18835 2.65872 3.13776 2.82372 3.09513 2.88611C3.06213 2.93549 3.07995 2.96512 3.05875 3.03449C3.05394 3.04871 2.99034 3.0911 2.98432 3.10989C2.97613 3.13109 2.98914 3.16192 2.98432 3.18432C2.97734 3.20889 2.94915 3.21612 2.94675 3.22069C2.91374 3.32909 2.93735 3.3551 2.90893 3.44471C2.90555 3.45892 2.84172 3.49891 2.83594 3.5189C2.81233 3.5849 2.81812 3.67451 2.79812 3.74172C2.78054 3.80049 2.73911 3.8701 2.72393 3.92792C2.69214 4.04089 2.68973 4.15531 2.64974 4.18831C2.64011 4.1965 2.65191 4.25069 2.64974 4.2625C2.63673 4.30971 2.62011 4.34271 2.61192 4.37451C2.58254 4.48989 2.57073 4.60792 2.53773 4.6349C2.5293 4.64212 2.5399 4.69753 2.53773 4.70909C2.50931 4.85289 2.48932 4.93792 2.4633 5.08173C2.2889 6.03513 2.20532 7.0579 2.12751 8.05852C2.10728 8.3295 2.10848 8.59833 2.0909 8.83993C2.08608 8.9081 1.99768 9.00252 2.0909 9.0637C2.12968 9.01432 2.1887 9.0083 2.23928 8.98951C2.26891 8.97771 2.33732 8.9529 2.35129 8.9517C2.4197 8.94832 2.44692 8.87991 2.49991 8.87751C2.56351 8.87389 2.66251 8.79392 2.72393 8.7655C2.74754 8.7549 2.82534 8.72912 2.83594 8.72792C2.90315 8.72431 2.93012 8.6571 2.98432 8.65373C3.05273 8.65012 3.07875 8.58291 3.13294 8.5793C3.19316 8.57592 3.29915 8.49812 3.35576 8.46753C3.7932 8.23869 4.29639 7.9571 4.69601 7.72369C4.70203 7.72032 4.69264 7.6919 4.69601 7.68612C4.70541 7.67552 4.75744 7.6931 4.77044 7.68612C4.77502 7.68371 4.76683 7.65432 4.77044 7.6495C4.77984 7.6377 4.83163 7.65769 4.84463 7.6495C4.88582 7.62469 4.91882 7.5611 4.95664 7.53749C4.96363 7.53412 4.98603 7.53749 4.99422 7.53749C5.03686 7.53533 5.01204 7.51172 5.03083 7.49992C5.06624 7.48113 5.10623 7.48691 5.14284 7.4633C5.18283 7.43753 5.21824 7.3761 5.25485 7.35129C5.30423 7.31829 5.35963 7.30553 5.40323 7.2771C5.44466 7.25012 5.44804 7.23953 5.47766 7.20291C5.48826 7.19111 5.53885 7.21231 5.55186 7.20291C5.56848 7.19111 5.57426 7.14269 5.58967 7.12872C5.61906 7.1003 5.66507 7.11571 5.70168 7.0909C5.74745 7.0579 5.76648 7.01069 5.81249 6.97889C5.85488 6.95192 5.9139 6.94011 5.96207 6.9047C5.99507 6.8811 6.03747 6.81991 6.07288 6.79269C6.16851 6.72212 6.24029 6.67731 6.2969 6.6077C6.30749 6.59469 6.35808 6.61709 6.37109 6.6077C6.41589 6.57229 6.43709 6.50051 6.4831 6.45932C6.57029 6.3779 6.6811 6.31551 6.74373 6.2353C6.76492 6.20832 6.76492 6.1493 6.7801 6.12329C6.79431 6.10089 6.84032 6.07391 6.85453 6.0491C6.87814 6.01273 6.87332 5.96913 6.89211 5.93709C6.89813 5.9277 6.91812 5.9171 6.92993 5.90072C6.97955 5.82532 6.97353 5.74752 7.00412 5.64033C7.00653 5.63069 7.03375 5.6331 7.04073 5.60251C7.09854 5.37632 7.10553 5.13689 7.04073 4.89529C7.00653 4.76449 6.92415 4.65152 6.85453 4.52409C6.30749 4.4287 5.74046 4.62671 5.36686 4.78352C5.31483 4.80592 5.22643 4.8341 5.18066 4.85891C5.16043 4.86831 5.12622 4.91889 5.10502 4.9331C5.09226 4.94129 5.04264 4.96972 5.03083 4.96972C4.97784 4.97309 4.91425 5.02633 4.88221 5.04391C4.87282 5.0509 4.86222 5.07089 4.84463 5.08173C4.77863 5.12412 4.73961 5.1605 4.69601 5.1935C4.63483 5.24071 4.58063 5.2831 4.54763 5.3055C4.29639 5.46473 3.9688 5.3479 3.76598 5.23011C3.61519 5.14291 3.46536 5.04391 3.43115 4.85891C3.40996 4.75052 3.49137 4.47351 3.50534 4.41232C3.56075 4.15531 3.57255 3.97609 3.61735 3.77929C3.64698 3.64392 3.66818 3.52372 3.69179 3.40689C3.78476 2.92032 3.91677 2.40773 3.80259 1.88189C3.80018 1.87032 3.80476 1.85611 3.80259 1.84431C3.80018 1.82191 3.79777 1.80071 3.76598 1.80769C3.73659 1.89369 3.65035 1.9197 3.61735 1.95632ZM4.95664 4.00211C4.97302 4.0563 4.98964 3.99849 5.03083 4.00211C5.40444 3.94791 5.77106 3.84409 6.25908 3.8913C6.32508 3.89732 6.33929 3.92069 6.4089 3.92792C6.51489 3.93972 6.55391 3.93032 6.66833 3.96549C6.67411 3.9667 6.6811 3.99633 6.70591 4.00211C6.78371 4.0221 6.79094 4.00572 6.89211 4.03992C6.90512 4.0445 6.89211 4.07509 6.92993 4.0775C6.93932 4.0775 6.95811 4.07389 6.96654 4.0775C6.98533 4.08569 7.02772 4.14832 7.04073 4.15169C7.07253 4.16109 7.12432 4.13652 7.15274 4.15169C7.17514 4.1635 7.19754 4.20709 7.22693 4.22612C7.25174 4.2413 7.27535 4.24612 7.30136 4.2625C7.46757 4.36872 7.59114 4.4947 7.71158 4.67271C7.72676 4.69512 7.77397 4.72691 7.78577 4.74691C7.79276 4.75991 7.77397 4.8117 7.78577 4.8211C7.81877 4.84832 7.84358 4.8883 7.85996 4.9331C7.86478 4.94611 7.84936 4.99911 7.85996 5.0073C7.86358 5.0097 7.89658 5.00392 7.89778 5.0073C7.92139 5.09931 7.91199 5.25709 7.93439 5.41631C7.93656 5.42811 7.92596 5.48472 7.93439 5.4917C7.96836 5.51892 7.94258 5.53073 7.93439 5.60251C7.92717 5.67429 7.94836 5.87013 7.93439 5.97491C7.93439 5.97491 7.89898 5.9843 7.89778 6.01152C7.88598 6.22952 7.69737 6.58192 7.56175 6.79269C7.55694 6.80112 7.41554 6.92831 7.41313 6.97889C7.40855 7.0779 7.19514 7.18629 7.07855 7.2771C7.04772 7.30071 7.04194 7.32793 7.00412 7.35129C6.98051 7.36671 6.95353 7.37153 6.92993 7.38911C6.90391 7.4067 6.87934 7.44572 6.85453 7.4633C6.83213 7.47992 6.80491 7.48329 6.7801 7.49992C6.75553 7.5187 6.72952 7.55773 6.70591 7.57531C6.6823 7.5929 6.65773 7.5941 6.63172 7.61192C6.59992 7.63312 6.5833 7.66829 6.55753 7.68612C6.54332 7.69551 6.49249 7.67431 6.4831 7.68612C6.43251 7.7473 6.28871 7.8451 6.18489 7.90989C5.87728 8.10211 5.55547 8.2847 5.21703 8.46753C5.18283 8.48632 5.12405 8.53931 5.06865 8.54292C5.06865 8.54292 4.96724 8.57231 4.95664 8.5793C4.90823 8.61591 4.92701 8.63349 4.84463 8.65373C4.80224 8.66433 4.77502 8.70793 4.73383 8.72792C4.66783 8.76212 4.60303 8.77609 4.54763 8.80331C4.5062 8.82331 4.50283 8.85631 4.4732 8.87751C4.45923 8.8869 4.4084 8.8645 4.39901 8.87751C4.37299 8.9081 4.37082 8.90352 4.32361 8.91412C4.32602 8.91412 4.21522 8.94832 4.21281 8.9517C4.15981 9.01553 3.9688 9.08153 3.84017 9.1379C3.43718 9.3147 2.89375 9.53053 2.35129 9.65892C2.18171 9.6989 2.06151 9.74732 1.94107 9.73311C1.94107 9.73311 1.93168 9.6977 1.9047 9.69529C1.84689 9.69312 1.8375 9.67409 1.79269 9.65892C1.68646 9.6223 1.62649 9.60231 1.53206 9.50909C1.52387 9.50211 1.46148 9.48091 1.45787 9.47272C1.43547 9.4231 1.40704 9.33373 1.34586 9.28652C1.33285 9.27712 1.28227 9.29953 1.27167 9.28652C1.22903 9.23473 1.14304 9.15211 1.08523 9.0637C1.06186 9.02613 1.02284 8.95531 0.974425 8.83993C0.968644 8.82692 0.98406 8.77489 0.974425 8.7655C0.969848 8.76212 0.939256 8.77031 0.936847 8.7655C0.930825 8.75273 0.947446 8.6995 0.936847 8.69131C0.892044 8.65469 0.854226 8.45789 0.824839 8.31891C0.618405 7.3325 0.734027 5.9289 0.862657 4.8211C0.864824 4.8011 0.833028 4.62189 0.862657 4.59852C0.918059 4.55252 0.91565 4.26129 0.936847 4.11411C0.935643 4.1223 0.969848 4.09292 0.974425 4.0775C0.988637 4.01873 0.966235 3.95032 0.974425 3.8913C0.979242 3.8583 1.00646 3.83132 1.01104 3.77929C1.02164 3.67812 1.02645 3.66969 1.04886 3.55672C1.05127 3.54492 1.04043 3.48831 1.04886 3.48229C1.11124 3.4305 1.02645 3.30789 1.08523 3.25851C1.08884 3.2561 1.12184 3.26092 1.12305 3.25851C1.13726 3.1889 1.14304 3.10893 1.15966 3.03449C1.20206 2.85311 1.24084 2.6963 1.30925 2.51492C1.31406 2.50071 1.29865 2.44771 1.30925 2.43952C1.34008 2.41471 1.35285 2.30752 1.38368 2.21671C1.38585 2.20852 1.41427 2.20611 1.42126 2.17889C1.43908 2.1059 1.47666 2.06809 1.49545 1.99269C1.50845 1.93849 1.50725 1.8973 1.53206 1.84431C1.54386 1.8195 1.59469 1.79132 1.60649 1.77012C1.61468 1.75591 1.59565 1.70532 1.60649 1.69569C1.63708 1.67112 1.67707 1.58271 1.71826 1.50949C1.7397 1.47311 1.7727 1.46372 1.79269 1.4353C1.80209 1.42132 1.78089 1.3705 1.79269 1.3611C1.83027 1.33051 1.83509 1.2833 1.86809 1.2491C1.8823 1.23272 1.92927 1.2291 1.94107 1.21152C1.96709 1.17852 1.95167 1.1301 1.97889 1.10071C1.99527 1.08289 2.03911 1.08072 2.05308 1.0629C2.0791 1.0311 2.06368 0.980515 2.0909 0.950887C2.1227 0.916923 2.21808 0.815513 2.2771 0.765891C2.30649 0.740117 2.36093 0.754088 2.3879 0.728314C2.40332 0.714102 2.41031 0.664722 2.42572 0.654123C2.45993 0.630517 2.50473 0.635094 2.53773 0.616305C2.55652 0.605707 2.53171 0.580896 2.5741 0.579692C2.58254 0.578487 2.60494 0.583305 2.61192 0.579692C2.63673 0.565721 2.66492 0.5161 2.68611 0.504296C2.70033 0.497311 2.75091 0.5161 2.76055 0.504296C2.85834 0.385302 3.40996 0.360492 3.69179 0.430106C3.80379 0.458289 3.86859 0.430106 3.98879 0.467924C3.99457 0.468887 4.00059 0.498515 4.02661 0.504296C4.04901 0.510318 4.0796 0.496107 4.1008 0.504296C4.1232 0.513691 4.1574 0.571502 4.17499 0.579692C4.19619 0.588122 4.22798 0.573911 4.24918 0.579692C4.287 0.589086 4.26821 0.608115 4.287 0.616305C4.3542 0.646897 4.44959 0.657496 4.50981 0.690496C4.53703 0.705913 4.5604 0.748307 4.58521 0.765891C4.60881 0.782512 4.63362 0.784921 4.65964 0.802505C4.82223 0.912105 4.97302 1.03471 5.10502 1.21152C5.12622 1.2397 5.16404 1.26331 5.18066 1.28571C5.19005 1.29992 5.16765 1.35051 5.18066 1.3611C5.24666 1.4153 5.28785 1.60271 5.32904 1.77012C5.33506 1.79252 5.36686 1.80769 5.36686 1.80769C5.48585 2.59971 5.13923 3.31849 4.95664 4.00211Z" fill="#141414"/>
</svg>
