<svg width="12" height="14" viewBox="0 0 12 14" fill="none" xmlns="http://www.w3.org/2000/svg">
<path fill-rule="evenodd" clip-rule="evenodd" d="M5.04756 2.75038C5.00811 2.7932 5.02969 2.85592 4.99496 2.90684C4.97844 2.9301 4.90898 2.93347 4.89077 2.95809C4.85941 2.99923 4.86278 3.07678 4.83817 3.11488C4.83311 3.12297 4.79366 3.10814 4.78692 3.11488C4.76871 3.12803 4.80007 3.20053 4.78692 3.21873C4.75893 3.25852 4.71105 3.27336 4.68138 3.32259C4.6517 3.37553 4.66148 3.42004 4.63012 3.47938C4.6136 3.50905 4.54279 3.55053 4.52627 3.58324C4.44703 3.73362 4.37622 3.96459 4.31654 4.05193C4.27034 4.12105 4.2953 4.16252 4.26562 4.25963C4.25888 4.27953 4.16986 4.33887 4.16143 4.36517C4.14997 4.39485 4.16818 4.43801 4.16143 4.46937C4.15165 4.50376 4.1122 4.51387 4.10883 4.52028C4.06264 4.67202 4.09568 4.70843 4.05589 4.83387C4.05117 4.85376 3.96182 4.90973 3.95373 4.93772C3.92068 5.03011 3.92877 5.15554 3.90079 5.24962C3.87617 5.33189 3.81818 5.42934 3.79693 5.51026C3.75242 5.66841 3.74905 5.82857 3.69308 5.87476C3.67959 5.88623 3.69611 5.9621 3.69308 5.97862C3.67487 6.04471 3.6516 6.0909 3.64014 6.13541C3.599 6.29692 3.58248 6.46215 3.53629 6.49991C3.52449 6.51003 3.53932 6.58758 3.53629 6.60377C3.4965 6.80507 3.46851 6.92409 3.4321 7.1254C3.18797 8.45999 3.07097 9.89169 2.96206 11.2924C2.93373 11.6717 2.93542 12.048 2.9108 12.3862C2.90406 12.4816 2.78031 12.6138 2.9108 12.6995C2.96509 12.6303 3.0477 12.6219 3.11851 12.5956C3.15998 12.5791 3.25575 12.5443 3.2753 12.5427C3.37106 12.5379 3.40917 12.4422 3.48335 12.4388C3.57237 12.4337 3.71095 12.3218 3.79693 12.282C3.82998 12.2672 3.93889 12.2311 3.95373 12.2294C4.0478 12.2244 4.08557 12.1303 4.16143 12.1256C4.25719 12.1205 4.29361 12.0264 4.36948 12.0214C4.45378 12.0166 4.60214 11.9077 4.68138 11.8649C5.29371 11.5446 5.9981 11.1504 6.55749 10.8237C6.56592 10.819 6.55277 10.7792 6.55749 10.7711C6.57064 10.7562 6.64347 10.7809 6.66168 10.7711C6.66809 10.7677 6.65662 10.7266 6.66168 10.7198C6.67483 10.7033 6.74733 10.7313 6.76554 10.7198C6.8232 10.6851 6.86939 10.5961 6.92233 10.563C6.93211 10.5583 6.96347 10.563 6.97493 10.563C7.03461 10.56 6.99988 10.5269 7.02618 10.5104C7.07575 10.4841 7.13172 10.4922 7.18298 10.4592C7.23895 10.4231 7.28852 10.3371 7.33977 10.3024C7.40889 10.2562 7.48644 10.2383 7.54748 10.1985C7.60547 10.1608 7.61019 10.1459 7.65167 10.0947C7.6665 10.0782 7.73731 10.1078 7.75552 10.0947C7.77879 10.0782 7.78688 10.0104 7.80846 9.99082C7.8496 9.95103 7.914 9.97261 7.96525 9.93788C8.02932 9.89169 8.05595 9.8256 8.12036 9.78109C8.1797 9.74332 8.26231 9.7268 8.32975 9.67723C8.37595 9.64419 8.43529 9.55854 8.48486 9.52044C8.61872 9.42165 8.7192 9.35893 8.79844 9.26148C8.81328 9.24327 8.88409 9.27463 8.9023 9.26148C8.96501 9.21191 8.99469 9.11143 9.05909 9.05377C9.18115 8.9398 9.33626 8.85247 9.42393 8.74019C9.4536 8.70242 9.4536 8.61981 9.47484 8.5834C9.49474 8.55204 9.55914 8.51427 9.57903 8.47954C9.61208 8.42863 9.60533 8.3676 9.63163 8.32275C9.64006 8.3096 9.66805 8.29476 9.68457 8.27183C9.75403 8.16629 9.7456 8.05738 9.78843 7.90733C9.7918 7.89385 9.8299 7.89722 9.83968 7.8544C9.9206 7.53778 9.93038 7.20261 9.83968 6.86441C9.7918 6.68132 9.67648 6.52318 9.57903 6.3448C8.81328 6.21128 8.01954 6.48845 7.49656 6.70796C7.42373 6.73931 7.29998 6.77877 7.23591 6.8135C7.20759 6.82665 7.15971 6.89746 7.13004 6.91735C7.11217 6.92881 7.04271 6.9686 7.02618 6.9686C6.952 6.97332 6.86298 7.04784 6.81814 7.07246C6.80499 7.08223 6.79015 7.11022 6.76554 7.1254C6.67315 7.18474 6.61852 7.23566 6.55749 7.28185C6.47185 7.34794 6.39598 7.40728 6.34978 7.43864C5.9981 7.66152 5.53952 7.49799 5.25561 7.3331C5.04453 7.21104 4.8348 7.07246 4.78692 6.8135C4.75724 6.66176 4.87121 6.274 4.89077 6.18835C4.96832 5.82857 4.98485 5.5777 5.04756 5.30222C5.08904 5.11272 5.11871 4.94446 5.15175 4.78093C5.28191 4.09981 5.46669 3.38227 5.30686 2.64619C5.30349 2.63 5.3099 2.61011 5.30686 2.59359C5.30349 2.56223 5.30012 2.53256 5.25561 2.54234C5.21447 2.66271 5.09376 2.69913 5.04756 2.75038ZM6.92233 5.61412C6.94526 5.68999 6.96852 5.60906 7.02618 5.61412C7.54916 5.53825 8.06236 5.39292 8.7455 5.45901C8.83789 5.46744 8.85779 5.50015 8.95524 5.51026C9.1036 5.52679 9.15822 5.51364 9.31839 5.56287C9.32648 5.56455 9.33626 5.60603 9.37099 5.61412C9.4799 5.64211 9.49002 5.61918 9.63163 5.66706C9.64984 5.67346 9.63163 5.71629 9.68457 5.71966C9.69772 5.71966 9.72402 5.7146 9.73583 5.71966C9.76213 5.73112 9.82147 5.81879 9.83968 5.82351C9.88419 5.83666 9.95668 5.80227 9.99647 5.82351C10.0278 5.84003 10.0592 5.90107 10.1003 5.9277C10.1351 5.94895 10.1681 5.95569 10.2045 5.97862C10.4372 6.12732 10.6102 6.30367 10.7787 6.55285C10.8 6.58421 10.8661 6.62872 10.8826 6.6567C10.8924 6.67491 10.8661 6.74741 10.8826 6.76056C10.9288 6.79866 10.9635 6.85463 10.9865 6.91735C10.9932 6.93556 10.9716 7.00974 10.9865 7.0212C10.9915 7.02458 11.0377 7.01648 11.0394 7.0212C11.0724 7.15001 11.0593 7.37087 11.0906 7.59375C11.0937 7.61027 11.0788 7.68951 11.0906 7.69929C11.1382 7.73739 11.1021 7.75391 11.0906 7.8544C11.0805 7.95488 11.1102 8.22901 11.0906 8.37569C11.0906 8.37569 11.0411 8.38884 11.0394 8.42694C11.0229 8.7321 10.7589 9.2254 10.569 9.52044C10.5623 9.53224 10.3643 9.71028 10.361 9.78109C10.3546 9.91967 10.0558 10.0714 9.89262 10.1985C9.84946 10.2316 9.84137 10.2697 9.78843 10.3024C9.75538 10.324 9.71762 10.3307 9.68457 10.3553C9.64816 10.3799 9.61376 10.4346 9.57903 10.4592C9.54768 10.4824 9.50957 10.4872 9.47484 10.5104C9.44045 10.5367 9.40403 10.5914 9.37099 10.616C9.33794 10.6406 9.30355 10.6423 9.26713 10.6672C9.22263 10.6969 9.19936 10.7461 9.16328 10.7711C9.14339 10.7842 9.07224 10.7545 9.05909 10.7711C8.98828 10.8567 8.78698 10.9936 8.64165 11.0843C8.21106 11.3534 7.76058 11.609 7.28683 11.8649C7.23895 11.8912 7.15667 11.9654 7.07912 11.9704C7.07912 11.9704 6.93717 12.0116 6.92233 12.0214C6.85455 12.0726 6.88085 12.0972 6.76554 12.1256C6.70619 12.1404 6.66809 12.2014 6.61043 12.2294C6.51804 12.2773 6.42734 12.2968 6.34978 12.3349C6.29179 12.3629 6.28707 12.4091 6.24559 12.4388C6.22604 12.452 6.15489 12.4206 6.14174 12.4388C6.10532 12.4816 6.10229 12.4752 6.0362 12.4901C6.03957 12.4901 5.88446 12.5379 5.88109 12.5427C5.80691 12.632 5.53952 12.7244 5.35946 12.8033C4.79535 13.0508 4.03465 13.3529 3.2753 13.5326C3.03792 13.5886 2.86967 13.6564 2.70107 13.6365C2.70107 13.6365 2.68792 13.5869 2.65016 13.5836C2.56923 13.5805 2.55608 13.5539 2.49336 13.5326C2.34466 13.4814 2.2607 13.4534 2.12853 13.3229C2.11706 13.3131 2.02973 13.2835 2.02467 13.272C1.99331 13.2025 1.95353 13.0774 1.86788 13.0113C1.84967 12.9982 1.77886 13.0296 1.76403 13.0113C1.70434 12.9389 1.58397 12.8232 1.50304 12.6995C1.47034 12.6468 1.41571 12.5477 1.34794 12.3862C1.33984 12.368 1.36142 12.2952 1.34794 12.282C1.34153 12.2773 1.29871 12.2888 1.29534 12.282C1.28691 12.2641 1.31017 12.1896 1.29534 12.1782C1.23262 12.1269 1.17968 11.8514 1.13854 11.6569C0.849573 10.2761 1.01142 8.31129 1.19148 6.76056C1.19452 6.73257 1.15001 6.4817 1.19148 6.449C1.26903 6.38459 1.26566 5.97693 1.29534 5.77091C1.29365 5.78238 1.34153 5.74124 1.34794 5.71966C1.36783 5.63738 1.33647 5.54162 1.34794 5.45901C1.35468 5.41282 1.39278 5.37505 1.39919 5.30222C1.41403 5.1606 1.42077 5.1488 1.45213 4.99066C1.4555 4.97414 1.44033 4.8949 1.45213 4.88647C1.53946 4.81397 1.42077 4.64234 1.50304 4.57322C1.5081 4.56985 1.5543 4.57659 1.55598 4.57322C1.57588 4.47577 1.58397 4.36383 1.60723 4.25963C1.66658 4.00573 1.72087 3.78622 1.81663 3.53232C1.82337 3.51243 1.80179 3.43824 1.81663 3.42678C1.85979 3.39205 1.87766 3.242 1.92082 3.11488C1.92385 3.10342 1.96364 3.10004 1.97342 3.06194C1.99837 2.95977 2.05097 2.90684 2.07727 2.8013C2.09548 2.72543 2.0938 2.66777 2.12853 2.59359C2.14505 2.55886 2.2162 2.51941 2.23272 2.48973C2.24418 2.46984 2.21754 2.39903 2.23272 2.38554C2.27554 2.35115 2.33151 2.2274 2.38917 2.1249C2.41918 2.07398 2.46538 2.06083 2.49336 2.02104C2.50651 2.00149 2.47684 1.93034 2.49336 1.91719C2.54597 1.87437 2.55271 1.80828 2.5989 1.7604C2.6188 1.73747 2.68455 1.73241 2.70107 1.7078C2.73749 1.6616 2.71591 1.59383 2.75401 1.55269C2.77694 1.52774 2.83831 1.5247 2.85786 1.49975C2.89428 1.45524 2.8727 1.38443 2.9108 1.34296C2.95531 1.29541 3.08884 1.15346 3.17145 1.084C3.21259 1.04792 3.28879 1.06748 3.32656 1.0314C3.34814 1.0115 3.35791 0.942379 3.37949 0.927542C3.42738 0.894498 3.49009 0.900904 3.53629 0.874604C3.56259 0.859767 3.52786 0.825037 3.5872 0.823351C3.599 0.821665 3.63036 0.828409 3.64014 0.823351C3.67487 0.803794 3.71432 0.734334 3.74399 0.717811C3.76389 0.708033 3.8347 0.734334 3.84819 0.717811C3.98508 0.55124 4.75724 0.51651 5.15175 0.613957C5.30855 0.653408 5.39925 0.613957 5.56751 0.666896C5.5756 0.668245 5.58403 0.709719 5.62045 0.717811C5.6518 0.726241 5.69463 0.706347 5.7243 0.717811C5.75566 0.730962 5.80354 0.811887 5.82815 0.823351C5.85783 0.835153 5.90234 0.815259 5.93201 0.823351C5.98495 0.836502 5.95865 0.863139 5.98495 0.874604C6.07902 0.917427 6.21255 0.932263 6.29684 0.978458C6.33495 1.00004 6.36765 1.05938 6.40238 1.084C6.43543 1.10726 6.47016 1.11064 6.50658 1.13525C6.73418 1.28867 6.94526 1.4603 7.13004 1.7078C7.15971 1.74725 7.21265 1.78029 7.23591 1.81165C7.24906 1.83154 7.21771 1.90235 7.23591 1.91719C7.3283 1.99306 7.38596 2.25539 7.44362 2.48973C7.45205 2.52109 7.49656 2.54234 7.49656 2.54234C7.66313 3.65101 7.17792 4.65718 6.92233 5.61412Z" fill="#141414"/>
</svg>
