<svg width="8" height="8" viewBox="0 0 8 8" fill="none" xmlns="http://www.w3.org/2000/svg">
<path fill-rule="evenodd" clip-rule="evenodd" d="M4.16923 1.67102C4.24462 1.66741 4.27521 1.59081 4.31881 1.56022C4.347 1.53902 4.39782 1.54601 4.42962 1.52264C4.44841 1.50963 4.44961 1.46001 4.46744 1.44821C4.49441 1.42822 4.54741 1.43424 4.57945 1.41063C4.59462 1.39883 4.60064 1.34584 4.61582 1.33644C4.63003 1.32801 4.68061 1.34824 4.69025 1.33644C4.69362 1.33283 4.68543 1.30103 4.69025 1.29983C4.70422 1.29284 4.75625 1.31043 4.76444 1.29983C4.76902 1.29381 4.75962 1.26562 4.76444 1.26201C4.86826 1.20203 4.97666 1.16903 5.10047 1.11363C5.11805 1.10544 5.16045 1.04281 5.17466 1.03823C5.20766 1.02884 5.25367 1.05124 5.28667 1.03823C5.30088 1.03341 5.28546 1.00403 5.32328 1.00162C5.38326 0.998005 5.38687 0.972231 5.43505 0.965005C5.7771 0.908639 6.04471 0.981626 6.29089 1.07581C6.3039 1.08063 6.35689 1.06642 6.36532 1.07581C6.3687 1.08063 6.36051 1.11122 6.36532 1.11363C6.3793 1.11941 6.43133 1.10182 6.43952 1.11363C6.44313 1.11724 6.4347 1.14904 6.43952 1.15024C6.4901 1.17361 6.54093 1.15843 6.58934 1.18782C6.61391 1.20323 6.66811 1.27164 6.70015 1.29983C6.77891 1.36462 6.84154 1.42484 6.92392 1.52264C6.95692 1.56263 7.02196 1.60984 7.03593 1.63441C7.04316 1.64742 7.02413 1.69921 7.03593 1.70884C7.10073 1.76304 7.18215 2.09882 7.18456 2.26744C7.18576 2.42642 7.12915 2.65742 7.07255 2.82483C7.04894 2.89541 7.02533 2.98622 6.99836 3.04741C6.98776 3.07342 6.93452 3.10185 6.92392 3.12304C6.88514 3.19362 6.89935 3.25143 6.84973 3.34562C6.83673 3.37043 6.78614 3.39981 6.77434 3.41981C6.75194 3.46244 6.75892 3.49424 6.73772 3.53182C6.70472 3.58842 6.67293 3.63684 6.62572 3.71802C6.59392 3.77342 6.56333 3.82521 6.51491 3.90422C6.49853 3.92903 6.45493 3.95504 6.43952 3.97841C6.33232 4.14004 6.20731 4.35442 6.06808 4.53725C6.02231 4.59602 5.9645 4.62902 5.91849 4.68563C5.87008 4.74561 5.8549 4.81522 5.80648 4.87183C5.72748 4.96601 5.61209 5.05923 5.50948 5.16883C5.32786 5.36443 5.12407 5.60603 4.91403 5.80162C4.81045 5.89821 4.69025 5.96903 4.57945 6.06201C4.52404 6.10923 4.49104 6.16222 4.42962 6.21064C4.4024 6.23304 4.38024 6.26724 4.35543 6.28603C4.327 6.30723 4.27642 6.29904 4.24342 6.32264C4.18561 6.36745 4.15381 6.42863 4.0948 6.47223C4.0418 6.50981 3.97219 6.54184 3.9086 6.58303C3.79538 6.65843 3.6788 6.72443 3.53716 6.80681C3.51379 6.81982 3.48296 6.86944 3.46176 6.88124C3.39119 6.91882 3.33338 6.90461 3.23895 6.95543C3.21535 6.96724 3.18355 7.02023 3.16476 7.02963C3.09996 7.06142 3.01614 7.06961 2.94074 7.10382C2.91955 7.11442 2.88534 7.17102 2.86655 7.17825C2.84656 7.18764 2.81356 7.17343 2.79236 7.17825C2.72395 7.19583 2.43514 7.35963 2.30771 7.36445C2.22533 7.36782 2.2157 7.33602 2.15933 7.32783C2.07671 7.31483 2.03889 7.30664 1.97289 7.29002C1.8233 7.25244 1.60169 7.10984 1.5263 6.91762C1.50607 6.78923 1.64891 6.80585 1.7125 6.76923C1.73611 6.75623 1.7667 6.70564 1.78789 6.69504C1.85871 6.65602 1.91628 6.67144 2.01071 6.62061C2.03311 6.60785 2.06491 6.55582 2.0849 6.54642C2.15692 6.50981 2.2487 6.50523 2.30771 6.47223C2.33493 6.45681 2.34794 6.41683 2.38311 6.39684C2.41153 6.38021 2.46091 6.38142 2.49391 6.36022C2.54594 6.32722 2.58834 6.25062 2.64374 6.21064C2.70035 6.17041 2.77574 6.13982 2.82994 6.09983C2.89473 6.05021 2.91834 5.99963 2.97856 5.95024C3.03637 5.90424 3.10936 5.88641 3.16476 5.83944C3.21535 5.79464 3.26015 5.73683 3.31338 5.68961C3.51717 5.51064 3.7024 5.30902 3.9086 5.09464C4.00639 4.99444 4.11262 4.90242 4.2068 4.79764C4.25402 4.74464 4.30821 4.70201 4.35543 4.64781C4.4036 4.59361 4.42263 4.51581 4.46744 4.46281C4.51441 4.40524 4.57101 4.36984 4.61582 4.31323C4.63822 4.28601 4.67242 4.26361 4.69025 4.23904C4.71265 4.21061 4.70422 4.15882 4.72783 4.12703C4.77143 4.07042 4.83044 4.03983 4.87645 3.97841C4.92125 3.91963 4.94365 3.85363 4.98846 3.79221C5.00484 3.77005 5.04844 3.73921 5.06265 3.71802C5.09806 3.66141 5.11805 3.60023 5.17466 3.53182C5.21344 3.48484 5.23825 3.42342 5.28667 3.34562C5.30184 3.32081 5.34665 3.29383 5.36086 3.27143C5.38085 3.23842 5.37627 3.20061 5.39747 3.15942C5.41168 3.13461 5.45986 3.10763 5.47166 3.08523C5.49647 3.04524 5.48708 3.00983 5.50948 2.97322C5.52369 2.94961 5.57187 2.92143 5.58367 2.89903C5.60728 2.85904 5.60029 2.82483 5.62149 2.78822C5.65786 2.72463 5.66966 2.74101 5.69568 2.63863C5.70387 2.60323 5.74048 2.55264 5.76987 2.49001C5.7771 2.47484 5.7995 2.48664 5.80648 2.45244C5.81227 2.43124 5.79829 2.39944 5.80648 2.37824C5.81588 2.35681 5.87489 2.32043 5.88188 2.30381C5.93728 2.15664 5.95848 1.97381 5.99268 1.82061C5.97751 1.76521 5.94547 1.83482 5.88188 1.82061C5.82407 1.89504 5.73109 1.92081 5.65786 1.96923C5.63787 1.98344 5.66388 2.00464 5.62149 2.00584C5.57909 2.00801 5.52369 2.07883 5.47166 2.11761C5.34785 2.21324 5.21464 2.30863 5.10047 2.41582C4.86465 2.63502 4.65942 2.89662 4.46744 3.15942C4.44624 3.18904 4.3588 3.25601 4.35543 3.30924C4.35302 3.35862 4.2834 3.36681 4.281 3.41981C4.28003 3.43281 4.25281 3.48123 4.24342 3.49544C4.22559 3.52242 4.18199 3.54844 4.16923 3.56963C4.14201 3.61781 4.15839 3.66623 4.13261 3.71802C4.12081 3.74162 4.06782 3.77221 4.05722 3.79221C4.03241 3.84424 4.04758 3.88904 4.0206 3.94083C4.0088 3.96323 3.9546 3.99744 3.94641 4.01502C3.9204 4.07042 3.92979 4.10583 3.9086 4.16485C3.90619 4.17304 3.87921 4.17424 3.87078 4.20122C3.845 4.30841 3.80598 4.38621 3.75997 4.49943C3.69999 4.64781 3.66699 4.82943 3.53716 4.94602C3.40877 5.00503 3.29676 4.97083 3.16476 4.94602C3.07997 4.92964 2.98796 4.90483 2.90413 4.87183C2.80296 4.83184 2.58472 4.69382 2.49391 4.57362C2.44333 4.50521 2.38431 4.40284 2.41972 4.20122C2.42093 4.19761 2.45513 4.19423 2.45754 4.16485C2.45754 4.15064 2.44814 4.06103 2.45754 4.05284C2.50451 4.01382 2.47753 3.97744 2.49391 3.90422C2.50571 3.85363 2.51752 3.83243 2.53173 3.71802C2.53293 3.70742 2.52354 3.64961 2.53173 3.64382C2.53414 3.64142 2.56834 3.64623 2.56955 3.64382C2.62375 3.36681 2.67192 3.08402 2.68035 2.82483C2.62375 2.84724 2.62615 2.89204 2.60592 2.97322C2.59532 3.01561 2.53173 3.13461 2.49391 3.23481C2.34553 3.63563 2.22533 4.13883 2.12151 4.64781C2.0955 4.78102 2.07093 4.87303 2.04732 5.02021C2.04371 5.04382 2.0531 5.07103 2.04732 5.09464C2.03672 5.13824 2.0189 5.16522 2.01071 5.28084C2.0083 5.30445 2.01649 5.33263 2.01071 5.35503C2.00131 5.39381 1.9529 5.54244 1.93652 5.65324C1.88328 5.99963 1.89509 6.34842 1.75008 6.65723C1.5817 6.67481 1.36949 6.60664 1.22905 6.50884C1.21508 6.49921 1.20328 6.43923 1.19148 6.43441C1.17727 6.42743 1.12764 6.44622 1.11705 6.43441C1.09705 6.41322 1.09368 6.34721 1.07947 6.32264C1.06887 6.30362 1.04526 6.32722 1.04285 6.28603C1.04045 6.24123 0.949875 6.13741 0.930845 6.06201C0.907239 5.96542 0.922655 5.93242 0.894232 5.80162C0.887246 5.77103 0.861231 5.76501 0.856655 5.72743C0.833048 5.53184 0.84726 5.27241 0.856655 5.02021C0.869662 4.68924 0.894232 4.36622 0.930845 4.01502C0.941444 3.91722 0.954452 3.81364 0.968663 3.71802C0.968663 3.71561 1.00407 3.70862 1.00624 3.68044C1.01925 3.42703 1.08645 3.08643 1.15486 2.82483C1.17486 2.74583 1.20328 2.64104 1.22905 2.56444C1.23387 2.55144 1.26446 2.56444 1.26567 2.52783C1.26687 2.51723 1.26205 2.49941 1.26567 2.49001C1.28446 2.44425 1.32709 2.30863 1.37768 2.22962C1.40128 2.19301 1.40128 2.17181 1.41549 2.11761C1.42706 2.06703 1.51787 1.91262 1.56388 1.82061C1.60169 1.74401 1.63807 1.66283 1.67589 1.59683C1.68769 1.57684 1.71129 1.60141 1.7125 1.56022C1.7137 1.54841 1.74068 1.49903 1.75008 1.48482C1.76911 1.45544 1.80909 1.43544 1.82451 1.41063C1.8327 1.39762 1.8127 1.34584 1.82451 1.33644C1.83631 1.32681 1.89171 1.31043 1.8987 1.29983C1.92351 1.25984 1.9093 1.22082 1.93652 1.18782C1.98469 1.12904 2.08153 1.07461 2.15933 1.00162C2.20991 0.954406 2.23111 0.901413 2.30771 0.853237C2.35613 0.822404 2.56473 0.704614 2.68035 0.704614C2.85933 0.70341 3.07756 0.747009 3.20137 0.778805C3.22378 0.783623 3.25557 0.769411 3.27557 0.778805C3.29797 0.787236 3.33338 0.846011 3.35096 0.853237C3.37216 0.861427 3.40299 0.847215 3.42539 0.853237C3.42419 0.852032 3.53379 0.886237 3.53716 0.88961C3.55499 0.912011 3.63977 0.99921 3.68578 1.00162C3.74817 1.00523 3.76118 1.10881 3.83441 1.11363C3.8992 1.11724 3.89101 1.19384 3.94641 1.26201C3.99122 1.31862 4.03361 1.33042 4.05722 1.37402C4.10539 1.45881 4.1278 1.54841 4.16923 1.67102Z" fill="#141414"/>
</svg>
