<svg width="11" height="10" viewBox="0 0 11 10" fill="none" xmlns="http://www.w3.org/2000/svg">
<path fill-rule="evenodd" clip-rule="evenodd" d="M6.19182 3.45685C6.17361 3.49158 6.32198 3.5344 6.34861 3.5081C6.39784 3.46022 6.43763 3.47168 6.60926 3.45685C7.06615 3.41402 7.79414 3.38098 8.3269 3.45685C8.55146 3.48821 8.70994 3.56576 8.90113 3.61195C8.98205 3.6332 9.05792 3.60858 9.16177 3.66455C9.19178 3.68108 9.24101 3.75863 9.26596 3.76875C9.29395 3.7819 9.34015 3.762 9.36982 3.76875C9.41601 3.78021 9.49525 3.82809 9.57786 3.8726C9.61226 3.89081 9.65373 3.96162 9.68172 3.97645C9.74275 4.0095 9.78726 3.99635 9.83851 4.02939C9.91438 4.07862 9.96563 4.17101 10.0479 4.2371C10.0894 4.27352 10.1619 4.25868 10.203 4.29004C10.2246 4.30656 10.2907 4.374 10.3072 4.39389C10.3237 4.4121 10.2907 4.4846 10.3072 4.49775C10.3254 4.51258 10.3996 4.53248 10.4127 4.55068C10.4441 4.59688 10.4326 4.64779 10.464 4.70579C10.4805 4.73546 10.5581 4.78638 10.5678 4.81133C10.581 4.83932 10.5611 4.88383 10.5678 4.91518C10.5827 4.97284 10.6619 5.30599 10.6208 5.54033C10.6208 5.54539 10.5712 5.55045 10.5678 5.59158C10.5611 5.73657 10.5102 5.78446 10.464 5.90483C10.4572 5.92304 10.4788 5.99722 10.464 6.00902C10.4572 6.01374 10.4161 6.00228 10.4127 6.00902C10.403 6.02858 10.4276 6.10141 10.4127 6.11288C10.406 6.11793 10.3632 6.10613 10.3598 6.11288C10.3271 6.18369 10.3483 6.25315 10.3072 6.32058C10.2957 6.34216 10.2114 6.35531 10.203 6.37352C10.1915 6.39982 10.2195 6.45445 10.203 6.47738C10.1915 6.49727 10.1076 6.51211 10.0992 6.53031C10.0877 6.55493 10.1157 6.61259 10.0992 6.63417C10.0546 6.69014 9.95417 6.77916 9.89145 6.84188C9.83008 6.90291 9.74275 6.99361 9.68172 7.05161C9.61394 7.11567 9.54819 7.1966 9.47367 7.25932C9.43085 7.29573 9.35835 7.27415 9.31857 7.31057C9.29732 7.33012 9.28721 7.39959 9.26596 7.41442C9.24776 7.42757 9.17526 7.3979 9.16177 7.41442C9.15031 7.42926 9.12232 7.51187 9.10917 7.51996C9.0414 7.55638 8.97059 7.53143 8.90113 7.57121C8.87314 7.58774 8.90787 7.62078 8.84853 7.62382C8.77907 7.62719 8.7676 7.72464 8.69342 7.72801C8.64722 7.72936 8.55484 7.78735 8.48369 7.83186C8.45907 7.84838 8.2544 7.9836 8.17179 7.98865C8.14717 7.99 8.09592 8.02642 8.06794 8.03957C8.01331 8.06452 7.93913 8.14039 7.85989 8.14511C7.83359 8.14511 7.78571 8.18321 7.75435 8.19636C7.64207 8.24424 7.51191 8.30021 7.38985 8.35315C7.27925 8.40103 7.14707 8.45701 7.02501 8.50826C6.44235 8.75879 5.68334 9.03596 4.99379 9.23895C4.85184 9.28008 4.72472 9.30503 4.57635 9.3428C4.56287 9.34617 4.5713 9.39237 4.5251 9.39405C4.19837 9.41226 3.69663 9.57546 3.32539 9.60176C2.92447 9.63143 2.51681 9.58692 2.1803 9.55085C2.0761 9.53904 1.97056 9.56737 1.86671 9.55085C1.86334 9.55085 1.85525 9.50128 1.81546 9.49791C1.74802 9.49453 1.67182 9.51106 1.60606 9.49791C1.60101 9.49791 1.59595 9.44834 1.55481 9.44699C1.41286 9.43856 1.32215 9.38731 1.18997 9.3428C1.11411 9.3165 1.05476 9.32628 0.982266 9.2902C0.955965 9.27705 0.987324 9.24063 0.929328 9.23895C0.860204 9.23389 0.739491 9.11688 0.668681 9.02955C0.625858 8.97021 0.59922 8.89097 0.615743 8.76891C1.134 8.64988 1.54166 8.8677 2.23121 8.82151C2.43116 8.80836 2.66854 8.7571 2.85669 8.71765C2.95751 8.69607 3.08126 8.68798 3.17028 8.66472C3.18174 8.66168 3.17534 8.61549 3.22153 8.6138C3.24109 8.61211 3.36652 8.62695 3.37832 8.6138C3.47071 8.50152 4.00347 8.38451 4.21152 8.30021C4.2132 8.30021 4.4145 8.25571 4.41956 8.2493C4.45395 8.20614 4.4607 8.21288 4.5251 8.19636C4.52173 8.19636 4.67684 8.14848 4.68021 8.14511C4.71966 8.09723 4.77428 8.06452 4.837 8.03957C4.85521 8.03316 4.92939 8.0544 4.94085 8.03957C4.98064 7.99337 5.03493 7.95898 5.09765 7.93571C5.11585 7.92897 5.19004 7.95055 5.2015 7.93571C5.20656 7.93066 5.19509 7.88615 5.2015 7.88446C5.21971 7.87637 5.29389 7.8993 5.30569 7.88446C5.31041 7.87806 5.29895 7.83523 5.30569 7.83186C5.32525 7.82343 5.39808 7.8467 5.41123 7.83186C5.449 7.78398 5.50362 7.75094 5.56634 7.72801C5.58455 7.72126 5.65873 7.74116 5.67019 7.72801C5.69818 7.69496 5.81721 7.6255 5.93084 7.57121C6.00839 7.5348 6.15203 7.42117 6.24442 7.41442C6.25589 7.41442 6.36986 7.37801 6.39953 7.36317C6.45753 7.33518 6.46225 7.2873 6.50507 7.25932C6.52328 7.24617 6.59442 7.27584 6.60926 7.25932C6.64399 7.21649 6.64871 7.2229 6.71311 7.20671C6.77246 7.19188 6.81225 7.1322 6.86822 7.10252C6.94915 7.06139 7.09582 6.95079 7.18181 6.94607C7.26442 6.9427 7.35006 6.84693 7.44245 6.79096C7.47718 6.76938 7.50854 6.76129 7.54631 6.73802C7.59419 6.70835 7.61408 6.66047 7.6505 6.63417C7.6687 6.62102 7.7412 6.65069 7.75435 6.63417C7.76109 6.62574 7.74626 6.58629 7.75435 6.58123C7.79245 6.55662 7.86832 6.56167 7.91114 6.53031C7.93576 6.51042 7.93913 6.44265 7.96408 6.42612C8.02511 6.3833 8.11413 6.36846 8.17179 6.32058C8.22945 6.27135 8.26081 6.18031 8.3269 6.11288C8.44424 5.99553 8.5663 5.90483 8.69342 5.74838C8.89641 5.50088 9.27574 5.00252 9.05792 4.49775C8.99352 4.25025 8.70994 4.4121 8.43244 4.34264C8.40782 4.33623 8.36972 4.29004 8.37983 4.29004C8.23956 4.28329 8.1057 4.33118 7.96408 4.34264C7.81538 4.35276 7.66196 4.3278 7.54631 4.34264C7.01692 4.40873 6.2741 4.61981 5.87992 4.91518C5.8054 4.96947 5.74943 5.06692 5.67019 5.12289C5.62231 5.15762 5.55959 5.1411 5.5134 5.17583C5.47226 5.20719 5.4608 5.24664 5.41123 5.27969C5.38324 5.29621 5.33031 5.37376 5.30569 5.38354C5.27737 5.39703 5.23286 5.37545 5.2015 5.38354C5.17014 5.39197 5.15058 5.43648 5.15058 5.43648C5.03493 5.453 5.01672 5.39534 4.94085 5.38354C4.85824 5.37207 4.76113 5.40512 4.68021 5.38354C4.66706 5.3805 4.67684 5.33431 4.62895 5.33094C4.39124 5.31947 3.93603 4.98599 3.89962 4.75839C3.875 4.6134 3.97076 4.52573 4.00347 4.39389C4.02842 4.29172 4.08102 4.23879 4.10766 4.13325C4.12722 4.05401 4.12722 4.00275 4.15858 3.9252C4.17038 3.8989 4.25771 3.83956 4.26445 3.82135C4.30222 3.6976 4.26614 3.65815 4.31537 3.5081C4.32211 3.48989 4.36494 3.5081 4.36831 3.45685C4.36999 3.42717 4.44755 3.22082 4.47216 3.14326C4.5251 2.97669 4.56152 2.79697 4.62895 2.62366C4.57467 2.54138 4.48228 2.66513 4.47216 2.67491C4.41956 2.7292 4.38989 2.858 4.36831 2.88262C4.31065 2.95376 4.25265 2.98512 4.21152 3.03941C4.11103 3.17293 3.97886 3.37592 3.84702 3.5607C3.82712 3.59037 3.79914 3.55261 3.79576 3.61195C3.78902 3.73739 3.65886 3.76875 3.58603 3.8726C3.57288 3.89249 3.60424 3.9633 3.58603 3.97645C3.50679 4.04254 3.50207 4.0739 3.43093 4.18585C3.41137 4.21417 3.38136 4.17775 3.37832 4.2371C3.37495 4.31297 3.18849 4.49437 3.11734 4.6016C3.03979 4.71726 2.99528 4.83932 2.90963 4.96644C2.88468 5.0042 2.7842 5.07838 2.75284 5.12289C2.73969 5.1411 2.77105 5.2136 2.75284 5.22708C2.73632 5.24192 2.66045 5.26148 2.64899 5.27969C2.6355 5.29789 2.66551 5.37039 2.64899 5.38354C2.56975 5.44794 2.56469 5.4793 2.49219 5.59158C2.47399 5.62126 2.44431 5.58315 2.44094 5.64419C2.43926 5.6543 2.446 5.68735 2.44094 5.69712C2.41127 5.73995 2.31719 5.80435 2.28415 5.85223C2.26122 5.88696 2.25616 5.91832 2.23121 5.95608C2.19007 6.02217 2.09768 6.20527 2.0235 6.32058C2.00529 6.35026 1.97394 6.31418 1.97056 6.37352C1.97056 6.38499 1.97731 6.41635 1.97056 6.42612C1.94426 6.46928 1.84682 6.53335 1.81546 6.58123C1.79253 6.61596 1.78747 6.64901 1.76286 6.68542C1.75105 6.70329 1.72813 6.82873 1.70992 6.84188C1.61753 6.91774 1.58617 7.01519 1.50187 7.15546C1.48535 7.18345 1.45399 7.14703 1.45096 7.20671C1.45096 7.21481 1.41117 7.33855 1.39802 7.36317C1.38655 7.38475 1.30226 7.39621 1.29417 7.41442C1.26618 7.47883 1.28405 7.56784 1.24123 7.62382C1.22639 7.6454 1.14884 7.65517 1.13737 7.67507C1.10096 7.73947 1.12726 7.82175 1.08612 7.88446C1.06623 7.9111 1.00047 7.9111 0.982266 7.93571C0.96743 7.95392 0.998788 8.02642 0.982266 8.03957C0.944164 8.07093 0.899655 8.12049 0.772535 8.14511C0.538189 8.18962 0.381734 7.98697 0.19999 7.93571C0.173689 7.55975 0.262707 7.18682 0.356782 6.79096C0.384769 6.66553 0.414441 6.54178 0.460636 6.42612C0.46738 6.40657 0.4458 6.33239 0.460636 6.32058C0.497052 6.29091 0.523353 6.19043 0.564827 6.05994C0.569548 6.04342 0.551677 5.96755 0.564827 5.95608C0.571234 5.95103 0.614394 5.96283 0.615743 5.95608C0.625858 5.93788 0.600906 5.86538 0.615743 5.85223C0.665309 5.81244 0.670367 5.7268 0.72162 5.59158C0.746235 5.52381 0.795801 5.46109 0.825474 5.38354C0.884819 5.22371 0.917863 5.07029 0.982266 4.91518C0.990359 4.89192 1.03015 4.91687 1.03352 4.86225C1.03993 4.73546 1.12894 4.63633 1.18997 4.49775C1.1984 4.47954 1.17514 4.40536 1.18997 4.39389C1.19672 4.38883 1.23954 4.4003 1.24123 4.39389C1.25134 4.37568 1.22639 4.30319 1.24123 4.29004C1.24797 4.28498 1.29079 4.29644 1.29417 4.29004C1.30394 4.27183 1.27933 4.19933 1.29417 4.18585C1.30057 4.18113 1.34373 4.19259 1.34677 4.18585C1.3552 4.16629 1.33024 4.09346 1.34677 4.08199C1.40645 4.03243 1.36025 4.00444 1.39802 3.9252C1.40948 3.90227 1.49378 3.89249 1.50187 3.8726C1.53323 3.80482 1.52345 3.67467 1.55481 3.61195C1.56965 3.58228 1.64046 3.58565 1.65867 3.5607C1.67182 3.54249 1.64046 3.47 1.65867 3.45685C1.66541 3.4501 1.70655 3.46359 1.70992 3.45685C1.72138 3.43695 1.69508 3.36614 1.70992 3.35299C1.71666 3.34625 1.75948 3.35771 1.76286 3.35299C1.77263 3.3331 1.74802 3.2606 1.76286 3.24914C1.76926 3.2424 1.81074 3.25555 1.81546 3.24914C1.82557 3.22924 1.79894 3.15675 1.81546 3.14326C1.8222 3.13854 1.86334 3.15001 1.86671 3.14326C1.87649 3.12539 1.85187 3.05256 1.86671 3.03941C1.8748 3.03469 1.91459 3.04784 1.91965 3.03941C1.92943 3.0212 1.90313 2.9487 1.91965 2.93555C2.0434 2.83507 2.06633 2.69312 2.1803 2.51812C2.1985 2.49013 2.22818 2.52655 2.23121 2.4672C2.2329 2.4554 2.22649 2.42404 2.23121 2.41426C2.26931 2.35323 2.35024 2.32019 2.388 2.25747C2.40149 2.23926 2.37148 2.16845 2.388 2.15362C2.49691 2.06628 2.64056 1.83531 2.75284 1.68492C2.89142 1.50183 2.99359 1.34032 3.17028 1.16363C3.21479 1.12081 3.29909 1.02842 3.32539 1.00886C3.34528 0.995374 3.41609 1.02538 3.43093 1.00886C3.48724 0.939401 3.52028 0.914786 3.63897 0.85207C3.74451 0.79441 3.88478 0.713485 3.95087 0.695277C4.01696 0.678755 4.09451 0.711799 4.15858 0.695277C4.2975 0.663919 4.48531 0.65414 4.73281 0.695277C4.85993 0.716857 4.98536 0.715171 5.09765 0.748216C5.11417 0.752936 5.09933 0.797445 5.15058 0.799131C5.19341 0.802503 5.34177 0.860162 5.41123 0.902985C5.42775 0.914786 5.55319 0.939401 5.56634 0.955923C5.5714 0.962667 5.55959 1.00549 5.56634 1.00886C5.58455 1.01695 5.65873 0.99234 5.67019 1.00886C5.72482 1.07461 5.74134 1.09619 5.82698 1.16363C6.00198 1.30222 6.12236 1.40135 6.24442 1.63401C6.26094 1.66705 6.2741 1.70313 6.29568 1.73786C6.33513 1.79889 6.3122 1.8434 6.34861 1.99851C6.35839 2.04133 6.39616 2.04976 6.39953 2.10236C6.43426 2.54947 6.25589 2.97501 6.19182 3.45685Z" fill="#141414"/>
</svg>
