<svg width="126" height="112" viewBox="0 0 126 112" fill="none" xmlns="http://www.w3.org/2000/svg">
<path d="M0.0550141 30.8983C0.181028 30.0185 0.307058 29.1135 0.408158 28.2338C0.962475 24.4884 2.21899 20.9699 4.02741 17.6529C7.04131 12.1748 11.2084 7.72818 16.4785 4.38827C19.0884 2.73106 21.9987 1.72756 25.0093 1.05087C28.7223 0.24902 32.4603 -0.125656 36.2981 0.0780708C39.609 0.281437 42.744 1.08798 45.8034 2.29667C50.1418 4.03437 54.0281 6.50043 57.3621 9.82099C58.9665 11.4059 60.37 13.1666 61.7987 14.9023C63.1771 16.5875 64.3799 18.3729 65.658 20.058C65.7833 20.1841 65.8585 20.3347 66.009 20.511C66.3604 20.0585 66.6868 19.6566 66.9879 19.305C69.4485 16.1643 72.0593 13.1244 74.8958 10.3106C77.2301 7.97449 79.64 5.71357 82.5006 4.05653C84.3075 3.00178 86.2897 2.27419 88.2966 1.72247C91.8343 0.669193 95.497 0.244259 99.2095 0.322249C104.051 0.451216 108.716 1.45991 113.054 3.5998C115.235 4.657 117.115 6.19191 118.92 7.80194C121.302 9.9907 123.182 12.4806 124.283 15.5484C124.959 17.4342 125.41 19.3953 125.458 21.4063C125.507 22.9397 125.456 24.4733 125.38 26.0065C125.33 25.8556 125.255 25.6797 125.23 25.5288C124.053 21.7826 122.174 18.4125 119.643 15.4445C117.863 13.3568 115.908 11.4951 113.576 9.98541C110.267 7.87146 106.68 6.53648 102.818 6.10667C94.4901 5.09547 87.0387 7.30246 80.3878 12.4261C76.4473 15.4904 73.3344 19.2841 70.6727 23.4804C69.1911 25.8172 67.7346 28.1542 66.2779 30.466C66.1524 30.6168 66.0269 30.7926 65.8764 31.0188C65.7511 30.8176 65.6258 30.6916 65.5506 30.5409C63.8217 27.6739 62.0929 24.8068 60.3138 21.9902C56.2796 15.6524 51.0151 10.6715 44.0437 7.72543C40.3323 6.13933 36.4698 5.58359 32.4813 5.63107C28.4426 5.70375 24.554 6.48024 20.8404 8.08677C16.5248 9.96916 13.036 12.8326 10.3745 16.7272C7.58715 20.7977 6.10428 25.3718 5.524 30.2482C5.19591 33.1139 5.36952 35.9044 5.86923 38.7202C6.54416 42.3909 7.64524 45.9363 9.27354 49.3311C11.002 52.8766 13.207 56.1462 15.7887 59.1897C19.3978 63.4658 23.6347 67.0635 27.9718 70.5858C32.4343 74.1837 36.9974 77.7062 41.4599 81.3293C45.7721 84.8012 49.783 88.5999 53.2165 92.9512C56.8756 97.6797 59.6062 102.885 60.8061 108.819C60.9311 109.498 61.0812 110.202 61.2062 110.881C61.2061 110.956 61.2061 111.006 61.0806 111.157C61.0053 111.031 60.9553 110.905 60.8801 110.805C58.6744 107.988 56.4439 105.146 54.1884 102.354C51.7321 99.3607 49.05 96.5684 46.2171 93.9519C43.6853 91.6124 41.1535 89.2727 38.5713 87.0086C34.8361 83.738 31.0003 80.5929 27.2648 77.3476C22.8025 73.4984 18.4906 69.5236 14.5554 65.1467C11.4975 61.7509 8.59002 58.2045 6.31017 54.206C4.43099 50.8864 2.90326 47.3909 1.80227 43.7199C0.951269 40.8537 0.426427 37.9373 0.127511 34.9958C0.127614 34.8449 0.077592 34.7192 0.0524838 34.5935C0.0533961 33.2613 0.0541879 32.1049 0.0550141 30.8983Z" fill="#DCDCDC" fill-opacity="0.7"/>
</svg>
