<svg width="9" height="9" viewBox="0 0 9 9" fill="none" xmlns="http://www.w3.org/2000/svg">
<path fill-rule="evenodd" clip-rule="evenodd" d="M4.43097 4.61147C4.43338 4.56787 4.45458 4.59485 4.46855 4.57365C4.51937 4.49344 4.52395 4.47128 4.57935 4.42527C4.59236 4.41587 4.57116 4.36384 4.57935 4.35108C4.58658 4.33927 4.64319 4.32265 4.65499 4.31326C4.66559 4.30387 4.64656 4.25304 4.65499 4.23907C4.65716 4.23425 4.68679 4.24244 4.69136 4.23907C4.70196 4.22967 4.68558 4.17764 4.69136 4.16488C4.69377 4.16006 4.72436 4.16825 4.72918 4.16488C4.73978 4.15524 4.72099 4.10345 4.72918 4.09045C4.74917 4.05528 4.81879 4.01626 4.83998 3.97844C4.85058 3.96085 4.8778 3.87245 4.8778 3.86667C4.87997 3.82524 4.90478 3.84884 4.91418 3.83006C4.94139 3.77706 4.92839 3.73346 4.95199 3.68047C4.9544 3.67565 4.98499 3.68384 4.98981 3.68047C5.00041 3.67204 4.98258 3.62025 4.98981 3.60604C4.99077 3.60146 5.02281 3.60965 5.02618 3.60604C5.03678 3.59785 5.0204 3.54606 5.02618 3.53185C5.02859 3.52727 5.05918 3.53546 5.064 3.53185C5.0746 3.52366 5.05678 3.47066 5.064 3.45766C5.06641 3.45284 5.097 3.46127 5.10062 3.45766C5.11121 3.44947 5.09459 3.39647 5.10062 3.38347C5.14422 3.28326 5.20299 3.12307 5.2502 3.08526C5.2596 3.07827 5.24659 3.02407 5.2502 3.01107C5.27501 2.91785 5.29982 2.85184 5.32439 2.75068C5.42339 2.33684 5.3704 1.83028 5.13819 1.48485C5.11338 1.48485 5.08881 1.48485 5.064 1.48485C4.82457 1.64986 4.48878 1.90206 4.35678 2.11764C4.29656 2.21544 4.22815 2.29686 4.17034 2.37828C4.16576 2.38406 4.13854 2.37346 4.13276 2.37828C4.12096 2.38887 4.14216 2.43946 4.13276 2.45247C4.11494 2.47824 4.07953 2.49486 4.05833 2.52786C3.99835 2.61964 3.95114 2.73165 3.90995 2.78825C3.89212 2.81186 3.85214 2.83546 3.83552 2.86244C3.81215 2.89906 3.82155 2.93085 3.79794 2.97325C3.78734 2.99445 3.73772 3.02504 3.72375 3.04744C3.70135 3.08526 3.70954 3.11705 3.68714 3.15945C3.67533 3.18064 3.62571 3.21148 3.61294 3.23484C3.59054 3.27146 3.59753 3.30325 3.57513 3.34565C3.56332 3.36684 3.5137 3.39768 3.50094 3.41984C3.46673 3.47765 3.45613 3.55088 3.4265 3.60604C3.4147 3.62748 3.36532 3.65807 3.35111 3.68047C3.32871 3.71805 3.3369 3.75105 3.3145 3.79224C3.30269 3.81368 3.25331 3.84186 3.2403 3.86667C3.2179 3.90666 3.22152 3.94664 3.20249 3.97844C3.16949 4.03504 3.12372 4.10466 3.09072 4.16488C3.02929 4.27544 2.9763 4.35686 2.9421 4.42527C2.9209 4.46646 2.9221 4.50428 2.90428 4.53728C2.89368 4.55727 2.84309 4.58786 2.83009 4.61147C2.7795 4.70445 2.79468 4.76346 2.7559 4.83404C2.7453 4.85524 2.69447 4.88487 2.68146 4.90847C2.65208 4.96484 2.63786 5.03566 2.60727 5.09467C2.59547 5.11707 2.58029 5.09226 2.5697 5.13225C2.54368 5.23486 2.52947 5.21608 2.49526 5.28087C2.46347 5.34085 2.45287 5.40685 2.42107 5.46707C2.41047 5.48706 2.35965 5.51766 2.34688 5.54126C2.32448 5.58245 2.31147 5.64484 2.30906 5.68964C2.30666 5.73204 2.28305 5.70747 2.27245 5.72746C2.25125 5.76504 2.25848 5.79708 2.23487 5.83947C2.22307 5.86067 2.17345 5.88885 2.16044 5.91366C2.10986 6.00785 2.12286 6.06325 2.08625 6.13648C2.06746 6.17405 2.02507 6.18465 2.01206 6.21067C1.97183 6.28847 1.97183 6.36748 1.93666 6.43444C1.92125 6.46407 1.91884 6.48406 1.90005 6.50888C1.88223 6.53224 1.84104 6.55585 1.82586 6.58307C1.79262 6.64304 1.78443 6.74084 1.75143 6.80684C1.74083 6.82708 1.68904 6.85767 1.67724 6.88127C1.62641 6.97546 1.64062 7.03327 1.60184 7.10385C1.59124 7.12504 1.53921 7.15347 1.52741 7.17828C1.50284 7.23127 1.5038 7.27246 1.49104 7.32787C1.48261 7.35846 1.45804 7.35268 1.45322 7.36448C1.42504 7.43385 1.41203 7.52587 1.37903 7.58826C1.36723 7.60825 1.3176 7.63788 1.3046 7.66245C1.28123 7.70484 1.29183 7.74025 1.26702 7.77446C1.2292 7.82745 1.1726 7.87948 1.1184 7.92308C1.47924 7.89345 1.93426 7.87346 2.19826 7.84865C2.38446 7.83106 2.53067 7.82504 2.64509 7.81107C2.79709 7.79324 3.0411 7.79806 3.09072 7.73688C3.0977 7.72845 3.15311 7.73905 3.16491 7.73688C3.29209 7.71086 3.31233 7.70605 3.4265 7.69906C3.45734 7.69786 3.45734 7.66365 3.46312 7.66245C3.55032 7.64486 3.60451 7.64607 3.68714 7.62487C4.31896 7.45987 4.92477 7.23127 5.4364 6.99304C5.54721 6.94125 5.73003 6.85767 5.77122 6.80684C5.77941 6.79504 5.83144 6.81287 5.84542 6.80684C5.85023 6.80468 5.84204 6.77384 5.84542 6.76927C5.85505 6.75867 5.90563 6.77625 5.91985 6.76927C5.92442 6.76686 5.91623 6.73747 5.91985 6.73145C5.92924 6.72085 5.98103 6.73988 5.99404 6.73145C6.01523 6.71964 6.04462 6.67147 6.06823 6.65726C6.14724 6.61245 6.24503 6.58066 6.29225 6.54645C6.31585 6.52887 6.34066 6.48864 6.36644 6.47226C6.57865 6.33327 6.79568 6.21187 6.92528 6.06204C6.9525 6.02904 6.99128 5.94787 7.03608 5.87584C7.05728 5.84284 7.09389 5.82887 7.11027 5.80165C7.1399 5.75565 7.12328 5.70145 7.14809 5.65327C7.15869 5.63328 7.21048 5.60245 7.22228 5.57884C7.2495 5.52585 7.24011 5.48345 7.2601 5.43046C7.35669 5.17007 7.39331 4.75744 7.18591 4.57365C7.03247 4.43924 6.65188 4.44887 6.47845 4.49946C6.27924 4.55848 6.08124 4.62785 5.95742 4.68566C5.93623 4.69505 5.89985 4.72227 5.88203 4.72227C5.84084 4.72444 5.86565 4.74925 5.84542 4.75985C5.77363 4.80104 5.73244 4.80104 5.65921 4.83404C5.64862 4.84006 5.6344 4.90004 5.6226 4.90847C5.59442 4.92967 5.53661 4.92124 5.51083 4.94605C5.49903 4.95544 5.51661 5.00627 5.51083 5.02024C5.50722 5.02747 5.44363 5.05107 5.4364 5.05806C5.348 5.12888 5.27501 5.19127 5.21238 5.20644C5.02859 5.25245 4.69016 5.18404 4.65499 5.16886C4.57598 5.13827 4.49456 5.13345 4.43097 5.09467C4.34955 5.04626 4.25176 4.97086 4.24477 4.87186C4.24814 4.75865 4.42736 4.68084 4.43097 4.61147ZM6.25467 3.90425C6.32067 3.97627 6.44424 3.93966 6.51506 3.94086C6.84169 3.94664 7.19771 3.98807 7.48291 4.09045C7.6231 4.14007 7.78594 4.22365 7.92974 4.31326C7.95094 4.32627 7.92372 4.34867 7.96732 4.35108C8.01815 4.35325 8.21976 4.57726 8.26457 4.64784C8.29034 4.68927 8.31274 4.71866 8.33996 4.75985C8.36236 4.79646 8.36357 4.81887 8.37633 4.87186C8.38693 4.91305 8.39874 4.94605 8.41415 5.05806C8.42355 5.13466 8.47774 5.15586 8.45077 5.28087C8.44354 5.31146 8.41897 5.31845 8.41415 5.35506C8.39777 5.47647 8.40476 5.59907 8.37633 5.72746C8.37537 5.73445 8.34117 5.73324 8.33996 5.76408C8.33514 5.83827 8.33153 5.86886 8.30214 5.91366C8.25975 5.97605 8.21374 6.13985 8.15376 6.24824C8.13955 6.27185 8.08993 6.30244 8.07813 6.32268C8.05572 6.36627 8.06632 6.39807 8.04175 6.43444C8.02152 6.46287 7.98852 6.47347 7.96732 6.50888C7.92131 6.58186 7.85411 6.63847 7.7433 6.73145C7.68911 6.77746 7.64551 6.84346 7.59492 6.88127C7.58071 6.89067 7.53013 6.86827 7.52073 6.88127C7.47472 6.93764 7.45232 6.94125 7.37211 6.99304C7.33092 7.01906 7.30129 7.04026 7.2601 7.06747C7.24709 7.07566 7.22589 7.10264 7.22228 7.10385C7.1717 7.12866 7.12448 7.11445 7.0739 7.14167C7.05391 7.15226 7.07848 7.17707 7.03608 7.17828C7.03151 7.17924 6.9419 7.20646 6.92528 7.21586C6.9089 7.22525 6.90047 7.28427 6.8877 7.29005C6.83326 7.31486 6.79568 7.30426 6.73908 7.32787C6.71186 7.33846 6.71427 7.35966 6.70126 7.36448C6.63405 7.39507 6.55745 7.40206 6.47845 7.43987C6.45966 7.44806 6.48206 7.47408 6.44087 7.47625C6.39607 7.47866 6.34765 7.52707 6.29225 7.55068C6.23684 7.57404 6.20023 7.56465 6.14266 7.58826C6.12724 7.59428 6.14483 7.62366 6.10605 7.62487C6.09665 7.62607 6.07762 7.62126 6.06823 7.62487C6.04005 7.63667 5.92924 7.66726 5.84542 7.69906C5.83024 7.70605 5.84662 7.73447 5.80784 7.73688C5.79844 7.73688 5.77941 7.73326 5.77122 7.73688C5.71823 7.75808 5.56383 7.80505 5.4364 7.84865C5.42243 7.85226 5.4352 7.88406 5.39882 7.88526C5.38461 7.88646 5.29501 7.87587 5.28682 7.88526C5.23141 7.95487 4.99318 7.99366 4.83998 8.03485C4.44518 8.13867 4.00076 8.24128 3.53731 8.29548C3.40772 8.30945 3.29571 8.31884 3.16491 8.33185C2.7229 8.37906 1.96003 8.34124 1.49104 8.36967C1.15019 8.38966 0.705771 8.42844 0.523185 8.14685C0.508973 7.94644 0.706976 7.95825 0.858007 7.92308C0.789597 7.82986 0.615201 7.84287 0.597376 7.69906C0.518367 7.45385 0.648201 7.03086 0.745998 6.76927C0.750575 6.75626 0.736604 6.70327 0.745998 6.69508C0.77659 6.67026 0.771772 6.66665 0.783575 6.62064C0.794174 6.57704 0.86138 6.44745 0.895584 6.36025C0.900402 6.34725 0.884986 6.29305 0.895584 6.28606C0.958213 6.23427 1.03361 5.99725 1.08082 5.87584C1.29882 5.32206 1.48381 4.79526 1.71385 4.27665C1.72662 4.24846 1.73144 4.20005 1.75143 4.16488C1.76323 4.14344 1.81743 4.10827 1.82586 4.09045C1.83405 4.07045 1.81984 4.03745 1.82586 4.01505C1.82586 4.01746 1.85886 3.90666 1.86344 3.90425C1.86705 3.90087 1.89764 3.90906 1.90005 3.90425C1.93185 3.83608 1.94245 3.74406 1.97424 3.68047C1.98605 3.65566 2.03687 3.62748 2.04843 3.60604C2.05686 3.59327 2.03687 3.54124 2.04843 3.53185C2.05325 3.52847 2.08384 3.53666 2.08625 3.53185C2.12286 3.46127 2.12624 3.37046 2.16044 3.30927C2.17586 3.28206 2.21705 3.25724 2.23487 3.23484C2.25366 3.20907 2.25607 3.18908 2.27245 3.15945C2.28907 3.12886 2.28787 3.08767 2.30906 3.04744C2.32207 3.02407 2.37145 2.99445 2.38326 2.97325C2.41505 2.91664 2.42806 2.84125 2.45769 2.78825C2.47286 2.76224 2.51887 2.73526 2.53308 2.71406C2.55067 2.68347 2.54729 2.63746 2.5697 2.60205C2.58728 2.57507 2.62727 2.55147 2.64509 2.52786C2.68508 2.47126 2.73229 2.35804 2.79347 2.26747C2.81467 2.23447 2.84888 2.21785 2.8679 2.19208C2.8773 2.17907 2.8549 2.12824 2.8679 2.11764C2.87369 2.11307 2.90091 2.12367 2.90428 2.11764C2.94089 2.06465 2.9775 1.98564 3.01629 1.93144C3.03532 1.90687 3.0741 1.88086 3.09072 1.85725C3.13311 1.80065 3.20971 1.71706 3.27692 1.63444C3.32172 1.58024 3.3499 1.52364 3.38893 1.48485C3.43951 1.43547 3.54213 1.39645 3.61294 1.33647C3.68834 1.27264 3.72471 1.20206 3.79794 1.15027C3.82275 1.13365 3.84515 1.13004 3.87213 1.11366C3.91332 1.08764 3.94295 1.06524 3.98414 1.03826C4.00076 1.02887 4.01353 1.00647 4.02196 1.00165C4.07134 0.974672 4.11855 0.991051 4.17034 0.965036C4.18937 0.954438 4.22935 0.895663 4.24477 0.889641C4.30475 0.868444 4.34955 0.865071 4.39315 0.853268C4.50155 0.82364 4.56779 0.839056 4.72918 0.81545C4.97801 0.778837 5.4022 0.819064 5.69583 0.927459C5.77122 0.954438 5.85842 0.96865 5.91985 1.00165C5.94104 1.01345 5.93864 1.06307 5.95742 1.07584C5.97043 1.08548 6.02126 1.06307 6.03186 1.07584C6.03643 1.08186 6.02583 1.10884 6.03186 1.11366C6.08726 1.15027 6.14603 1.15726 6.18024 1.18785C6.21324 1.21627 6.22625 1.26445 6.25467 1.29986C6.26406 1.31046 6.32404 1.32587 6.32886 1.33647C6.33705 1.35526 6.31706 1.39525 6.32886 1.41066C6.35247 1.44125 6.42088 1.45426 6.44087 1.48485C6.47146 1.53086 6.45388 1.58386 6.47845 1.63444C6.48688 1.65227 6.51265 1.62986 6.51506 1.67105C6.51747 1.71104 6.56348 1.80426 6.58925 1.89507C6.60226 1.93626 6.61165 1.97986 6.62707 2.04345C6.63887 2.09404 6.65886 2.11307 6.66368 2.15546C6.73787 2.78247 6.48326 3.37528 6.25467 3.90425Z" fill="#141414"/>
</svg>
