<svg width="9" height="7" viewBox="0 0 9 7" fill="none" xmlns="http://www.w3.org/2000/svg">
<path fill-rule="evenodd" clip-rule="evenodd" d="M6.32895 3.80257C5.90331 3.82497 5.5285 3.92758 5.21151 4.02538C4.95569 4.10656 4.75046 4.20676 4.46767 4.17497C4.34386 4.16075 4.16465 4.08175 4.02084 3.98877C3.95604 3.94637 3.87101 3.91457 3.83464 3.87676C3.80501 3.84737 3.82043 3.80377 3.79803 3.76595C3.76984 3.72019 3.72504 3.74018 3.72263 3.65418C3.72022 3.48436 4.08202 3.19675 4.16946 3.09559C4.23884 3.01537 4.28364 2.96575 4.31905 2.90914C4.38866 2.79617 4.52187 2.71138 4.57968 2.64875C4.60545 2.62057 4.59124 2.56878 4.61605 2.53674C4.65628 2.48857 4.69265 2.46978 4.72806 2.42618C4.79647 2.34115 4.83549 2.25877 4.87668 2.20216C4.89427 2.17856 4.9345 2.15495 4.95088 2.12797C4.98508 2.07498 4.9899 2.00657 5.02507 1.94177C5.0335 1.92756 5.0889 1.91937 5.1007 1.90516C5.11829 1.88035 5.12648 1.81435 5.13708 1.79315C5.22331 1.61634 5.31388 1.33596 5.32352 1.16036C5.22909 1.15337 5.21368 1.21215 5.17489 1.23455C5.16791 1.23937 5.14551 1.23455 5.13708 1.23455C5.09468 1.23696 5.11949 1.26177 5.1007 1.27237C5.06529 1.29116 5.02507 1.28538 4.98869 1.30898C4.97207 1.31958 4.9687 1.37137 4.95088 1.38438C4.92028 1.40678 4.86729 1.40196 4.84007 1.42075C4.82249 1.43255 4.82008 1.48217 4.80225 1.49518C4.77166 1.51855 4.71867 1.51277 4.69049 1.53276C4.68446 1.53637 4.69506 1.56456 4.69049 1.56937C4.68085 1.58238 4.63026 1.56118 4.61605 1.56937C4.56186 1.60815 4.53367 1.69198 4.50404 1.71896C4.47707 1.74497 4.42287 1.73076 4.39324 1.75678C4.34844 1.79315 4.32483 1.86758 4.28123 1.90516C4.18006 1.99115 4.07865 2.03957 3.98302 2.12797C3.84741 2.25516 3.70722 2.42136 3.61183 2.53674C3.6046 2.54518 3.61761 2.56758 3.61183 2.57456C3.60123 2.58757 3.54799 2.56276 3.5374 2.57456C3.51403 2.59817 3.52102 2.66176 3.49982 2.68657C3.43502 2.76076 3.34999 2.81376 3.31362 2.87277C3.27098 2.94118 3.23341 2.97755 3.20161 3.02115C3.18499 3.04476 3.14621 3.07077 3.12718 3.09559C3.08719 3.15075 3.06118 3.22036 3.01517 3.28178C3.0024 3.29937 2.95519 3.30057 2.94098 3.31816C2.91858 3.34995 2.92339 3.40295 2.90436 3.43017C2.89979 3.43595 2.87257 3.42535 2.86679 3.43017C2.85498 3.44077 2.87618 3.49135 2.86679 3.50436C2.84679 3.53278 2.78296 3.55615 2.75598 3.57975C2.74297 3.58915 2.76417 3.64118 2.75598 3.65418C2.73719 3.67996 2.70178 3.69658 2.68059 3.72838C2.66276 3.75415 2.66156 3.77896 2.64397 3.80257C2.62639 3.82617 2.58616 3.85098 2.56978 3.87676C2.49198 3.99816 2.40936 4.19857 2.34576 4.28577C2.32794 4.31058 2.28795 4.33395 2.27133 4.36117C2.24893 4.39657 2.25254 4.44258 2.23376 4.47197C2.22075 4.49558 2.17354 4.52135 2.15957 4.54736C2.12873 4.60036 2.11813 4.67575 2.08513 4.73356C2.08272 4.73838 2.05334 4.72875 2.04756 4.73356C2.03696 4.74175 2.05575 4.79378 2.04756 4.80776C2.03575 4.82775 1.98734 4.85738 1.97312 4.88195C1.94133 4.94096 1.93555 5.00335 1.89893 5.06815C1.88255 5.09657 1.88014 5.11777 1.86232 5.14258C1.84474 5.16618 1.80234 5.18955 1.78813 5.21677C1.75754 5.27097 1.74333 5.34516 1.71273 5.40297C1.64432 5.53256 1.58892 5.62578 1.52653 5.73755C1.48992 5.80355 1.43909 5.84956 1.41573 5.92375C2.26917 5.95916 3.3088 5.84137 4.05745 5.77416C4.12466 5.76838 4.16826 5.74237 4.20704 5.73755C4.44864 5.70359 4.67146 5.69877 4.87668 5.66336C5.05108 5.63277 5.28208 5.55978 5.43528 5.55135C5.46828 5.55039 5.46491 5.51618 5.4719 5.51498C5.5933 5.48655 5.63112 5.48198 5.73253 5.47716C5.76673 5.47596 5.76071 5.44175 5.77011 5.43958C5.87874 5.41116 5.96811 5.39936 6.06832 5.36515C6.16274 5.33215 6.20995 5.30878 6.25476 5.29096C6.35014 5.25218 6.44096 5.22496 6.47757 5.17895C6.48576 5.16835 6.53755 5.18618 6.55176 5.17895C6.55634 5.17678 6.54815 5.14715 6.55176 5.14258C6.56115 5.12957 6.61294 5.15197 6.62595 5.14258C6.63534 5.13656 6.70737 5.06116 6.73796 5.03057C6.80276 4.96577 6.95836 4.81619 6.96077 4.77018C6.96318 4.72875 6.99016 4.75115 6.99859 4.73356C7.03159 4.66395 7.03159 4.62878 7.03617 4.54736C7.03737 4.51918 7.07278 4.51196 7.07278 4.50955C7.10458 4.30335 7.0776 4.02755 6.96077 3.84038C6.75338 3.78016 6.53177 3.79197 6.32895 3.80257ZM5.84454 3.09559C6.09313 3.09077 6.36676 3.12015 6.62595 3.16978C6.73218 3.19097 6.80998 3.22518 6.88658 3.24397C6.96077 3.26276 6.99739 3.30057 7.07278 3.31816C7.12818 3.33237 7.16937 3.33117 7.2214 3.35598C7.24718 3.36778 7.2756 3.41836 7.2968 3.43017C7.30981 3.43836 7.3616 3.41957 7.37099 3.43017C7.38882 3.45257 7.47361 3.53977 7.51961 3.54218C7.56321 3.54458 7.83661 3.82858 7.89201 3.91457C7.9002 3.92638 7.91682 4.01599 7.92863 4.02538C7.98042 4.06898 8.00161 4.18195 8.04064 4.32335C8.04304 4.33395 8.07604 4.32576 8.07821 4.36117C8.08664 4.52015 8.11964 4.62637 8.07821 4.84437C8.06304 4.92097 8.06304 4.99877 8.04064 5.06815C8.03702 5.07995 8.00523 5.06815 8.00402 5.10476C8.00041 5.16715 7.98282 5.14595 7.9662 5.17895C7.94163 5.22737 7.93224 5.30156 7.89201 5.36515C7.88021 5.38298 7.86022 5.39357 7.85444 5.40297C7.83541 5.43476 7.78241 5.49836 7.78 5.55135C7.7788 5.58556 7.64439 5.72695 7.5938 5.77416C7.57381 5.79416 7.53961 5.83438 7.51961 5.84956C7.46301 5.89075 7.3946 5.89557 7.33341 5.92375C7.31559 5.93218 7.27199 5.99336 7.25898 5.99818C7.17058 6.02516 7.1424 5.99939 7.03617 6.03455C7.02316 6.03937 7.03496 6.06996 6.99859 6.07237C6.84298 6.08056 6.59656 6.18077 6.40314 6.22075C5.77733 6.35276 4.93546 6.43056 4.20704 6.48235C3.59762 6.52498 2.9022 6.51896 2.27133 6.51896C1.95434 6.51896 1.59591 6.55558 1.30372 6.51896C1.02888 6.48476 0.835692 6.37395 0.67069 6.18438C0.641061 6.08755 0.718865 6.01697 0.74488 5.92375C0.769691 5.83535 0.760297 5.74935 0.782698 5.66336C0.784866 5.65396 0.817867 5.65999 0.820276 5.62578C0.826298 5.48896 0.887481 5.32878 0.93108 5.17895C0.988891 4.98336 1.03851 4.78415 1.11728 4.58398C1.1221 4.57338 1.14691 4.57675 1.1551 4.54736C1.17268 4.47655 1.15269 4.45077 1.19171 4.36117C1.20111 4.33876 1.26012 4.30335 1.2659 4.28577C1.29071 4.22435 1.28469 4.18436 1.30372 4.13715C1.32371 4.08777 1.36129 4.05718 1.37791 3.98877C1.38369 3.96636 1.36852 3.93457 1.37791 3.91457C1.38851 3.89097 1.44271 3.85917 1.4521 3.84038C1.4851 3.77318 1.49233 3.68237 1.52653 3.61637C1.54051 3.59035 1.58772 3.56458 1.60193 3.54218C1.62072 3.51158 1.67371 3.44558 1.67612 3.39355C1.67612 3.38175 1.70454 3.33237 1.71273 3.31816C1.74935 3.26396 1.77753 3.21458 1.82474 3.13316C1.85654 3.07776 1.88713 3.02597 1.93675 2.94696C1.95193 2.92095 1.99553 2.89517 2.01094 2.87277C2.05093 2.81255 2.08176 2.74438 2.12175 2.68657C2.16173 2.62997 2.23014 2.55577 2.27133 2.50037C2.36094 2.37897 2.42477 2.29057 2.53196 2.16555C2.66035 2.01476 2.81259 1.84735 2.9788 1.68138C3.02818 1.63176 3.06238 1.58816 3.12718 1.53276C3.2322 1.44315 3.33602 1.34198 3.462 1.23455C3.51499 1.19095 3.55522 1.13338 3.61183 1.08617C3.66 1.04498 3.74383 1.01776 3.79803 0.975365C3.85704 0.925743 3.89221 0.869378 3.94665 0.825778C3.98302 0.79615 4.01964 0.77977 4.05745 0.751347C4.08323 0.732558 4.10804 0.694981 4.13285 0.677156C4.19524 0.629943 4.26003 0.607783 4.31905 0.565147C4.37084 0.52757 4.41805 0.449766 4.46767 0.416765C4.50284 0.391955 4.54548 0.400145 4.57968 0.378947C4.60208 0.364976 4.63388 0.315355 4.65387 0.304756C4.66688 0.297771 4.71867 0.315355 4.72806 0.304756C4.73168 0.30018 4.72349 0.269347 4.72806 0.267179C4.74107 0.261157 4.79406 0.278982 4.80225 0.267179C4.81887 0.246945 4.87548 0.218762 4.95088 0.192747C5.2763 0.0819429 5.76673 0.210572 6.03074 0.378947C6.07313 0.406166 6.10854 0.421583 6.14275 0.453379C6.18273 0.49216 6.36315 0.591162 6.40314 0.639579C6.41374 0.652345 6.39013 0.704375 6.40314 0.713769C6.44794 0.750383 6.51876 0.817348 6.55176 0.899969C6.55634 0.914181 6.54116 0.96597 6.55176 0.975365C6.58837 1.00355 6.58115 1.02474 6.58958 1.08617C6.59054 1.09677 6.58115 1.15458 6.58958 1.16036C6.66377 1.22154 6.59415 1.62478 6.55176 1.79315C6.43277 2.26455 6.08614 2.77377 5.84454 3.09559Z" fill="#141414"/>
</svg>
