<svg width="126" height="112" viewBox="0 0 126 112" fill="none" xmlns="http://www.w3.org/2000/svg">
<path d="M125.438 30.8983C125.312 30.0185 125.186 29.1135 125.085 28.2338C124.531 24.4884 123.274 20.9699 121.466 17.6529C118.452 12.1748 114.285 7.72818 109.015 4.38827C106.405 2.73106 103.494 1.72756 100.484 1.05087C96.7708 0.24902 93.0329 -0.125656 89.1951 0.0780708C85.8842 0.281437 82.7491 1.08798 79.6897 2.29667C75.3514 4.03437 71.465 6.50043 68.131 9.82099C66.5267 11.4059 65.1232 13.1666 63.6944 14.9023C62.3161 16.5875 61.1133 18.3729 59.8352 20.058C59.7098 20.1841 59.6346 20.3347 59.4841 20.511C59.1328 20.0585 58.8064 19.6566 58.5052 19.305C56.0447 16.1643 53.4339 13.1244 50.5973 10.3106C48.263 7.97449 45.8532 5.71357 42.9925 4.05653C41.1857 3.00178 39.2035 2.27419 37.1965 1.72247C33.6588 0.669193 29.9961 0.244259 26.2837 0.322249C21.4426 0.451216 16.7776 1.45991 12.4395 3.5998C10.2578 4.657 8.37773 6.19191 6.57269 7.80194C4.1911 9.9907 2.31136 12.4806 1.20996 15.5484C0.533806 17.4342 0.0836104 19.3953 0.0348776 21.4063C-0.0141823 22.9397 0.0369777 24.4733 0.11333 26.0065C0.163336 25.8556 0.238518 25.6797 0.263607 25.5288C1.43985 21.7826 3.31899 18.4125 5.85038 15.4445C7.62989 13.3568 9.58537 11.4951 11.917 9.98541C15.2267 7.87146 18.8128 6.53648 22.6757 6.10667C31.003 5.09547 38.4545 7.30246 45.1053 12.4261C49.0458 15.4904 52.1588 19.2841 54.8205 23.4804C56.3021 25.8172 57.7585 28.1542 59.2152 30.466C59.3407 30.6168 59.4663 30.7926 59.6167 31.0188C59.742 30.8176 59.8673 30.6916 59.9425 30.5409C61.6714 27.6739 63.4003 24.8068 65.1793 21.9902C69.2136 15.6524 74.478 10.6715 81.4495 7.72543C85.1609 6.13933 89.0233 5.58359 93.0119 5.63107C97.0506 5.70375 100.939 6.48024 104.653 8.08677C108.968 9.96916 112.457 12.8326 115.119 16.7272C117.906 20.7977 119.389 25.3718 119.969 30.2482C120.297 33.1139 120.124 35.9044 119.624 38.7202C118.949 42.3909 117.848 45.9363 116.22 49.3311C114.491 52.8766 112.286 56.1462 109.704 59.1897C106.095 63.4658 101.858 67.0635 97.5213 70.5858C93.0588 74.1837 88.4958 77.7062 84.0333 81.3293C79.721 84.8012 75.7102 88.5999 72.2767 92.9512C68.6175 97.6797 65.887 102.885 64.687 108.819C64.5621 109.498 64.412 110.202 64.287 110.881C64.2871 110.956 64.2871 111.006 64.4126 111.157C64.4878 111.031 64.5378 110.905 64.6131 110.805C66.8187 107.988 69.0493 105.146 71.3047 102.354C73.7611 99.3607 76.4432 96.5684 79.276 93.9519C81.8078 91.6124 84.3397 89.2727 86.9219 87.0086C90.6571 83.738 94.4929 80.5929 98.2283 77.3476C102.691 73.4984 107.003 69.5236 110.938 65.1467C113.996 61.7509 116.903 58.2045 119.183 54.206C121.062 50.8864 122.59 47.3909 123.691 43.7199C124.542 40.8537 125.067 37.9373 125.366 34.9958C125.366 34.8449 125.416 34.7192 125.441 34.5935C125.44 33.2613 125.439 32.1049 125.438 30.8983Z" fill="#DCDCDC" fill-opacity="0.7"/>
</svg>
