<svg width="10" height="10" viewBox="0 0 10 10" fill="none" xmlns="http://www.w3.org/2000/svg">
<path fill-rule="evenodd" clip-rule="evenodd" d="M5.41777 1.75566C5.52331 1.75061 5.56613 1.64338 5.62716 1.60056C5.66661 1.57089 5.73776 1.58066 5.78227 1.54796C5.80857 1.52975 5.81026 1.46029 5.83521 1.44377C5.87297 1.41578 5.94715 1.42421 5.992 1.39116C6.01324 1.37464 6.02167 1.30046 6.04291 1.28731C6.06281 1.27551 6.13362 1.30383 6.14711 1.28731C6.15183 1.28225 6.14036 1.23774 6.14711 1.23606C6.16666 1.22628 6.2395 1.25089 6.25096 1.23606C6.25737 1.22763 6.24422 1.18818 6.25096 1.18312C6.39629 1.09916 6.54802 1.05296 6.72134 0.975411C6.74595 0.963947 6.8053 0.876278 6.82519 0.869872C6.87139 0.856721 6.93579 0.88808 6.98198 0.869872C7.00188 0.863128 6.9803 0.821991 7.03324 0.818619C7.1172 0.813561 7.12225 0.777482 7.18969 0.767366C7.6685 0.688464 8.04311 0.790632 8.38772 0.922473C8.40593 0.929217 8.48011 0.909323 8.49191 0.922473C8.49663 0.929217 8.48517 0.97204 8.49191 0.975411C8.51147 0.983504 8.5843 0.958889 8.59577 0.975411C8.60082 0.980469 8.58902 1.02498 8.59577 1.02666C8.66657 1.05937 8.73772 1.03813 8.8055 1.07927C8.83989 1.10085 8.91576 1.19661 8.9606 1.23606C9.07086 1.32676 9.15853 1.41106 9.27385 1.54796C9.32004 1.60393 9.41109 1.67002 9.43064 1.70441C9.44076 1.72262 9.41412 1.79512 9.43064 1.8086C9.52135 1.88447 9.63532 2.35451 9.63869 2.59054C9.64037 2.81309 9.56113 3.13645 9.4819 3.3708C9.44885 3.46959 9.41581 3.59671 9.37804 3.68236C9.3632 3.71877 9.28869 3.75856 9.27385 3.78823C9.21956 3.88703 9.23946 3.96795 9.17 4.0998C9.15179 4.13453 9.08098 4.17566 9.06446 4.20365C9.0331 4.26333 9.04288 4.30784 9.0132 4.36044C8.96701 4.43968 8.9225 4.50746 8.85641 4.62109C8.8119 4.69864 8.76908 4.77114 8.7013 4.88173C8.67838 4.91646 8.61735 4.95288 8.59577 4.98559C8.44572 5.21184 8.27072 5.51194 8.07582 5.76786C8.01176 5.85014 7.93083 5.89633 7.86643 5.97557C7.79865 6.05953 7.77741 6.15698 7.70964 6.23622C7.59904 6.36806 7.43752 6.49855 7.29388 6.65197C7.03964 6.92577 6.75438 7.26397 6.46035 7.53776C6.31536 7.67298 6.14711 7.77211 5.992 7.90226C5.91445 7.96835 5.86825 8.04253 5.78227 8.11031C5.74417 8.14167 5.71315 8.18955 5.67841 8.21585C5.63863 8.24552 5.56782 8.23406 5.52162 8.2671C5.4407 8.32982 5.39619 8.41546 5.31358 8.4765C5.2394 8.5291 5.14195 8.57394 5.05293 8.6316C4.89445 8.73714 4.73125 8.82953 4.53299 8.94485C4.50028 8.96306 4.45712 9.03252 4.42745 9.04904C4.32865 9.10164 4.24773 9.08175 4.11555 9.15289C4.0825 9.16942 4.038 9.2436 4.01169 9.25675C3.92099 9.30126 3.80365 9.31272 3.69811 9.3606C3.66844 9.37544 3.62056 9.45468 3.59426 9.46479C3.56627 9.47794 3.52007 9.45805 3.4904 9.46479C3.39464 9.48941 2.99035 9.7187 2.81198 9.72544C2.69666 9.73016 2.68317 9.68565 2.60427 9.67419C2.48862 9.65598 2.43568 9.64452 2.34329 9.62125C2.13389 9.56865 1.82368 9.36903 1.71814 9.09996C1.68982 8.92023 1.88977 8.9435 1.97879 8.89225C2.01183 8.87404 2.05466 8.80323 2.08433 8.78839C2.18346 8.73377 2.26405 8.75535 2.39623 8.6842C2.42759 8.66633 2.47209 8.5935 2.50008 8.58035C2.6009 8.5291 2.72937 8.52269 2.81198 8.4765C2.85008 8.45492 2.86829 8.39894 2.91752 8.37096C2.95731 8.34769 3.02643 8.34938 3.07263 8.3197C3.14546 8.27351 3.2048 8.16628 3.28236 8.11031C3.3616 8.054 3.46714 8.01118 3.543 7.9552C3.63371 7.88574 3.66675 7.81493 3.75105 7.74581C3.83197 7.68141 3.93414 7.65645 4.01169 7.5907C4.0825 7.52799 4.14522 7.44706 4.21974 7.38097C4.505 7.13044 4.7643 6.84821 5.05293 6.54812C5.18983 6.40785 5.33853 6.27904 5.47037 6.13236C5.53646 6.05818 5.61233 5.9985 5.67841 5.92263C5.74585 5.84677 5.77249 5.73785 5.83521 5.66367C5.90096 5.58309 5.9802 5.53352 6.04291 5.45428C6.07427 5.41618 6.12215 5.38482 6.14711 5.35043C6.17846 5.31064 6.16666 5.23814 6.19971 5.19363C6.26074 5.11439 6.34335 5.07157 6.40775 4.98559C6.47047 4.90331 6.50183 4.81092 6.56454 4.72494C6.58747 4.69392 6.6485 4.65076 6.6684 4.62109C6.71797 4.54185 6.74595 4.4562 6.82519 4.36044C6.87948 4.29469 6.91421 4.20871 6.98198 4.0998C7.00323 4.06506 7.06594 4.0273 7.08584 3.99594C7.11382 3.94975 7.10742 3.89681 7.13709 3.83915C7.15698 3.80442 7.22442 3.76665 7.24094 3.7353C7.27567 3.67932 7.26252 3.62976 7.29388 3.5785C7.31378 3.54546 7.38121 3.50601 7.39774 3.47465C7.43078 3.41868 7.421 3.3708 7.45068 3.31954C7.50159 3.23052 7.51811 3.25345 7.55453 3.11015C7.56599 3.06058 7.61725 2.98977 7.65838 2.9021C7.6685 2.88086 7.69986 2.89738 7.70964 2.8495C7.71773 2.81983 7.69817 2.77532 7.70964 2.74565C7.72279 2.71564 7.8054 2.66472 7.81518 2.64146C7.89273 2.43544 7.9224 2.17951 7.97028 1.96506C7.94904 1.88751 7.90419 1.98495 7.81518 1.96506C7.73425 2.06925 7.6041 2.10533 7.50159 2.1731C7.4736 2.193 7.51002 2.22267 7.45068 2.22436C7.39133 2.22739 7.31378 2.32652 7.24094 2.38081C7.06763 2.51467 6.88116 2.6482 6.72134 2.79825C6.39123 3.10509 6.10395 3.47128 5.83521 3.83915C5.80553 3.88062 5.68314 3.97436 5.67841 4.04888C5.67504 4.118 5.5776 4.12947 5.57422 4.20365C5.57288 4.22186 5.53477 4.28963 5.52162 4.30953C5.49667 4.34729 5.43564 4.38371 5.41777 4.41338C5.37967 4.48082 5.4026 4.54859 5.36652 4.62109C5.34999 4.65413 5.27581 4.69696 5.26098 4.72494C5.22625 4.79777 5.24749 4.86049 5.20972 4.93299C5.1932 4.96435 5.11733 5.01223 5.10587 5.03684C5.06945 5.11439 5.0826 5.16396 5.05293 5.24657C5.04956 5.25804 5.01179 5.25972 4.99999 5.29749C4.96391 5.44754 4.90929 5.55645 4.84489 5.71493C4.76093 5.92263 4.71473 6.17687 4.53299 6.34007C4.35327 6.42268 4.19647 6.3748 4.01169 6.34007C3.893 6.31714 3.7642 6.28241 3.64686 6.23622C3.50524 6.18025 3.19975 5.98704 3.07263 5.81878C3.00182 5.72302 2.91921 5.57971 2.96877 5.29749C2.97046 5.29243 3.01834 5.28771 3.02171 5.24657C3.02171 5.22668 3.00856 5.10124 3.02171 5.08978C3.08746 5.03515 3.0497 4.98424 3.07263 4.88173C3.08915 4.81093 3.10567 4.78125 3.12556 4.62109C3.12725 4.60625 3.1141 4.52533 3.12556 4.51723C3.12894 4.51386 3.17682 4.52061 3.1785 4.51723C3.25437 4.12947 3.32181 3.73361 3.33361 3.3708C3.25437 3.40215 3.25774 3.46487 3.22942 3.5785C3.21458 3.63785 3.12556 3.80442 3.07263 3.94469C2.86492 4.50577 2.69666 5.21016 2.55133 5.92263C2.51492 6.1091 2.48052 6.2379 2.44748 6.44393C2.44242 6.47697 2.45557 6.51507 2.44748 6.54812C2.43264 6.60915 2.40769 6.64691 2.39623 6.80876C2.39286 6.84181 2.40432 6.88126 2.39623 6.91262C2.38308 6.9669 2.3153 7.17495 2.29237 7.33006C2.21785 7.81493 2.23438 8.30318 2.03139 8.73546C1.7957 8.76007 1.49863 8.66465 1.30205 8.52775C1.2825 8.51426 1.26597 8.4303 1.24945 8.42356C1.22956 8.41378 1.1601 8.44008 1.14526 8.42356C1.11727 8.39388 1.11255 8.30149 1.09266 8.2671C1.07782 8.24046 1.04478 8.27351 1.04141 8.21585C1.03803 8.15313 0.911251 8.0078 0.884613 7.90226C0.851569 7.76705 0.873149 7.72086 0.833361 7.53776C0.823582 7.49494 0.787166 7.48651 0.780759 7.43391C0.747715 7.16011 0.767609 6.79696 0.780759 6.44393C0.798967 5.98063 0.833361 5.52846 0.884613 5.03684C0.89945 4.89994 0.917658 4.75495 0.937552 4.62109C0.937552 4.61772 0.987118 4.60794 0.990153 4.56849C1.00836 4.21376 1.10244 3.73698 1.1982 3.3708C1.22618 3.2602 1.26597 3.11352 1.30205 3.00629C1.3088 2.98809 1.35162 3.00629 1.3533 2.95504C1.35499 2.94021 1.34825 2.91525 1.3533 2.9021C1.37961 2.83804 1.43929 2.6482 1.5101 2.5376C1.54314 2.48635 1.54314 2.45668 1.56304 2.38081C1.57922 2.31 1.70634 2.09386 1.77074 1.96506C1.82368 1.85783 1.8746 1.7442 1.92754 1.65181C1.94406 1.62382 1.9771 1.65822 1.97879 1.60056C1.98047 1.58404 2.01824 1.51491 2.03139 1.49502C2.05803 1.45388 2.114 1.42589 2.13558 1.39116C2.14705 1.37296 2.11906 1.30046 2.13558 1.28731C2.1521 1.27382 2.22966 1.25089 2.23943 1.23606C2.27417 1.18008 2.25427 1.12546 2.29237 1.07927C2.35981 0.996992 2.49536 0.920787 2.60427 0.818619C2.67508 0.75253 2.70475 0.678349 2.81198 0.610911C2.87975 0.567751 3.17176 0.402866 3.33361 0.402866C3.58414 0.40118 3.88963 0.462211 4.06295 0.50672C4.09431 0.513464 4.13881 0.49357 4.1668 0.50672C4.19816 0.518522 4.24773 0.600796 4.27234 0.610911C4.30201 0.622376 4.34517 0.602482 4.37653 0.610911C4.37485 0.609225 4.52827 0.657106 4.53299 0.661827C4.55794 0.693185 4.67663 0.815247 4.74103 0.818619C4.82836 0.823677 4.84657 0.968668 4.94908 0.975411C5.03978 0.980469 5.02832 1.0877 5.10587 1.18312C5.16859 1.26236 5.22793 1.27888 5.26098 1.33991C5.32841 1.4586 5.35977 1.58404 5.41777 1.75566Z" fill="#141414"/>
</svg>
