<svg width="52" height="46" viewBox="0 0 52 46" fill="none" xmlns="http://www.w3.org/2000/svg">
<path d="M51.8701 12.7767C51.818 12.4129 51.7659 12.0387 51.724 11.6749C51.4948 10.1262 50.9753 8.67123 50.2275 7.2996C48.9812 5.03436 47.2581 3.19567 45.0788 1.81459C43.9996 1.12932 42.7962 0.71436 41.5513 0.434546C40.0159 0.102972 38.4702 -0.05196 36.8833 0.0322829C35.5142 0.116377 34.2178 0.449889 32.9527 0.949693C31.1588 1.66825 29.5517 2.68798 28.1731 4.06106C27.5097 4.71644 26.9293 5.44449 26.3385 6.16221C25.7686 6.85905 25.2712 7.59736 24.7427 8.29417C24.6909 8.34628 24.6598 8.40858 24.5975 8.48146C24.4523 8.29437 24.3173 8.12815 24.1928 7.9828C23.1753 6.68408 22.0957 5.42703 20.9228 4.26353C19.9575 3.29752 18.961 2.36261 17.7781 1.67741C17.031 1.24126 16.2113 0.940397 15.3814 0.712256C13.9186 0.276717 12.404 0.101003 10.8689 0.133253C8.86704 0.186582 6.93803 0.603684 5.14419 1.48855C4.24206 1.92571 3.46461 2.56041 2.71821 3.22617C1.73341 4.13124 0.956117 5.16084 0.500679 6.42938C0.221084 7.20917 0.0349255 8.0201 0.0147735 8.85168C-0.00551377 9.48574 0.0156419 10.1199 0.0472154 10.7539C0.0678903 10.6915 0.0989799 10.6188 0.109355 10.5564C0.59574 9.00727 1.37278 7.61372 2.41953 6.38643C3.15537 5.52316 3.96398 4.75333 4.92814 4.12905C6.2967 3.25492 7.77962 2.70289 9.37693 2.52516C12.8204 2.10702 15.9016 3.01963 18.6518 5.13829C20.2812 6.40539 21.5684 7.97416 22.6691 9.70936C23.2817 10.6756 23.884 11.642 24.4863 12.5979C24.5382 12.6603 24.5902 12.733 24.6524 12.8265C24.7042 12.7433 24.756 12.6912 24.7871 12.6289C25.502 11.4434 26.2169 10.2578 26.9525 9.09314C28.6208 6.4724 30.7976 4.41276 33.6804 3.19453C35.2151 2.53867 36.8122 2.30886 38.4615 2.32849C40.1316 2.35855 41.7395 2.67963 43.2751 3.34395C45.0597 4.12233 46.5024 5.30641 47.6029 6.91682C48.7555 8.60003 49.3687 10.4914 49.6086 12.5079C49.7443 13.6929 49.6725 14.8468 49.4658 16.0111C49.1868 17.529 48.7315 18.995 48.0581 20.3988C47.3434 21.8649 46.4316 23.2169 45.3641 24.4754C43.8717 26.2436 42.1197 27.7313 40.3262 29.1878C38.481 30.6756 36.5941 32.1322 34.7488 33.6304C32.9657 35.066 31.3071 36.6368 29.8874 38.4361C28.3743 40.3914 27.2452 42.544 26.749 44.9975C26.6973 45.2782 26.6352 45.5694 26.5836 45.8501C26.5836 45.8811 26.5836 45.902 26.6355 45.9643C26.6666 45.9123 26.6873 45.8603 26.7184 45.8188C27.6305 44.6538 28.5528 43.4786 29.4855 42.3241C30.5012 41.0865 31.6103 39.9319 32.7817 38.8499C33.8286 37.8825 34.8755 36.915 35.9433 35.9788C37.4878 34.6264 39.0739 33.3259 40.6186 31.9839C42.4638 30.3922 44.2468 28.7486 45.874 26.9387C47.1385 25.5345 48.3408 24.0681 49.2835 22.4146C50.0606 21.042 50.6923 19.5965 51.1476 18.0785C51.4995 16.8934 51.7165 15.6874 51.8401 14.471C51.8401 14.4086 51.8607 14.3567 51.8711 14.3047C51.8707 13.7538 51.8704 13.2756 51.8701 12.7767Z" fill="#DCDCDC"/>
</svg>
