<svg width="126" height="112" viewBox="0 0 126 112" fill="none" xmlns="http://www.w3.org/2000/svg">
<path d="M125.439 30.8983C125.313 30.0185 125.187 29.1135 125.086 28.2338C124.532 24.4884 123.275 20.9699 121.467 17.6529C118.453 12.1748 114.286 7.72818 109.016 4.38827C106.406 2.73106 103.495 1.72756 100.485 1.05087C96.7718 0.24902 93.0338 -0.125656 89.1961 0.0780708C85.8851 0.281437 82.7501 1.08798 79.6907 2.29667C75.3523 4.03437 71.466 6.50043 68.132 9.82099C66.5277 11.4059 65.1241 13.1666 63.6954 14.9023C62.3171 16.5875 61.1143 18.3729 59.8361 20.058C59.7108 20.1841 59.6356 20.3347 59.4851 20.511C59.1338 20.0585 58.8074 19.6566 58.5062 19.305C56.0457 16.1643 53.4349 13.1244 50.5983 10.3106C48.264 7.97449 45.8542 5.71357 42.9935 4.05653C41.1866 3.00178 39.2045 2.27419 37.1975 1.72247C33.6598 0.669193 29.9971 0.244259 26.2847 0.322249C21.4436 0.451216 16.7786 1.45991 12.4405 3.5998C10.2588 4.657 8.37871 6.19191 6.57367 7.80194C4.19208 9.9907 2.31234 12.4806 1.21094 15.5484C0.534782 17.4342 0.0845869 19.3953 0.0358541 21.4063C-0.0132058 22.9397 0.0379542 24.4733 0.114306 26.0065C0.164313 25.8556 0.239495 25.6797 0.264583 25.5288C1.44083 21.7826 3.31997 18.4125 5.85135 15.4445C7.63087 13.3568 9.58634 11.4951 11.918 9.98541C15.2276 7.87146 18.8138 6.53648 22.6766 6.10667C31.004 5.09547 38.4554 7.30246 45.1063 12.4261C49.0468 15.4904 52.1598 19.2841 54.8215 23.4804C56.3031 25.8172 57.7595 28.1542 59.2162 30.466C59.3417 30.6168 59.4672 30.7926 59.6177 31.0188C59.743 30.8176 59.8683 30.6916 59.9435 30.5409C61.6724 27.6739 63.4013 24.8068 65.1803 21.9902C69.2146 15.6524 74.479 10.6715 81.4505 7.72543C85.1619 6.13933 89.0243 5.58359 93.0129 5.63107C97.0515 5.70375 100.94 6.48024 104.654 8.08677C108.969 9.96916 112.458 12.8326 115.12 16.7272C117.907 20.7977 119.39 25.3718 119.97 30.2482C120.298 33.1139 120.125 35.9044 119.625 38.7202C118.95 42.3909 117.849 45.9363 116.221 49.3311C114.492 52.8766 112.287 56.1462 109.705 59.1897C106.096 63.4658 101.859 67.0635 97.5223 70.5858C93.0598 74.1837 88.4968 77.7062 84.0343 81.3293C79.722 84.8012 75.7112 88.5999 72.2777 92.9512C68.6185 97.6797 65.8879 102.885 64.688 108.819C64.5631 109.498 64.4129 110.202 64.288 110.881C64.288 110.956 64.2881 111.006 64.4136 111.157C64.4888 111.031 64.5388 110.905 64.6141 110.805C66.8197 107.988 69.0502 105.146 71.3057 102.354C73.7621 99.3607 76.4442 96.5684 79.277 93.9519C81.8088 91.6124 84.3406 89.2727 86.9229 87.0086C90.6581 83.738 94.4938 80.5929 98.2293 77.3476C102.692 73.4984 107.004 69.5236 110.939 65.1467C113.997 61.7509 116.904 58.2045 119.184 54.206C121.063 50.8864 122.591 47.3909 123.692 43.7199C124.543 40.8537 125.068 37.9373 125.367 34.9958C125.367 34.8449 125.417 34.7192 125.442 34.5935C125.441 33.2613 125.44 32.1049 125.439 30.8983Z" fill="#DCDCDC" fill-opacity="0.7"/>
</svg>
