<svg width="10" height="14" viewBox="0 0 10 14" fill="none" xmlns="http://www.w3.org/2000/svg">
<path fill-rule="evenodd" clip-rule="evenodd" d="M4.73715 1.61348C4.94823 1.60033 5.08681 1.44691 5.25844 1.35284C5.34105 1.30833 5.44019 1.29012 5.51943 1.24898C5.55382 1.23078 5.59361 1.16132 5.62328 1.14479C5.64318 1.13333 5.71398 1.15963 5.72714 1.14479C5.76355 1.10197 5.76692 1.10871 5.83099 1.09219C5.87718 1.08073 5.92203 1.05746 5.98778 1.03925C6.04072 1.0261 6.10344 0.971816 6.19583 0.9354C6.21572 0.928656 6.2899 0.950236 6.30137 0.9354C6.30474 0.932028 6.29665 0.884147 6.30137 0.884147C6.42174 0.849754 6.59169 0.852789 6.71712 0.831546C7.06712 0.770515 7.30315 0.780293 7.70744 0.884147C7.8757 0.927307 8.08206 0.971816 8.22873 1.03925C8.26346 1.05578 8.30291 1.12692 8.33259 1.14479C8.35248 1.15491 8.42363 1.12827 8.43678 1.14479C8.44318 1.15154 8.43003 1.19099 8.43678 1.19605C8.45667 1.20751 8.52748 1.17952 8.54063 1.19605C8.59998 1.26686 8.64786 1.32957 8.75036 1.40375C8.78644 1.43208 8.96144 1.55077 9.01101 1.61348C9.02416 1.63169 8.9928 1.7025 9.01101 1.71734C9.08013 1.77331 9.1034 1.80804 9.16612 1.92505C9.18904 1.96989 9.18904 2.02755 9.21872 2.08184C9.2322 2.10679 9.31616 2.16614 9.32291 2.18603C9.34584 2.25347 9.35258 2.37722 9.37551 2.49759C9.41193 2.69721 9.47296 3.06339 9.42676 3.38338C9.42508 3.39991 9.43823 3.47915 9.42676 3.48758C9.34246 3.55839 9.36742 3.97414 9.32291 4.16532C9.32122 4.17544 9.27334 4.17207 9.26997 4.21658C9.26997 4.23141 9.27671 4.25636 9.26997 4.26952C9.22883 4.37505 9.16106 4.68662 9.06226 4.84172C9.02585 4.89972 8.97965 5.09259 8.90547 5.20656C8.88895 5.23286 8.7534 5.43585 8.75036 5.51981C8.74699 5.56432 8.69068 5.65839 8.64449 5.72785C8.62796 5.75415 8.49444 5.95714 8.48938 6.03941C8.48634 6.08561 8.43003 6.178 8.38384 6.24915C8.37069 6.27039 8.33764 6.29197 8.33259 6.30006C8.29482 6.36952 8.31944 6.43865 8.28167 6.50979C8.26852 6.53103 8.18422 6.5425 8.17613 6.56071C8.12994 6.66625 8.13972 6.72087 8.07194 6.82135C8.0507 6.8544 7.98629 6.89553 7.96809 6.92554C7.95662 6.9451 7.98461 7.01625 7.96809 7.0294C7.95494 7.04086 7.87064 7.06885 7.86423 7.082C7.82613 7.14978 7.85075 7.22227 7.81129 7.29005C7.79646 7.31803 7.76341 7.2833 7.76004 7.34265C7.75701 7.41211 7.65956 7.42357 7.65619 7.49944C7.65113 7.5689 7.55537 7.58036 7.55065 7.65455C7.54728 7.72367 7.45151 7.73716 7.44646 7.81134C7.44342 7.88046 7.34766 7.89226 7.3426 7.96813C7.3426 7.98297 7.30315 8.05378 7.29 8.07198C7.26674 8.10671 7.20908 8.14448 7.18581 8.17584C7.16457 8.21057 7.15782 8.24361 7.13489 8.27969C7.09848 8.33735 7.06712 8.37714 7.0307 8.43648C6.72892 8.90821 6.26832 9.47266 5.88393 9.94776C5.84448 9.99699 5.82121 10.0533 5.78007 10.1025C5.76692 10.1191 5.68263 10.1406 5.67588 10.1555C5.66442 10.1784 5.6924 10.2411 5.67588 10.2593C5.56697 10.3848 5.43176 10.4623 5.31138 10.6238C5.03421 10.9951 4.56552 11.4159 4.16461 11.7706C4.11841 11.8101 4.05738 11.8333 4.00781 11.8745C3.92857 11.9436 3.86417 12.0478 3.74717 12.1351C3.66287 12.1978 3.55396 12.2538 3.43527 12.3428C3.39885 12.3711 3.36075 12.4271 3.33108 12.447C3.31152 12.4601 3.24037 12.4305 3.22722 12.447C3.21576 12.4618 3.18777 12.5441 3.17428 12.5509C3.10685 12.5886 3.03401 12.564 2.96658 12.6035C2.945 12.6169 2.93185 12.6992 2.91364 12.7076C2.81316 12.7538 2.75685 12.7619 2.65299 12.8115C2.53734 12.8675 2.3856 12.9302 2.28815 12.9683C2.03594 13.0671 1.85925 13.1183 1.55882 13.0209C1.55072 13.0175 1.54398 12.9781 1.5079 12.9683C1.43676 12.9518 1.40202 12.9518 1.35111 12.9154C1.2422 12.8445 0.925241 12.7157 0.933671 12.447C0.913776 12.2919 1.04393 12.3017 1.14306 12.239C1.16936 12.2224 1.37235 12.0872 1.45496 12.0822C1.47486 12.0822 1.53757 12.0427 1.55882 12.0312C1.77361 11.9058 1.93849 11.7639 2.13305 11.6138C2.32794 11.4621 2.5225 11.3201 2.70593 11.1451C2.86104 10.9968 3.01918 10.7971 3.17428 10.6238C3.25352 10.5382 3.35434 10.4606 3.43527 10.3632C3.51282 10.2725 3.5607 10.1487 3.64298 10.0516C3.71716 9.96395 3.82944 9.87999 3.90362 9.79097C4.04389 9.62271 4.15955 9.4231 4.3214 9.21842C4.33286 9.2019 4.41851 9.18066 4.42525 9.16582C4.43672 9.14087 4.40873 9.08152 4.42525 9.06163C4.45998 9.01881 4.549 9.0006 4.58204 8.95778C4.5952 8.93788 4.56384 8.86707 4.58204 8.85392C4.59857 8.83909 4.67443 8.81751 4.6859 8.80098C4.69736 8.78278 4.66938 8.71028 4.6859 8.69713C4.7503 8.64284 4.80796 8.59496 4.89394 8.48942C4.92193 8.45469 4.97622 8.4149 4.9978 8.38355C5.01095 8.36567 4.98128 8.29453 4.9978 8.27969C5.01601 8.26654 5.09019 8.2453 5.10165 8.22878C5.11514 8.20888 5.08513 8.13807 5.10165 8.1229C5.11986 8.10975 5.19404 8.08851 5.20753 8.07198C5.21899 8.05378 5.18932 7.98128 5.20753 7.96813C5.22405 7.95329 5.29992 7.9334 5.31138 7.91519C5.32285 7.89698 5.29317 7.82449 5.31138 7.81134C5.3279 7.79819 5.40377 7.77661 5.41524 7.7584C5.4267 7.74019 5.39871 7.66938 5.41524 7.65455C5.42839 7.64308 5.511 7.61644 5.51943 7.60329C5.55551 7.53586 5.52921 7.45999 5.57203 7.3939C5.58349 7.374 5.66779 7.35917 5.67588 7.34265C5.68768 7.31635 5.65936 7.26037 5.67588 7.23879C5.70589 7.19766 5.74872 7.18619 5.78007 7.13494C5.83267 7.05064 5.86572 6.9832 5.93687 6.87429C5.97295 6.81663 6.00262 6.77516 6.04072 6.7175C6.07714 6.65815 6.09838 6.60859 6.14457 6.56071C6.153 6.55093 6.29665 6.31996 6.30137 6.24915C6.30474 6.17969 6.4005 6.16653 6.40522 6.09235C6.40691 6.0674 6.44332 6.01649 6.45647 5.9885C6.48142 5.93556 6.55729 5.86138 6.56066 5.78045C6.56538 5.70122 6.66452 5.61726 6.71712 5.51981C6.73701 5.48508 6.74713 5.45068 6.77006 5.41595C6.78152 5.39775 6.81962 5.36807 6.823 5.36302C6.85739 5.29052 6.83615 5.2278 6.87391 5.15531C6.88706 5.12901 6.92348 5.16037 6.92685 5.10237C6.92854 5.05617 6.9862 4.96379 7.0307 4.89466C7.04251 4.87477 7.07858 4.84847 7.08196 4.84172C7.11837 4.77091 7.09679 4.70651 7.13489 4.63402C7.14973 4.60266 7.22728 4.55646 7.23875 4.53016C7.28157 4.43777 7.27651 4.32212 7.3426 4.21658C7.38408 4.15386 7.44511 3.94784 7.4994 3.80082C7.50782 3.77958 7.54896 3.80251 7.55065 3.74822C7.55233 3.73507 7.54559 3.70843 7.55065 3.69697C7.58369 3.61436 7.65113 3.38844 7.70744 3.22693C7.74689 3.11127 7.73206 3.06036 7.76004 2.86209C7.76173 2.84726 7.74858 2.76835 7.76004 2.75824C7.93167 2.61797 7.73205 2.06532 7.70744 1.82119C7.08196 1.96989 6.49795 2.27808 6.04072 2.65438C5.9399 2.737 5.84751 2.854 5.72714 2.96797C5.61991 3.06845 5.51774 3.15747 5.41524 3.27953C5.37241 3.33078 5.30632 3.37698 5.25844 3.43632C5.21562 3.48926 5.20584 3.57322 5.15459 3.64403C5.11817 3.69528 5.04062 3.73979 4.9978 3.80082C4.98465 3.81903 5.01601 3.88984 4.9978 3.90468C4.92699 3.96267 4.92193 3.95087 4.89394 4.06147C4.87068 4.15049 4.74356 4.37674 4.6859 4.53016C4.6215 4.7001 4.6397 4.90781 4.4765 5.05145C4.19259 5.14688 3.8608 5.05449 3.59206 4.94591C3.57217 4.93917 3.49933 4.96075 3.48787 4.94591C3.48315 4.94086 3.49461 4.89803 3.48787 4.89466C3.36075 4.83869 3.19418 4.78575 3.07043 4.68527C2.9831 4.61412 2.84283 4.46239 2.80978 4.37337C2.72717 4.14914 2.80001 3.7961 2.80978 3.48758C2.81956 3.17568 2.79495 2.86209 2.86239 2.55053C2.70593 2.53064 2.71571 2.65944 2.65299 2.75824C2.62332 2.8078 2.54745 2.99764 2.49789 3.12274C2.32289 3.56007 2.15969 4.22501 2.08045 4.84172C2.01436 5.3647 2.00458 5.85632 1.97626 6.50979C1.95164 7.06716 1.94996 7.67613 1.97626 8.33263C1.99143 8.7005 1.99143 9.07478 2.02751 9.42647C2.02751 9.42478 2.07876 9.44265 2.08045 9.47738C2.08517 9.57314 2.04066 9.71342 2.08045 9.84188C2.09528 9.88976 2.12327 10.0334 2.13305 10.2084C2.13473 10.2546 2.1199 10.3204 2.13305 10.3632C2.19914 10.5827 2.22072 11.16 2.13305 11.51C0.984586 11.6435 0.86421 10.5166 0.672687 9.58292C0.671001 9.57483 0.624806 9.57314 0.621772 9.53032C0.613342 9.36847 0.598506 9.29935 0.568833 9.11288C0.547253 8.96621 0.539161 8.79626 0.517581 8.64419C0.515895 8.64284 0.468351 8.63273 0.464979 8.59328C0.461607 8.52382 0.474758 8.45132 0.464979 8.38355C0.445085 8.22709 0.436993 8.10671 0.413727 7.86394C0.402262 7.75671 0.369218 7.72704 0.360788 7.65455C0.324709 7.3096 0.332802 6.96837 0.309873 6.61365C0.309873 6.6187 0.25862 6.59375 0.256934 6.56071C0.227262 5.99019 0.22389 5.12395 0.256934 4.47722C0.268399 4.22804 0.298071 3.8686 0.360788 3.64403C0.365846 3.62616 0.347638 3.55029 0.360788 3.54018C0.435307 3.47915 0.433621 3.23502 0.464979 3.07182C0.468351 3.0553 0.453515 2.97606 0.464979 2.96797C0.522638 2.92009 0.568833 2.68743 0.621772 2.55053C0.628178 2.53232 0.608621 2.45814 0.621772 2.44668C0.626492 2.44162 0.671001 2.4514 0.672687 2.44668C0.725626 2.30303 0.722254 2.19412 0.778564 2.02924C0.784971 2.01103 0.827794 2.02924 0.82948 1.97799C0.834537 1.90212 0.928613 1.86402 0.933671 1.76859C0.938391 1.68935 1.08541 1.51098 1.09046 1.40375C1.09518 1.32148 1.18926 1.23718 1.24692 1.14479C1.28165 1.08713 1.29648 1.02105 1.35111 0.9354C1.36932 0.907413 1.40068 0.943492 1.40371 0.884147C1.40708 0.803559 1.54735 0.757365 1.61176 0.674753C1.62659 0.656545 1.59355 0.585736 1.61176 0.5709C1.68256 0.51324 1.75708 0.47851 1.8724 0.414107C1.8987 0.399271 1.866 0.366226 1.92365 0.362855C1.99278 0.35982 2.08382 0.239107 2.1843 0.206399C2.21397 0.196284 2.25848 0.207748 2.28815 0.206399C2.38054 0.199655 2.39875 0.150089 2.49789 0.155147C2.85429 0.168297 3.16451 0.234386 3.48787 0.362855C3.48787 0.362855 3.68917 0.407363 3.69591 0.414107C3.73705 0.46536 3.74211 0.481882 3.79977 0.519647C3.81798 0.529425 3.94172 0.554377 3.95656 0.5709C3.99129 0.613722 4.01591 0.722634 4.11335 0.727692C4.12313 0.727692 4.20574 0.768829 4.21721 0.780293C4.46302 0.996431 4.58036 1.22066 4.73715 1.61348Z" fill="#141414"/>
</svg>
