<svg width="11" height="9" viewBox="0 0 11 9" fill="none" xmlns="http://www.w3.org/2000/svg">
<path fill-rule="evenodd" clip-rule="evenodd" d="M8.44154 5.13544C7.84573 5.1668 7.32107 5.31044 6.87733 5.44734C6.51923 5.56097 6.23195 5.70124 5.83609 5.65673C5.66278 5.63684 5.41191 5.52624 5.21061 5.39608C5.1199 5.33674 5.00088 5.29223 4.94996 5.23929C4.90849 5.19816 4.93007 5.13712 4.89871 5.08419C4.85926 5.02012 4.79654 5.04811 4.79317 4.92773C4.7898 4.69001 5.29625 4.28741 5.41865 4.14579C5.51576 4.03351 5.57848 3.96405 5.62805 3.88481C5.72549 3.72667 5.91196 3.60798 5.99288 3.52031C6.02896 3.48086 6.00907 3.40836 6.0438 3.36352C6.10011 3.29608 6.15102 3.26978 6.20059 3.20875C6.29635 3.08972 6.35098 2.9744 6.40864 2.89516C6.43325 2.86212 6.48956 2.82907 6.51249 2.79131C6.56037 2.71713 6.56711 2.62136 6.61634 2.53066C6.62815 2.51077 6.7057 2.4993 6.72222 2.47941C6.74684 2.44468 6.7583 2.35229 6.77314 2.32262C6.89385 2.07512 7.02063 1.68263 7.03412 1.43682C6.90194 1.42704 6.88036 1.50932 6.82607 1.54068C6.8163 1.54742 6.78494 1.54068 6.77314 1.54068C6.71379 1.54405 6.74852 1.57878 6.72222 1.59362C6.67265 1.61992 6.61634 1.61182 6.56543 1.64487C6.54216 1.6597 6.53744 1.7322 6.51249 1.75041C6.46967 1.78177 6.39549 1.77502 6.35738 1.80132C6.33277 1.81785 6.3294 1.88731 6.30444 1.90551C6.26162 1.93822 6.18744 1.93013 6.14799 1.95812C6.13956 1.96317 6.1544 2.00262 6.14799 2.00937C6.1345 2.02758 6.06369 1.9979 6.0438 2.00937C5.96793 2.06366 5.92848 2.181 5.88701 2.21876C5.84924 2.25518 5.77337 2.23528 5.7319 2.2717C5.66918 2.32262 5.63614 2.42681 5.57511 2.47941C5.43349 2.59978 5.29153 2.66756 5.15767 2.79131C4.96783 2.96934 4.77159 3.202 4.63806 3.36352C4.62795 3.37532 4.64615 3.40668 4.63806 3.41645C4.62323 3.43466 4.54871 3.39993 4.53387 3.41645C4.50116 3.4495 4.51094 3.53852 4.48127 3.57325C4.39057 3.6771 4.27154 3.75128 4.22062 3.83389C4.16094 3.92965 4.10834 3.98057 4.06383 4.0416C4.04056 4.07465 3.98628 4.11106 3.95964 4.14579C3.90367 4.22301 3.86725 4.32046 3.80285 4.40644C3.78498 4.43105 3.71889 4.43274 3.69899 4.45735C3.66763 4.50186 3.67438 4.57604 3.64774 4.61415C3.64133 4.62224 3.60323 4.6074 3.59514 4.61415C3.57862 4.62898 3.60829 4.69979 3.59514 4.718C3.56715 4.75779 3.4778 4.7905 3.44003 4.82354C3.42182 4.83669 3.4515 4.90952 3.44003 4.92773C3.41373 4.96381 3.36417 4.98708 3.33449 5.03158C3.30954 5.06766 3.30785 5.10239 3.28324 5.13544C3.25863 5.16848 3.20231 5.20321 3.17939 5.23929C3.07047 5.40924 2.95482 5.68978 2.8658 5.81184C2.84085 5.84657 2.78488 5.87927 2.76161 5.91738C2.73025 5.96694 2.73531 6.03135 2.70901 6.07248C2.6908 6.10553 2.62471 6.14161 2.60515 6.17802C2.56199 6.2522 2.54716 6.35774 2.50096 6.43867C2.49759 6.44541 2.45645 6.43193 2.44836 6.43867C2.43353 6.45013 2.45983 6.52297 2.44836 6.54252C2.43184 6.57051 2.36407 6.61198 2.34417 6.64638C2.29966 6.72899 2.29157 6.81632 2.24032 6.90702C2.21739 6.94681 2.21402 6.97648 2.18906 7.01122C2.16445 7.04426 2.1051 7.07697 2.08521 7.11507C2.04239 7.19094 2.02249 7.29479 1.97967 7.37572C1.88391 7.55712 1.80636 7.68761 1.71902 7.84407C1.66777 7.93646 1.59663 8.00086 1.56392 8.10472C2.75858 8.15428 4.21388 7.9894 5.26186 7.89532C5.35593 7.88723 5.41697 7.85081 5.47125 7.84407C5.80945 7.79653 6.12135 7.78978 6.40864 7.74022C6.65276 7.69739 6.97612 7.59522 7.19058 7.58342C7.23677 7.58207 7.23205 7.53419 7.24183 7.53251C7.41177 7.49272 7.46471 7.48631 7.60667 7.47957C7.65455 7.47788 7.64612 7.43 7.65927 7.42697C7.81134 7.38718 7.93643 7.37066 8.0767 7.32278C8.20888 7.27658 8.27497 7.24388 8.33769 7.21892C8.47122 7.16464 8.59834 7.12653 8.64959 7.06213C8.66105 7.04729 8.73355 7.07225 8.75344 7.06213C8.75985 7.0591 8.74838 7.01762 8.75344 7.01122C8.76659 6.99301 8.83909 7.02437 8.8573 7.01122C8.87045 7.00279 8.97126 6.89725 9.01409 6.85442C9.10479 6.76372 9.32261 6.55433 9.32599 6.48992C9.32936 6.43193 9.36712 6.46328 9.37893 6.43867C9.42512 6.34122 9.42512 6.29199 9.43153 6.17802C9.43321 6.13857 9.48278 6.12846 9.48278 6.12508C9.52729 5.83645 9.48952 5.45037 9.32599 5.18838C9.03567 5.10408 8.72546 5.1206 8.44154 5.13544ZM7.76346 4.14579C8.11144 4.13905 8.49448 4.18018 8.8573 4.24965C9.006 4.27932 9.11491 4.3272 9.22213 4.3535C9.32599 4.3798 9.37724 4.43274 9.48278 4.45735C9.56033 4.47725 9.61799 4.47556 9.69082 4.51029C9.7269 4.52681 9.76669 4.59762 9.79636 4.61415C9.81457 4.62561 9.88707 4.59931 9.90022 4.61415C9.92517 4.6455 10.0439 4.76757 10.1083 4.77094C10.1693 4.77431 10.552 5.17185 10.6296 5.29223C10.641 5.30875 10.6643 5.43419 10.6808 5.44734C10.7533 5.50837 10.783 5.66651 10.8376 5.86444C10.841 5.87927 10.8872 5.86781 10.8902 5.91738C10.902 6.13992 10.9482 6.28862 10.8902 6.59378C10.869 6.701 10.869 6.80991 10.8376 6.90702C10.8325 6.92355 10.788 6.90702 10.7863 6.95828C10.7813 7.04561 10.7567 7.01594 10.7334 7.06213C10.699 7.12991 10.6859 7.23376 10.6296 7.32278C10.613 7.34773 10.585 7.36257 10.577 7.37572C10.5503 7.42022 10.4761 7.50924 10.4728 7.58342C10.4711 7.6313 10.2829 7.82923 10.2121 7.89532C10.1841 7.92331 10.1362 7.97962 10.1083 8.00086C10.029 8.05852 9.93326 8.06526 9.84762 8.10472C9.82267 8.11652 9.76163 8.20216 9.74343 8.20891C9.61968 8.24667 9.58023 8.21059 9.43153 8.25982C9.41332 8.26657 9.42984 8.30939 9.37893 8.31276C9.1611 8.32423 8.81616 8.4645 8.5454 8.52047C7.66938 8.70525 6.49091 8.81416 5.47125 8.88665C4.61817 8.94634 3.64471 8.93791 2.76161 8.93791C2.31787 8.93791 1.81613 8.98916 1.40713 8.93791C1.02239 8.89003 0.751969 8.73492 0.520995 8.46955C0.479521 8.334 0.588433 8.23521 0.624849 8.10472C0.65958 7.98097 0.646429 7.86059 0.677788 7.74022C0.680823 7.72707 0.727017 7.7355 0.730389 7.68761C0.738819 7.49609 0.824465 7.27186 0.885496 7.06213C0.966421 6.78833 1.03588 6.50948 1.14614 6.22928C1.15289 6.21444 1.18762 6.21916 1.19908 6.17802C1.2237 6.07889 1.19571 6.04281 1.25033 5.91738C1.26348 5.88602 1.34609 5.83645 1.35419 5.81184C1.38892 5.72585 1.38049 5.66988 1.40713 5.60379C1.43511 5.53467 1.48771 5.49185 1.51098 5.39608C1.51907 5.36473 1.49783 5.32022 1.51098 5.29223C1.52582 5.25919 1.60168 5.21468 1.61483 5.18838C1.66103 5.0943 1.67114 4.96718 1.71902 4.87479C1.73858 4.83838 1.80467 4.8023 1.82456 4.77094C1.85087 4.72812 1.92505 4.63573 1.92842 4.56289C1.92842 4.54637 1.96821 4.47725 1.97967 4.45735C2.03092 4.38149 2.07037 4.31236 2.13646 4.19839C2.18097 4.12084 2.22379 4.04834 2.29326 3.93775C2.3145 3.90133 2.37553 3.86525 2.39711 3.83389C2.45308 3.7496 2.49624 3.65417 2.55222 3.57325C2.60819 3.49401 2.70395 3.39015 2.76161 3.3126C2.88704 3.14266 2.9764 3.01891 3.12645 2.84391C3.30617 2.63283 3.51927 2.39848 3.75193 2.16616C3.82105 2.0967 3.86894 2.03567 3.95964 1.95812C4.10665 1.83268 4.25198 1.69106 4.42833 1.54068C4.50251 1.47965 4.55882 1.39906 4.63806 1.33297C4.7055 1.27531 4.82284 1.23721 4.89871 1.17786C4.98132 1.1084 5.03055 1.0295 5.10675 0.968469C5.15767 0.926995 5.20892 0.904066 5.26186 0.864278C5.29794 0.837977 5.33267 0.785376 5.3674 0.760424C5.45473 0.694335 5.54543 0.663314 5.62805 0.603632C5.70054 0.55103 5.76663 0.442118 5.83609 0.395924C5.88532 0.361193 5.945 0.372658 5.99288 0.342985C6.02424 0.323428 6.06875 0.253968 6.09674 0.239131C6.11494 0.229353 6.18744 0.253968 6.20059 0.239131C6.20565 0.232725 6.19418 0.189565 6.20059 0.18653C6.2188 0.1781 6.29298 0.203052 6.30444 0.18653C6.32771 0.158206 6.40695 0.118755 6.51249 0.0823389C6.96803 -0.0727675 7.65455 0.107291 8.0241 0.342985C8.08345 0.381087 8.13302 0.402667 8.1809 0.447176C8.23687 0.501464 8.48942 0.640048 8.5454 0.707823C8.56023 0.725694 8.52719 0.798526 8.5454 0.811677C8.60811 0.862929 8.70725 0.956667 8.75344 1.07232C8.75985 1.09222 8.73861 1.16471 8.75344 1.17786C8.80469 1.21731 8.79458 1.24699 8.80638 1.33297C8.80773 1.34781 8.79458 1.42873 8.80638 1.43682C8.91023 1.52247 8.81279 2.08692 8.75344 2.32262C8.58687 2.98249 8.10166 3.69531 7.76346 4.14579Z" fill="#141414"/>
</svg>
