<svg width="9" height="7" viewBox="0 0 9 7" fill="none" xmlns="http://www.w3.org/2000/svg">
<path fill-rule="evenodd" clip-rule="evenodd" d="M5.00862 2.0304C4.99561 2.05521 5.1016 2.0858 5.12063 2.06701C5.1558 2.03281 5.18422 2.041 5.30683 2.0304C5.63322 1.9998 6.15328 1.9762 6.53387 2.0304C6.6943 2.0528 6.80751 2.1082 6.94409 2.1412C7.0019 2.15638 7.0561 2.13879 7.13029 2.17878C7.15173 2.19058 7.18689 2.24598 7.20472 2.25321C7.22471 2.2626 7.25771 2.24839 7.27891 2.25321C7.31191 2.2614 7.36852 2.2956 7.42753 2.3274C7.4521 2.34041 7.48173 2.39099 7.50172 2.40159C7.54532 2.4252 7.57712 2.4158 7.61373 2.43941C7.66793 2.47458 7.70454 2.54058 7.76332 2.58779C7.79295 2.61381 7.84474 2.60321 7.87412 2.62561C7.88954 2.63741 7.93675 2.68559 7.94855 2.6998C7.96036 2.71281 7.93675 2.7646 7.94855 2.77399C7.96156 2.78459 8.01456 2.7988 8.02395 2.81181C8.04635 2.84481 8.03816 2.88118 8.06056 2.92261C8.07237 2.94381 8.12777 2.98018 8.13475 2.99801C8.14415 3.018 8.12994 3.0498 8.13475 3.0722C8.14535 3.11339 8.20196 3.35138 8.17257 3.51879C8.17257 3.5224 8.13716 3.52602 8.13475 3.5554C8.12994 3.65898 8.09356 3.69319 8.06056 3.77918C8.05575 3.79219 8.07116 3.84518 8.06056 3.85361C8.05575 3.85698 8.02636 3.84879 8.02395 3.85361C8.01696 3.86758 8.03455 3.91961 8.02395 3.9278C8.01913 3.93142 7.98854 3.92299 7.98613 3.9278C7.96277 3.97839 7.97794 4.02801 7.94855 4.07619C7.94036 4.0916 7.88015 4.101 7.87412 4.114C7.86593 4.13279 7.88593 4.17181 7.87412 4.18819C7.86593 4.20241 7.80595 4.213 7.79993 4.22601C7.79174 4.2436 7.81174 4.28479 7.79993 4.3002C7.76814 4.34019 7.69635 4.40378 7.65155 4.44858C7.60771 4.49218 7.54532 4.55698 7.50172 4.59841C7.45331 4.64418 7.40634 4.70199 7.3531 4.74679C7.32251 4.77281 7.27072 4.75739 7.2423 4.78341C7.22712 4.79738 7.21989 4.847 7.20472 4.8576C7.19171 4.86699 7.13992 4.84579 7.13029 4.8576C7.1221 4.8682 7.1021 4.92721 7.09271 4.93299C7.04429 4.95901 6.99371 4.94118 6.94409 4.96961C6.92409 4.98141 6.9489 5.00502 6.90651 5.00718C6.85689 5.00959 6.8487 5.07921 6.79571 5.08162C6.76271 5.08258 6.6967 5.12401 6.64588 5.15581C6.62829 5.16761 6.48208 5.2642 6.42307 5.26782C6.40548 5.26878 6.36887 5.29479 6.34887 5.30419C6.30985 5.32201 6.25686 5.37621 6.20025 5.37958C6.18146 5.37958 6.14726 5.4068 6.12486 5.4162C6.04464 5.4504 5.95166 5.49039 5.86447 5.52821C5.78546 5.56241 5.69103 5.6024 5.60383 5.63901C5.18759 5.81798 4.64538 6.01599 4.15278 6.161C4.05137 6.19038 3.96056 6.20821 3.85457 6.23519C3.84493 6.2376 3.85096 6.2706 3.81796 6.2718C3.58454 6.28481 3.22611 6.40139 2.96091 6.42018C2.6745 6.44138 2.38328 6.40958 2.14288 6.38381C2.06845 6.37538 1.99305 6.39561 1.91886 6.38381C1.91645 6.38381 1.91067 6.3484 1.88225 6.34599C1.83407 6.34358 1.77963 6.35539 1.73266 6.34599C1.72905 6.34599 1.72544 6.31058 1.69605 6.30962C1.59464 6.3036 1.52984 6.26698 1.43542 6.23519C1.38122 6.2164 1.33882 6.22338 1.28704 6.19761C1.26825 6.18822 1.29065 6.1622 1.24922 6.161C1.19984 6.15738 1.1136 6.0738 1.06302 6.01141C1.03243 5.96902 1.0134 5.91241 1.0252 5.82521C1.39543 5.74018 1.68665 5.89579 2.17925 5.86279C2.32209 5.85339 2.49167 5.81678 2.62608 5.7886C2.69811 5.77318 2.78651 5.7674 2.8501 5.75078C2.85829 5.74861 2.85371 5.71561 2.88672 5.71441C2.90069 5.7132 2.99029 5.7238 2.99872 5.71441C3.06473 5.63419 3.44531 5.55061 3.59394 5.49039C3.59514 5.49039 3.73895 5.45859 3.74256 5.45402C3.76713 5.42318 3.77195 5.428 3.81796 5.4162C3.81555 5.4162 3.92635 5.38199 3.92876 5.37958C3.95694 5.34538 3.99597 5.32201 4.04077 5.30419C4.05378 5.29961 4.10677 5.31479 4.11496 5.30419C4.14338 5.27119 4.18216 5.24662 4.22697 5.23C4.23998 5.22518 4.29297 5.2406 4.30116 5.23C4.30477 5.22638 4.29658 5.19459 4.30116 5.19338C4.31417 5.1876 4.36716 5.20398 4.37559 5.19338C4.37896 5.18881 4.37077 5.15822 4.37559 5.15581C4.38956 5.14978 4.44159 5.16641 4.45099 5.15581C4.47796 5.1216 4.51699 5.098 4.56179 5.08162C4.5748 5.0768 4.62779 5.09101 4.63598 5.08162C4.65597 5.05801 4.741 5.00839 4.82218 4.96961C4.87758 4.94359 4.9802 4.86242 5.0462 4.8576C5.05439 4.8576 5.13581 4.83158 5.157 4.82098C5.19843 4.80099 5.20181 4.76679 5.2324 4.74679C5.24541 4.7374 5.29623 4.7586 5.30683 4.74679C5.33164 4.7162 5.33501 4.72078 5.38102 4.70922C5.42342 4.69862 5.45184 4.65598 5.49183 4.63478C5.54964 4.6054 5.65442 4.52639 5.71584 4.52302C5.77486 4.52061 5.83604 4.4522 5.90204 4.41221C5.92685 4.3968 5.94926 4.39101 5.97623 4.37439C6.01044 4.3532 6.02465 4.31899 6.05067 4.3002C6.06367 4.29081 6.11546 4.31201 6.12486 4.3002C6.12967 4.29418 6.11908 4.266 6.12486 4.26238C6.15208 4.2448 6.20627 4.24841 6.23687 4.22601C6.25445 4.2118 6.25686 4.16338 6.27468 4.15158C6.31828 4.12099 6.38188 4.11039 6.42307 4.07619C6.46426 4.04102 6.48666 3.97598 6.53387 3.9278C6.6177 3.84398 6.70489 3.77918 6.79571 3.66741C6.94072 3.49061 7.2117 3.13459 7.0561 2.77399C7.01009 2.59719 6.80751 2.71281 6.60927 2.66319C6.59168 2.65861 6.56446 2.62561 6.57169 2.62561C6.47148 2.62079 6.37585 2.655 6.27468 2.66319C6.16846 2.67041 6.05886 2.65259 5.97623 2.66319C5.59805 2.7104 5.0674 2.86119 4.78581 3.0722C4.73257 3.11098 4.69259 3.1806 4.63598 3.22058C4.60178 3.24539 4.55697 3.23359 4.52397 3.2584C4.49459 3.2808 4.4864 3.30898 4.45099 3.33259C4.43099 3.34439 4.39317 3.3998 4.37559 3.40678C4.35536 3.41642 4.32356 3.401 4.30116 3.40678C4.27876 3.4128 4.26479 3.4446 4.26479 3.4446C4.18216 3.4564 4.16916 3.41521 4.11496 3.40678C4.05594 3.39859 3.98657 3.4222 3.92876 3.40678C3.91937 3.40461 3.92635 3.37161 3.89215 3.3692C3.72233 3.36101 3.39714 3.12278 3.37112 2.96019C3.35354 2.85661 3.42195 2.79398 3.44531 2.6998C3.46314 2.62681 3.50072 2.589 3.51975 2.5136C3.53372 2.45699 3.53372 2.42038 3.55612 2.36498C3.56455 2.34619 3.62694 2.30379 3.63176 2.29079C3.65873 2.20238 3.63296 2.1742 3.66813 2.06701C3.67295 2.054 3.70354 2.06701 3.70595 2.0304C3.70715 2.0092 3.76255 1.86178 3.78014 1.80638C3.81796 1.68738 3.84397 1.559 3.89215 1.43518C3.85336 1.37641 3.78736 1.46481 3.78014 1.4718C3.74256 1.51058 3.72136 1.60259 3.70595 1.62018C3.66476 1.671 3.62332 1.69341 3.59394 1.73219C3.52216 1.82758 3.42773 1.97259 3.33355 2.10459C3.31933 2.12578 3.29934 2.09881 3.29693 2.1412C3.29212 2.23081 3.19914 2.25321 3.14711 2.3274C3.13771 2.34161 3.16011 2.3922 3.14711 2.40159C3.0905 2.4488 3.08713 2.47121 3.0363 2.55118C3.02233 2.57141 3.00089 2.5454 2.99872 2.58779C2.99632 2.64199 2.86311 2.77158 2.81228 2.84818C2.75688 2.9308 2.72509 3.018 2.6639 3.10881C2.64608 3.13579 2.57429 3.18879 2.55189 3.22058C2.5425 3.23359 2.5649 3.28538 2.55189 3.29501C2.54009 3.30561 2.48589 3.31958 2.4777 3.33259C2.46807 3.3456 2.48951 3.39739 2.4777 3.40678C2.4211 3.45279 2.41748 3.47519 2.36569 3.5554C2.35269 3.5766 2.33149 3.54938 2.32908 3.59298C2.32788 3.60021 2.33269 3.62381 2.32908 3.6308C2.30788 3.66139 2.24068 3.7074 2.21707 3.7416C2.20069 3.76641 2.19708 3.78882 2.17925 3.81579C2.14987 3.86301 2.08386 3.9938 2.03087 4.07619C2.01786 4.09738 1.99546 4.07161 1.99305 4.114C1.99305 4.12219 1.99787 4.14459 1.99305 4.15158C1.97426 4.18241 1.90465 4.22818 1.88225 4.26238C1.86587 4.2872 1.86226 4.3108 1.84467 4.33682C1.83624 4.34958 1.81986 4.43919 1.80685 4.44858C1.74085 4.50278 1.71845 4.5724 1.65823 4.6726C1.64643 4.6926 1.62403 4.66658 1.62186 4.70922C1.62186 4.715 1.59343 4.8034 1.58404 4.82098C1.57585 4.8364 1.51563 4.84459 1.50985 4.8576C1.48986 4.90361 1.50262 4.9672 1.47203 5.00718C1.46143 5.0226 1.40603 5.02959 1.39784 5.0438C1.37182 5.08981 1.39061 5.14858 1.36123 5.19338C1.34701 5.21241 1.30004 5.21241 1.28704 5.23C1.27644 5.243 1.29884 5.29479 1.28704 5.30419C1.25982 5.32659 1.22802 5.362 1.13721 5.37958C0.969797 5.41138 0.858029 5.26661 0.728195 5.23C0.709406 4.96142 0.772998 4.695 0.840204 4.41221C0.860197 4.3226 0.881394 4.2342 0.914395 4.15158C0.919212 4.13761 0.903796 4.08462 0.914395 4.07619C0.94041 4.05499 0.959198 3.98321 0.988826 3.88999C0.992199 3.87818 0.979432 3.82398 0.988826 3.81579C0.993403 3.81218 1.02424 3.82061 1.0252 3.81579C1.03243 3.80279 1.0146 3.751 1.0252 3.7416C1.06061 3.71318 1.06422 3.652 1.10084 3.5554C1.11842 3.50699 1.15383 3.46218 1.17503 3.40678C1.21742 3.2926 1.24103 3.183 1.28704 3.0722C1.29282 3.05558 1.32124 3.0734 1.32365 3.03438C1.32823 2.94381 1.39182 2.87299 1.43542 2.77399C1.44144 2.76098 1.42482 2.70799 1.43542 2.6998C1.44023 2.69619 1.47083 2.70438 1.47203 2.6998C1.47926 2.68679 1.46143 2.635 1.47203 2.62561C1.47685 2.622 1.50744 2.63019 1.50985 2.62561C1.51683 2.6126 1.49925 2.56081 1.50985 2.55118C1.51443 2.54781 1.54526 2.556 1.54743 2.55118C1.55345 2.53721 1.53562 2.48518 1.54743 2.47699C1.59006 2.44158 1.55706 2.42158 1.58404 2.36498C1.59223 2.3486 1.65245 2.34161 1.65823 2.3274C1.68063 2.27898 1.67365 2.186 1.69605 2.1412C1.70665 2.12 1.75723 2.12241 1.77024 2.10459C1.77963 2.09158 1.75723 2.03979 1.77024 2.0304C1.77506 2.02558 1.80444 2.03521 1.80685 2.0304C1.81504 2.01618 1.79625 1.9656 1.80685 1.95621C1.81167 1.95139 1.84226 1.95958 1.84467 1.95621C1.85166 1.94199 1.83407 1.8902 1.84467 1.88201C1.84925 1.8772 1.87888 1.88659 1.88225 1.88201C1.88947 1.8678 1.87045 1.81601 1.88225 1.80638C1.88707 1.80301 1.91645 1.8112 1.91886 1.80638C1.92585 1.79361 1.90826 1.74158 1.91886 1.73219C1.92464 1.72882 1.95307 1.73821 1.95668 1.73219C1.96367 1.71918 1.94488 1.66739 1.95668 1.658C2.04508 1.58622 2.06146 1.4848 2.14288 1.35979C2.15589 1.3398 2.17708 1.36581 2.17925 1.32342C2.18046 1.31498 2.17588 1.29258 2.17925 1.2856C2.20647 1.242 2.26428 1.21839 2.29126 1.17359C2.3009 1.16058 2.27946 1.11 2.29126 1.0994C2.36907 1.03701 2.47168 0.872008 2.55189 0.764575C2.65089 0.633778 2.72388 0.518397 2.8501 0.392176C2.8819 0.361584 2.94212 0.295583 2.96091 0.281612C2.97512 0.271977 3.0257 0.293415 3.0363 0.281612C3.07653 0.231991 3.10013 0.214407 3.18492 0.169603C3.26032 0.128413 3.36052 0.0706019 3.40774 0.0575944C3.45495 0.0457913 3.51035 0.0693975 3.55612 0.0575944C3.65536 0.0351926 3.78953 0.0282071 3.96634 0.0575944C4.05715 0.0730107 4.14676 0.0718063 4.22697 0.0954125C4.23877 0.0987848 4.22817 0.130581 4.26479 0.131785C4.29538 0.134194 4.40137 0.175384 4.45099 0.205976C4.46279 0.214407 4.5524 0.231991 4.56179 0.243794C4.5654 0.248612 4.55697 0.279203 4.56179 0.281612C4.5748 0.287393 4.62779 0.269809 4.63598 0.281612C4.675 0.328584 4.68681 0.344 4.74799 0.392176C4.87301 0.491177 4.959 0.561996 5.0462 0.728203C5.058 0.751809 5.0674 0.777583 5.08281 0.802393C5.111 0.845993 5.09462 0.877789 5.12063 0.988593C5.12762 1.01918 5.15459 1.02521 5.157 1.06278C5.18181 1.38219 5.05439 1.68618 5.00862 2.0304Z" fill="#141414"/>
</svg>
