<svg width="7" height="10" viewBox="0 0 7 10" fill="none" xmlns="http://www.w3.org/2000/svg">
<path fill-rule="evenodd" clip-rule="evenodd" d="M3.53964 1.71394C3.69043 1.70454 3.78944 1.59494 3.91204 1.52774C3.97106 1.49594 4.04188 1.48293 4.09848 1.45355C4.12305 1.44054 4.15148 1.39092 4.17267 1.37911C4.18689 1.37092 4.23747 1.38971 4.24687 1.37911C4.27288 1.34852 4.27529 1.35334 4.32106 1.34154C4.35406 1.33335 4.38609 1.31673 4.43307 1.30372C4.47088 1.29432 4.51569 1.25554 4.58169 1.22953C4.5959 1.22471 4.64889 1.24013 4.65708 1.22953C4.65949 1.22712 4.65371 1.19291 4.65708 1.19291C4.74308 1.16834 4.86448 1.17051 4.95409 1.15534C5.20412 1.11174 5.37274 1.11872 5.66155 1.19291C5.78175 1.22375 5.92917 1.25554 6.03395 1.30372C6.05876 1.31552 6.08694 1.36635 6.10814 1.37911C6.12235 1.38634 6.17318 1.36731 6.18257 1.37911C6.18715 1.38393 6.17775 1.41211 6.18257 1.41573C6.19678 1.42392 6.24737 1.40392 6.25676 1.41573C6.29916 1.46631 6.33336 1.51112 6.40659 1.56411C6.43236 1.58434 6.55738 1.66913 6.59279 1.71394C6.60218 1.72694 6.57978 1.77753 6.59279 1.78813C6.64217 1.82811 6.65879 1.85292 6.70359 1.93651C6.71997 1.96855 6.71997 2.00974 6.74117 2.04852C6.75081 2.06634 6.81079 2.10874 6.8156 2.12295C6.83198 2.17113 6.8368 2.25953 6.85318 2.34552C6.8792 2.48812 6.92279 2.74972 6.88979 2.97831C6.88859 2.99012 6.89798 3.04672 6.88979 3.05274C6.82957 3.10333 6.8474 3.40033 6.8156 3.53691C6.8144 3.54414 6.78019 3.54173 6.77779 3.57353C6.77779 3.58412 6.7826 3.60195 6.77779 3.61134C6.7484 3.68674 6.69998 3.90931 6.6294 4.02012C6.60339 4.06155 6.57039 4.19933 6.5174 4.28075C6.50559 4.29954 6.40876 4.44455 6.40659 4.50452C6.40418 4.53632 6.36395 4.60353 6.33095 4.65315C6.31915 4.67194 6.22376 4.81695 6.22015 4.87572C6.21798 4.90872 6.17775 4.97472 6.14475 5.02555C6.13536 5.04072 6.11175 5.05614 6.10814 5.06192C6.08116 5.11154 6.09875 5.16092 6.07177 5.21175C6.06237 5.22692 6.00215 5.23511 5.99637 5.24812C5.96337 5.32351 5.97036 5.36254 5.92194 5.43432C5.90677 5.45793 5.86076 5.48731 5.84775 5.50875C5.83956 5.52272 5.85955 5.57355 5.84775 5.58294C5.83836 5.59113 5.77814 5.61112 5.77356 5.62052C5.74634 5.66894 5.76392 5.72072 5.73574 5.76914C5.72514 5.78913 5.70154 5.76432 5.69913 5.80672C5.69696 5.85634 5.62735 5.86453 5.62494 5.91873C5.62132 5.96835 5.55291 5.97654 5.54954 6.02953C5.54713 6.07891 5.47872 6.08855 5.47511 6.14154C5.47294 6.19092 5.40453 6.19935 5.40092 6.25355C5.40092 6.26415 5.37274 6.31473 5.36334 6.32774C5.34672 6.35255 5.30553 6.37953 5.28891 6.40193C5.27373 6.42674 5.26892 6.45035 5.25254 6.47612C5.22652 6.51731 5.20412 6.54574 5.17811 6.58813C4.96252 6.92512 4.63348 7.32835 4.35887 7.66775C4.33069 7.70292 4.31407 7.74315 4.28468 7.77832C4.27529 7.79012 4.21507 7.80554 4.21025 7.81613C4.20206 7.83251 4.22206 7.87732 4.21025 7.89033C4.13245 7.97993 4.03586 8.03534 3.94986 8.15072C3.75186 8.41592 3.41704 8.71654 3.13063 8.96995C3.09763 8.99813 3.05403 9.01475 3.01862 9.04414C2.96201 9.09352 2.91601 9.16795 2.83242 9.23034C2.7722 9.27514 2.6944 9.31513 2.60961 9.37872C2.58359 9.39895 2.55637 9.43894 2.53518 9.45315C2.52121 9.46255 2.47038 9.44135 2.46099 9.45315C2.4528 9.46375 2.4328 9.52252 2.42317 9.52734C2.37499 9.55432 2.32296 9.53674 2.27479 9.56492C2.25937 9.57456 2.24998 9.63333 2.23697 9.63935C2.16519 9.67235 2.12496 9.67813 2.05077 9.71354C1.96815 9.75353 1.85975 9.79833 1.79014 9.82555C1.60996 9.89613 1.48374 9.93274 1.26911 9.86313C1.26333 9.86072 1.25852 9.83254 1.23274 9.82555C1.18192 9.81375 1.15711 9.81375 1.12073 9.78773C1.04293 9.73715 0.816502 9.64513 0.822524 9.45315C0.808312 9.34235 0.901292 9.34933 0.97211 9.30453C0.990899 9.29273 1.13591 9.19613 1.19492 9.19252C1.20914 9.19252 1.25394 9.16434 1.26911 9.15615C1.42255 9.06654 1.54034 8.96513 1.67933 8.85794C1.81856 8.74954 1.95755 8.64813 2.08859 8.52312C2.19939 8.41713 2.31236 8.27453 2.42317 8.15072C2.47977 8.08953 2.5518 8.03413 2.60961 7.96452C2.66501 7.89972 2.69922 7.81132 2.75799 7.74194C2.81098 7.67932 2.8912 7.61934 2.94419 7.55574C3.0444 7.43555 3.12702 7.29294 3.24264 7.14673C3.25083 7.13493 3.31201 7.11975 3.31683 7.10915C3.32502 7.09133 3.30503 7.04893 3.31683 7.03472C3.34164 7.00413 3.40523 6.99112 3.42884 6.96053C3.43823 6.94632 3.41583 6.89573 3.42884 6.88634C3.44064 6.87574 3.49484 6.86033 3.50303 6.84852C3.51122 6.83551 3.49123 6.78373 3.50303 6.77433C3.54904 6.73555 3.59023 6.70134 3.65165 6.62595C3.67165 6.60114 3.71043 6.57272 3.72584 6.55031C3.73524 6.53755 3.71404 6.48672 3.72584 6.47612C3.73885 6.46673 3.79184 6.45155 3.80003 6.43975C3.80967 6.42554 3.78823 6.37495 3.80003 6.36411C3.81304 6.35472 3.86604 6.33954 3.87567 6.32774C3.88386 6.31473 3.86266 6.26294 3.87567 6.25355C3.88747 6.24295 3.94167 6.22874 3.94986 6.21573C3.95805 6.20272 3.93685 6.15094 3.94986 6.14154C3.96166 6.13215 4.01586 6.11673 4.02405 6.10372C4.03224 6.09072 4.01225 6.04013 4.02405 6.02953C4.03345 6.02134 4.09246 6.00231 4.09848 5.99292C4.12426 5.94474 4.10547 5.89054 4.13606 5.84333C4.14425 5.82912 4.20447 5.81852 4.21025 5.80672C4.21868 5.78793 4.19845 5.74794 4.21025 5.73253C4.23169 5.70314 4.26228 5.69495 4.28468 5.65834C4.32226 5.59812 4.34587 5.54994 4.39669 5.47214C4.42247 5.43095 4.44366 5.40132 4.47088 5.36013C4.4969 5.31773 4.51207 5.28232 4.54507 5.24812C4.5511 5.24113 4.65371 5.07613 4.65708 5.02555C4.65949 4.97593 4.7279 4.96653 4.73127 4.91354C4.73248 4.89571 4.75849 4.85934 4.76789 4.83935C4.78571 4.80153 4.83991 4.74854 4.84232 4.69072C4.84569 4.63412 4.91651 4.57414 4.95409 4.50452C4.9683 4.47971 4.97553 4.45514 4.99191 4.43033C5.0001 4.41733 5.02731 4.39613 5.02972 4.39252C5.05429 4.34073 5.03912 4.29592 5.0661 4.24413C5.07549 4.22535 5.10151 4.24775 5.10391 4.20632C5.10512 4.17332 5.14631 4.10731 5.17811 4.05793C5.18654 4.04372 5.21231 4.02493 5.21472 4.02012C5.24073 3.96953 5.22532 3.92352 5.25254 3.87173C5.26314 3.84933 5.31854 3.81633 5.32673 3.79754C5.35732 3.73154 5.35371 3.64892 5.40092 3.57353C5.43055 3.52872 5.47415 3.38154 5.51293 3.27652C5.51895 3.26135 5.54834 3.27773 5.54954 3.23894C5.55075 3.22955 5.54593 3.21052 5.54954 3.20233C5.57315 3.14332 5.62132 2.98193 5.66155 2.86654C5.68973 2.78392 5.67913 2.74755 5.69913 2.60591C5.70033 2.59531 5.69094 2.53895 5.69913 2.53172C5.82174 2.43152 5.67913 2.03672 5.66155 1.86232C5.21472 1.96855 4.79752 2.18871 4.47088 2.45753C4.39886 2.51655 4.33286 2.60013 4.24687 2.68155C4.17027 2.75333 4.09728 2.81692 4.02405 2.90412C3.99346 2.94074 3.94625 2.97374 3.91204 3.01613C3.88145 3.05395 3.87447 3.11393 3.83785 3.16451C3.81184 3.20113 3.75644 3.23292 3.72584 3.27652C3.71645 3.28953 3.73885 3.34011 3.72584 3.35071C3.67526 3.39214 3.67165 3.38371 3.65165 3.46272C3.63503 3.52631 3.54422 3.68794 3.50303 3.79754C3.45702 3.91895 3.47003 4.06733 3.35344 4.16994C3.15062 4.23811 2.9136 4.17211 2.72162 4.09455C2.70741 4.08973 2.65538 4.10515 2.64719 4.09455C2.64381 4.09093 2.652 4.06034 2.64719 4.05793C2.55637 4.01795 2.43738 3.98013 2.34898 3.90835C2.28659 3.85752 2.18638 3.74913 2.16278 3.68553C2.10376 3.52535 2.15579 3.27315 2.16278 3.05274C2.16976 2.82993 2.15218 2.60591 2.20035 2.38334C2.08859 2.36913 2.09557 2.46114 2.05077 2.53172C2.02957 2.56713 1.97537 2.70275 1.93996 2.79211C1.81495 3.10453 1.69836 3.57955 1.64175 4.02012C1.59454 4.39372 1.58756 4.74492 1.56732 5.21175C1.54974 5.60992 1.54853 6.04495 1.56732 6.51394C1.57816 6.77674 1.57816 7.04412 1.60394 7.29535C1.60394 7.29415 1.64055 7.30692 1.64175 7.33173C1.64513 7.40014 1.61333 7.50034 1.64175 7.59212C1.65235 7.62632 1.67235 7.72894 1.67933 7.85395C1.68054 7.88695 1.66994 7.93392 1.67933 7.96452C1.72654 8.12133 1.74196 8.53372 1.67933 8.78375C0.858897 8.87914 0.772903 8.07412 0.636083 7.40712C0.634879 7.40134 0.601879 7.40014 0.599711 7.36954C0.593689 7.25392 0.58309 7.20454 0.561893 7.07134C0.546476 6.96655 0.540695 6.84515 0.525279 6.73651C0.524074 6.73555 0.49011 6.72832 0.487702 6.70014C0.485293 6.65052 0.494687 6.59873 0.487702 6.55031C0.47349 6.43855 0.467709 6.35255 0.451088 6.17912C0.442898 6.10252 0.419292 6.08132 0.41327 6.02953C0.387496 5.78311 0.393277 5.53934 0.376897 5.28594C0.376897 5.28955 0.340283 5.27173 0.339079 5.24812C0.317882 4.84055 0.315473 4.22173 0.339079 3.75973C0.347269 3.58172 0.368466 3.32494 0.41327 3.16451C0.416883 3.15175 0.403876 3.09755 0.41327 3.09032C0.466504 3.04672 0.4653 2.87233 0.487702 2.75574C0.49011 2.74394 0.479512 2.68733 0.487702 2.68155C0.528892 2.64734 0.561893 2.48114 0.599711 2.38334C0.604287 2.37033 0.590316 2.31734 0.599711 2.30915C0.603083 2.30554 0.634879 2.31252 0.636083 2.30915C0.673901 2.20654 0.671493 2.12873 0.71172 2.01094C0.716296 1.99793 0.746888 2.01094 0.748092 1.97433C0.751706 1.92013 0.818911 1.89291 0.822524 1.82474C0.825896 1.76813 0.93092 1.64071 0.934533 1.56411C0.937905 1.50534 1.00511 1.44512 1.0463 1.37911C1.07111 1.33792 1.08171 1.29071 1.12073 1.22953C1.13374 1.20954 1.15614 1.23531 1.15831 1.19291C1.16072 1.13534 1.26092 1.10234 1.30693 1.04333C1.31753 1.03032 1.29392 0.979736 1.30693 0.969138C1.35752 0.927947 1.41075 0.903137 1.49313 0.857129C1.51192 0.84653 1.48856 0.822924 1.52975 0.820515C1.57913 0.818347 1.64416 0.732112 1.71595 0.708747C1.73714 0.701521 1.76894 0.70971 1.79014 0.708747C1.85614 0.703929 1.86915 0.66852 1.93996 0.672133C2.19457 0.681528 2.41618 0.72874 2.64719 0.820515C2.64719 0.820515 2.79099 0.852311 2.79581 0.857129C2.8252 0.893742 2.82881 0.905545 2.87 0.932524C2.88301 0.939509 2.97141 0.957335 2.98201 0.969138C3.00682 0.999729 3.0244 1.07753 3.09402 1.08115C3.101 1.08115 3.16002 1.11053 3.16821 1.11872C3.34381 1.27313 3.42763 1.43331 3.53964 1.71394Z" fill="#141414"/>
</svg>
