<svg width="21" height="14" viewBox="0 0 21 14" fill="none" xmlns="http://www.w3.org/2000/svg">
<path d="M2.60547 7H18.3912" stroke="#141414" stroke-linecap="round" stroke-linejoin="round"/>
<path d="M16.9102 1.75C16.9102 1.33579 16.4624 1 15.9102 1C15.3579 1 14.9102 1.33579 14.9102 1.75V12.25C14.9102 12.6642 15.3579 13 15.9102 13C16.4624 13 16.9102 12.6642 16.9102 12.25V1.75Z" stroke="#141414" stroke-linecap="round" stroke-linejoin="round"/>
<path d="M6 1.75C6 1.33579 5.55228 1 5 1C4.44772 1 4 1.33579 4 1.75V12.25C4 12.6642 4.44772 13 5 13C5.55228 13 6 12.6642 6 12.25V1.75Z" stroke="#141414" stroke-linecap="round" stroke-linejoin="round"/>
<path d="M2.5 4.8125C2.5 4.63991 2.16421 4.5 1.75 4.5C1.33579 4.5 1 4.63991 1 4.8125V9.1875C1 9.36009 1.33579 9.5 1.75 9.5C2.16421 9.5 2.5 9.36009 2.5 9.1875V4.8125Z" stroke="#141414" stroke-linecap="round" stroke-linejoin="round"/>
<path d="M19.9961 4.8125C19.9961 4.63991 19.6603 4.5 19.2461 4.5C18.8319 4.5 18.4961 4.63991 18.4961 4.8125V9.1875C18.4961 9.36009 18.8319 9.5 19.2461 9.5C19.6603 9.5 19.9961 9.36009 19.9961 9.1875V4.8125Z" stroke="#141414" stroke-linecap="round" stroke-linejoin="round"/>
</svg>
