<svg width="22" height="22" viewBox="0 0 22 22" fill="none" xmlns="http://www.w3.org/2000/svg">
<path d="M21.3491 10.8496C21.3491 12.9263 20.7333 14.9564 19.5796 16.6831C18.4258 18.4098 16.7859 19.7556 14.8673 20.5503C12.9487 21.3451 10.8375 21.553 8.80067 21.1479C6.76387 20.7427 4.89295 19.7427 3.4245 18.2742C1.95605 16.8058 0.95602 14.9349 0.550876 12.8981C0.145731 10.8613 0.353666 8.75006 1.14839 6.83143C1.94311 4.91281 3.28892 3.27293 5.01563 2.11918C6.74235 0.965424 8.77242 0.349609 10.8491 0.349609V1.78583C9.05648 1.78583 7.30409 2.31741 5.81356 3.31335C4.32303 4.30929 3.1613 5.72486 2.47528 7.38105C1.78927 9.03724 1.60977 10.8597 1.9595 12.6179C2.30923 14.3761 3.17247 15.9911 4.44006 17.2587C5.70765 18.5263 7.32266 19.3895 9.08087 19.7392C10.8391 20.089 12.6615 19.9095 14.3177 19.2234C15.9739 18.5374 17.3894 17.3757 18.3854 15.8852C19.3813 14.3946 19.9129 12.6423 19.9129 10.8496H21.3491Z" fill="url(#paint0_linear_526_2513)"/>
<defs>
<linearGradient id="paint0_linear_526_2513" x1="8.84912" y1="0.349609" x2="25.3491" y2="30.3496" gradientUnits="userSpaceOnUse">
<stop stop-color="#141414"/>
<stop offset="1" stop-color="#141414" stop-opacity="0.41"/>
</linearGradient>
</defs>
</svg>
