<svg width="22" height="22" viewBox="0 0 22 22" fill="none" xmlns="http://www.w3.org/2000/svg">
<path d="M18.2737 18.2739C20.1863 16.3613 21.2871 13.7844 21.3466 11.0803C21.4061 8.3762 20.4198 5.75341 18.5933 3.75853C16.7667 1.76366 14.2408 0.550587 11.5419 0.372123C8.84304 0.193659 6.17939 1.06357 4.10607 2.80057C2.03274 4.53756 0.709695 7.00765 0.412638 9.69606C0.115582 12.3845 0.867434 15.0838 2.51151 17.2316C4.15559 19.3793 6.56506 20.8098 9.2378 21.2249C11.9105 21.6399 14.6404 21.0076 16.8584 19.4596L16.0364 18.2819C14.1218 19.6181 11.7654 20.164 9.4582 19.8057C7.15105 19.4474 5.07115 18.2126 3.65195 16.3586C2.23276 14.5046 1.58375 12.1745 1.84017 9.8538C2.0966 7.53311 3.23867 5.40089 5.0284 3.90149C6.81813 2.40208 9.11744 1.65116 11.4472 1.80522C13.7769 1.95927 15.9573 3.00641 17.534 4.72842C19.1107 6.45044 19.9621 8.71447 19.9107 11.0487C19.8593 13.383 18.9091 15.6073 17.2582 17.2583L18.2737 18.2739Z" fill="#CCCACA"/>
</svg>
